%TF.GenerationSoftware,KiCad,Pcbnew,10.0.4*%
%TF.CreationDate,2026-07-26T09:12:55+02:00*%
%TF.ProjectId,Homematic-6Button-Flush,486f6d65-6d61-4746-9963-2d3642757474,rev?*%
%TF.SameCoordinates,Original*%
%TF.FileFunction,Other,User*%
%FSLAX46Y46*%
G04 Gerber Fmt 4.6, Leading zero omitted, Abs format (unit mm)*
G04 Created by KiCad (PCBNEW 10.0.4) date 2026-07-26 09:12:55*
%MOMM*%
%LPD*%
G01*
G04 APERTURE LIST*
%ADD10C,0.050000*%
G04 APERTURE END LIST*
%TO.C,LED1*%
D10*
X-1680000Y-8050000D02*
X1680000Y-8050000D01*
X1680000Y-9950000D01*
X-1680000Y-9950000D01*
X-1680000Y-8050000D01*
%TO.C,SW4*%
X13449200Y-11620700D02*
X13449200Y-16420700D01*
X13449200Y-16420700D02*
X16749200Y-16420700D01*
X16749200Y-11620700D02*
X13449200Y-11620700D01*
X16749200Y-16420700D02*
X16749200Y-11620700D01*
%TO.C,SW1*%
X-16749200Y-11620700D02*
X-16749200Y-16420700D01*
X-16749200Y-16420700D02*
X-13449200Y-16420700D01*
X-13449200Y-11620700D02*
X-16749200Y-11620700D01*
X-13449200Y-16420700D02*
X-13449200Y-11620700D01*
%TO.C,SW2*%
X-17900000Y1650000D02*
X-17900000Y-1650000D01*
X-17900000Y-1650000D02*
X-13100000Y-1650000D01*
X-13100000Y1650000D02*
X-17900000Y1650000D01*
X-13100000Y-1650000D02*
X-13100000Y1650000D01*
%TO.C,SW5*%
X13850000Y2400000D02*
X13850000Y-2400000D01*
X13850000Y-2400000D02*
X17150000Y-2400000D01*
X17150000Y2400000D02*
X13850000Y2400000D01*
X17150000Y-2400000D02*
X17150000Y2400000D01*
%TO.C,SW6*%
X12699200Y15670700D02*
X12699200Y12370700D01*
X12699200Y12370700D02*
X17499200Y12370700D01*
X17499200Y15670700D02*
X12699200Y15670700D01*
X17499200Y12370700D02*
X17499200Y15670700D01*
%TO.C,SW3*%
X-16749200Y16420700D02*
X-16749200Y11620700D01*
X-16749200Y11620700D02*
X-13449200Y11620700D01*
X-13449200Y16420700D02*
X-16749200Y16420700D01*
X-13449200Y11620700D02*
X-13449200Y16420700D01*
%TD*%
M02*
