%TF.GenerationSoftware,KiCad,Pcbnew,10.0.4*%
%TF.CreationDate,2026-07-26T09:12:55+02:00*%
%TF.ProjectId,Homematic-6Button-Flush,486f6d65-6d61-4746-9963-2d3642757474,rev?*%
%TF.SameCoordinates,Original*%
%TF.FileFunction,Copper,L2,Inr*%
%TF.FilePolarity,Positive*%
%FSLAX46Y46*%
G04 Gerber Fmt 4.6, Leading zero omitted, Abs format (unit mm)*
G04 Created by KiCad (PCBNEW 10.0.4) date 2026-07-26 09:12:55*
%MOMM*%
%LPD*%
G01*
G04 APERTURE LIST*
%TA.AperFunction,ComponentPad*%
%ADD10R,1.700000X1.700000*%
%TD*%
%TA.AperFunction,ComponentPad*%
%ADD11C,1.700000*%
%TD*%
%TA.AperFunction,ViaPad*%
%ADD12C,0.600000*%
%TD*%
%TA.AperFunction,ViaPad*%
%ADD13C,0.400000*%
%TD*%
G04 APERTURE END LIST*
D10*
%TO.N,+3V0*%
%TO.C,J_SWD*%
X-18600000Y3500000D03*
D11*
%TO.N,SWDIO*%
X-18600000Y6040000D03*
%TO.N,SWCLK*%
X-18600000Y8580000D03*
%TO.N,NRST*%
X-18600000Y11120000D03*
%TO.N,GND*%
X-18600000Y13660000D03*
%TD*%
D10*
%TO.N,GND*%
%TO.C,J_RF*%
X9000000Y-15200000D03*
D11*
%TO.N,+3V0*%
X6460000Y-15200000D03*
%TO.N,RF_GDO0*%
X3920000Y-15200000D03*
%TO.N,RF_CSN*%
X1380000Y-15200000D03*
%TO.N,SPI_SCK*%
X-1160000Y-15200000D03*
%TO.N,SPI_MOSI*%
X-3700000Y-15200000D03*
%TO.N,SPI_MISO*%
X-6240000Y-15200000D03*
%TO.N,RF_GDO2*%
X-8780000Y-15200000D03*
%TD*%
D12*
%TO.N,GND*%
X15500000Y1700000D03*
X6000000Y-5225000D03*
X-13800000Y0D03*
X-6000000Y-5225000D03*
X-15099200Y15720700D03*
X16799200Y14020700D03*
X11050000Y-3000000D03*
X-15099200Y-12320700D03*
X-937500Y-9000000D03*
X15099200Y-12320700D03*
X0Y11000000D03*
D13*
X2862500Y-5675000D03*
D12*
%TO.N,LED_A*%
X964700Y-10642900D03*
%TO.N,BTN4*%
X7993200Y-8614700D03*
%TO.N,BTN1*%
X-7129100Y-1058400D03*
%TO.N,BTN2*%
X-973100Y-4393200D03*
%TO.N,BTN5*%
X14481000Y-6757700D03*
%TO.N,BTN6*%
X452300Y-7040600D03*
%TO.N,BTN3*%
X-14096700Y7144400D03*
D13*
%TO.N,+3V0*%
X2862500Y-5025000D03*
D12*
X-6000000Y-6775000D03*
X12950000Y-3000000D03*
X-12800000Y11000000D03*
X12800000Y11000000D03*
X6000000Y-6775000D03*
%TO.N,RF_GDO2*%
X-6575100Y-2592300D03*
%TO.N,RF_GDO0*%
X-1076800Y-5353300D03*
%TO.N,SPI_MOSI*%
X-4828000Y-3121600D03*
%TD*%
%TA.AperFunction,Conductor*%
%TO.N,GND*%
G36*
X6307028Y23571703D02*
G01*
X6332081Y23564986D01*
X12187964Y21134994D01*
X12210336Y21122058D01*
X17239714Y17257902D01*
X17257902Y17239714D01*
X21122058Y12210336D01*
X21134994Y12187964D01*
X23564986Y6332081D01*
X23571703Y6307028D01*
X24398307Y12891D01*
X24398307Y-12891D01*
X23571703Y-6307028D01*
X23564986Y-6332081D01*
X21134309Y-12189615D01*
X21123472Y-12209153D01*
X18449609Y-15958482D01*
X18400428Y-15994881D01*
X18369006Y-16000000D01*
X10449000Y-16000000D01*
X10390809Y-15981093D01*
X10354845Y-15931593D01*
X10350000Y-15901000D01*
X10350000Y-15450001D01*
X10349999Y-15450000D01*
X9433012Y-15450000D01*
X9465925Y-15392993D01*
X9500000Y-15265826D01*
X9500000Y-15134174D01*
X9465925Y-15007007D01*
X9433012Y-14950000D01*
X10349999Y-14950000D01*
X10350000Y-14949999D01*
X10350000Y-14302175D01*
X10343598Y-14242629D01*
X10343596Y-14242618D01*
X10293353Y-14107911D01*
X10293352Y-14107909D01*
X10207192Y-13992815D01*
X10207184Y-13992807D01*
X10092090Y-13906647D01*
X10092088Y-13906646D01*
X9957381Y-13856403D01*
X9957370Y-13856401D01*
X9897824Y-13850000D01*
X9250001Y-13850000D01*
X9250000Y-13850001D01*
X9250000Y-14766988D01*
X9192993Y-14734075D01*
X9065826Y-14700000D01*
X8934174Y-14700000D01*
X8807007Y-14734075D01*
X8750000Y-14766988D01*
X8750000Y-13850001D01*
X8749999Y-13850000D01*
X8102176Y-13850000D01*
X8042629Y-13856401D01*
X8042618Y-13856403D01*
X7907911Y-13906646D01*
X7907909Y-13906647D01*
X7792815Y-13992807D01*
X7792807Y-13992815D01*
X7706647Y-14107909D01*
X7706646Y-14107911D01*
X7656403Y-14242618D01*
X7656401Y-14242629D01*
X7650000Y-14302175D01*
X7650000Y-14588946D01*
X7631093Y-14647137D01*
X7581593Y-14683101D01*
X7520407Y-14683101D01*
X7470907Y-14647137D01*
X7462790Y-14633891D01*
X7443997Y-14597008D01*
X7434321Y-14583690D01*
X7337553Y-14450499D01*
X7209501Y-14322447D01*
X7062994Y-14216004D01*
X7062993Y-14216003D01*
X7062991Y-14216002D01*
X6901637Y-14133788D01*
X6729406Y-14077828D01*
X6550549Y-14049500D01*
X6550546Y-14049500D01*
X6369454Y-14049500D01*
X6369451Y-14049500D01*
X6190593Y-14077828D01*
X6018362Y-14133788D01*
X5857008Y-14216002D01*
X5783752Y-14269225D01*
X5710499Y-14322447D01*
X5582447Y-14450499D01*
X5529225Y-14523752D01*
X5476002Y-14597008D01*
X5393788Y-14758362D01*
X5337828Y-14930593D01*
X5309500Y-15109450D01*
X5309500Y-15290549D01*
X5337828Y-15469406D01*
X5393788Y-15641637D01*
X5476003Y-15802993D01*
X5476007Y-15802999D01*
X5504931Y-15842809D01*
X5523839Y-15901000D01*
X5504932Y-15959190D01*
X5455432Y-15995154D01*
X5424839Y-16000000D01*
X4955161Y-16000000D01*
X4896970Y-15981093D01*
X4861006Y-15931593D01*
X4861006Y-15870407D01*
X4875069Y-15842809D01*
X4903992Y-15802999D01*
X4903996Y-15802994D01*
X4986211Y-15641639D01*
X5042171Y-15469409D01*
X5070500Y-15290546D01*
X5070500Y-15109454D01*
X5070500Y-15109450D01*
X5042171Y-14930593D01*
X5042171Y-14930591D01*
X4986211Y-14758361D01*
X4903996Y-14597006D01*
X4797553Y-14450499D01*
X4669501Y-14322447D01*
X4522994Y-14216004D01*
X4522993Y-14216003D01*
X4522991Y-14216002D01*
X4361637Y-14133788D01*
X4189406Y-14077828D01*
X4010549Y-14049500D01*
X4010546Y-14049500D01*
X3829454Y-14049500D01*
X3829451Y-14049500D01*
X3650593Y-14077828D01*
X3478362Y-14133788D01*
X3317008Y-14216002D01*
X3243752Y-14269225D01*
X3170499Y-14322447D01*
X3042447Y-14450499D01*
X2989225Y-14523752D01*
X2936002Y-14597008D01*
X2853788Y-14758362D01*
X2797828Y-14930593D01*
X2769500Y-15109450D01*
X2769500Y-15290549D01*
X2797828Y-15469406D01*
X2853788Y-15641637D01*
X2936003Y-15802993D01*
X2936007Y-15802999D01*
X2964931Y-15842809D01*
X2983839Y-15901000D01*
X2964932Y-15959190D01*
X2915432Y-15995154D01*
X2884839Y-16000000D01*
X2415161Y-16000000D01*
X2356970Y-15981093D01*
X2321006Y-15931593D01*
X2321006Y-15870407D01*
X2335069Y-15842809D01*
X2363992Y-15802999D01*
X2363996Y-15802994D01*
X2446211Y-15641639D01*
X2502171Y-15469409D01*
X2530500Y-15290546D01*
X2530500Y-15109454D01*
X2530500Y-15109450D01*
X2502171Y-14930593D01*
X2502171Y-14930591D01*
X2446211Y-14758361D01*
X2363996Y-14597006D01*
X2257553Y-14450499D01*
X2129501Y-14322447D01*
X1982994Y-14216004D01*
X1982993Y-14216003D01*
X1982991Y-14216002D01*
X1821637Y-14133788D01*
X1649406Y-14077828D01*
X1470549Y-14049500D01*
X1470546Y-14049500D01*
X1289454Y-14049500D01*
X1289451Y-14049500D01*
X1110593Y-14077828D01*
X938362Y-14133788D01*
X777008Y-14216002D01*
X703752Y-14269225D01*
X630499Y-14322447D01*
X502447Y-14450499D01*
X449225Y-14523752D01*
X396002Y-14597008D01*
X313788Y-14758362D01*
X257828Y-14930593D01*
X229500Y-15109450D01*
X229500Y-15290549D01*
X257828Y-15469406D01*
X313788Y-15641637D01*
X396003Y-15802993D01*
X396007Y-15802999D01*
X424931Y-15842809D01*
X443839Y-15901000D01*
X424932Y-15959190D01*
X375432Y-15995154D01*
X344839Y-16000000D01*
X-124839Y-16000000D01*
X-183030Y-15981093D01*
X-218994Y-15931593D01*
X-218994Y-15870407D01*
X-204931Y-15842809D01*
X-176007Y-15802999D01*
X-176003Y-15802993D01*
X-93788Y-15641637D01*
X-37828Y-15469406D01*
X-9500Y-15290549D01*
X-9500Y-15109450D01*
X-37828Y-14930593D01*
X-93788Y-14758362D01*
X-176002Y-14597008D01*
X-229225Y-14523752D01*
X-282447Y-14450499D01*
X-410499Y-14322447D01*
X-483752Y-14269225D01*
X-557008Y-14216002D01*
X-718362Y-14133788D01*
X-890593Y-14077828D01*
X-1069451Y-14049500D01*
X-1069454Y-14049500D01*
X-1250546Y-14049500D01*
X-1250549Y-14049500D01*
X-1429406Y-14077828D01*
X-1601637Y-14133788D01*
X-1762991Y-14216002D01*
X-1762993Y-14216003D01*
X-1762994Y-14216004D01*
X-1909501Y-14322447D01*
X-2037553Y-14450499D01*
X-2143996Y-14597006D01*
X-2226211Y-14758361D01*
X-2282171Y-14930591D01*
X-2282171Y-14930593D01*
X-2310500Y-15109450D01*
X-2310500Y-15109454D01*
X-2310500Y-15290546D01*
X-2282171Y-15469409D01*
X-2226211Y-15641639D01*
X-2143996Y-15802994D01*
X-2143992Y-15802999D01*
X-2115069Y-15842809D01*
X-2096161Y-15901000D01*
X-2115068Y-15959190D01*
X-2164568Y-15995154D01*
X-2195161Y-16000000D01*
X-2664839Y-16000000D01*
X-2723030Y-15981093D01*
X-2758994Y-15931593D01*
X-2758994Y-15870407D01*
X-2744931Y-15842809D01*
X-2716007Y-15802999D01*
X-2716003Y-15802993D01*
X-2633788Y-15641637D01*
X-2577828Y-15469406D01*
X-2549500Y-15290549D01*
X-2549500Y-15109450D01*
X-2577828Y-14930593D01*
X-2633788Y-14758362D01*
X-2716002Y-14597008D01*
X-2769225Y-14523752D01*
X-2822447Y-14450499D01*
X-2950499Y-14322447D01*
X-3023752Y-14269225D01*
X-3097008Y-14216002D01*
X-3258362Y-14133788D01*
X-3430593Y-14077828D01*
X-3609451Y-14049500D01*
X-3609454Y-14049500D01*
X-3790546Y-14049500D01*
X-3790549Y-14049500D01*
X-3969406Y-14077828D01*
X-4141637Y-14133788D01*
X-4302991Y-14216002D01*
X-4302993Y-14216003D01*
X-4302994Y-14216004D01*
X-4449501Y-14322447D01*
X-4577553Y-14450499D01*
X-4683996Y-14597006D01*
X-4766211Y-14758361D01*
X-4822171Y-14930591D01*
X-4822171Y-14930593D01*
X-4850500Y-15109450D01*
X-4850500Y-15109454D01*
X-4850500Y-15290546D01*
X-4822171Y-15469409D01*
X-4766211Y-15641639D01*
X-4683996Y-15802994D01*
X-4683992Y-15802999D01*
X-4655069Y-15842809D01*
X-4636161Y-15901000D01*
X-4655068Y-15959190D01*
X-4704568Y-15995154D01*
X-4735161Y-16000000D01*
X-5204839Y-16000000D01*
X-5263030Y-15981093D01*
X-5298994Y-15931593D01*
X-5298994Y-15870407D01*
X-5284931Y-15842809D01*
X-5256007Y-15802999D01*
X-5256003Y-15802993D01*
X-5173788Y-15641637D01*
X-5117828Y-15469406D01*
X-5089500Y-15290549D01*
X-5089500Y-15109450D01*
X-5117828Y-14930593D01*
X-5173788Y-14758362D01*
X-5256002Y-14597008D01*
X-5309225Y-14523752D01*
X-5362447Y-14450499D01*
X-5490499Y-14322447D01*
X-5563752Y-14269225D01*
X-5637008Y-14216002D01*
X-5798362Y-14133788D01*
X-5970593Y-14077828D01*
X-6149451Y-14049500D01*
X-6149454Y-14049500D01*
X-6330546Y-14049500D01*
X-6330549Y-14049500D01*
X-6509406Y-14077828D01*
X-6681637Y-14133788D01*
X-6842991Y-14216002D01*
X-6842993Y-14216003D01*
X-6842994Y-14216004D01*
X-6989501Y-14322447D01*
X-7117553Y-14450499D01*
X-7223996Y-14597006D01*
X-7306211Y-14758361D01*
X-7362171Y-14930591D01*
X-7362171Y-14930593D01*
X-7390500Y-15109450D01*
X-7390500Y-15109454D01*
X-7390500Y-15290546D01*
X-7362171Y-15469409D01*
X-7306211Y-15641639D01*
X-7223996Y-15802994D01*
X-7223992Y-15802999D01*
X-7195069Y-15842809D01*
X-7176161Y-15901000D01*
X-7195068Y-15959190D01*
X-7244568Y-15995154D01*
X-7275161Y-16000000D01*
X-7744839Y-16000000D01*
X-7803030Y-15981093D01*
X-7838994Y-15931593D01*
X-7838994Y-15870407D01*
X-7824931Y-15842809D01*
X-7796007Y-15802999D01*
X-7796003Y-15802993D01*
X-7713788Y-15641637D01*
X-7657828Y-15469406D01*
X-7629500Y-15290549D01*
X-7629500Y-15109450D01*
X-7657828Y-14930593D01*
X-7713788Y-14758362D01*
X-7796002Y-14597008D01*
X-7849225Y-14523752D01*
X-7902447Y-14450499D01*
X-8030499Y-14322447D01*
X-8103752Y-14269225D01*
X-8177008Y-14216002D01*
X-8338362Y-14133788D01*
X-8510593Y-14077828D01*
X-8689451Y-14049500D01*
X-8689454Y-14049500D01*
X-8870546Y-14049500D01*
X-8870549Y-14049500D01*
X-9049406Y-14077828D01*
X-9221637Y-14133788D01*
X-9382991Y-14216002D01*
X-9382993Y-14216003D01*
X-9382994Y-14216004D01*
X-9529501Y-14322447D01*
X-9657553Y-14450499D01*
X-9763996Y-14597006D01*
X-9846211Y-14758361D01*
X-9902171Y-14930591D01*
X-9902171Y-14930593D01*
X-9930500Y-15109450D01*
X-9930500Y-15109454D01*
X-9930500Y-15290546D01*
X-9902171Y-15469409D01*
X-9846211Y-15641639D01*
X-9763996Y-15802994D01*
X-9763992Y-15802999D01*
X-9735069Y-15842809D01*
X-9716161Y-15901000D01*
X-9735068Y-15959190D01*
X-9784568Y-15995154D01*
X-9815161Y-16000000D01*
X-18369006Y-16000000D01*
X-18427197Y-15981093D01*
X-18449609Y-15958482D01*
X-21123472Y-12209153D01*
X-21134309Y-12189615D01*
X-21795896Y-10595298D01*
X-21808949Y-10563843D01*
X364200Y-10563843D01*
X364200Y-10721957D01*
X405123Y-10874684D01*
X484180Y-11011616D01*
X595984Y-11123420D01*
X732916Y-11202477D01*
X885643Y-11243400D01*
X885645Y-11243400D01*
X1043755Y-11243400D01*
X1043757Y-11243400D01*
X1196484Y-11202477D01*
X1333416Y-11123420D01*
X1445220Y-11011616D01*
X1524277Y-10874684D01*
X1565200Y-10721957D01*
X1565200Y-10563843D01*
X1524277Y-10411116D01*
X1445220Y-10274184D01*
X1333416Y-10162380D01*
X1196484Y-10083323D01*
X1043757Y-10042400D01*
X885643Y-10042400D01*
X732916Y-10083323D01*
X595984Y-10162380D01*
X484180Y-10274184D01*
X405123Y-10411116D01*
X364200Y-10563843D01*
X-21808949Y-10563843D01*
X-22637530Y-8567098D01*
X-22650583Y-8535643D01*
X7392700Y-8535643D01*
X7392700Y-8693757D01*
X7433623Y-8846484D01*
X7512680Y-8983416D01*
X7624484Y-9095220D01*
X7761416Y-9174277D01*
X7914143Y-9215200D01*
X7914145Y-9215200D01*
X8072255Y-9215200D01*
X8072257Y-9215200D01*
X8224984Y-9174277D01*
X8361916Y-9095220D01*
X8473720Y-8983416D01*
X8552777Y-8846484D01*
X8593700Y-8693757D01*
X8593700Y-8535643D01*
X8552777Y-8382916D01*
X8473720Y-8245984D01*
X8361916Y-8134180D01*
X8224984Y-8055123D01*
X8072257Y-8014200D01*
X7914143Y-8014200D01*
X7761416Y-8055123D01*
X7624484Y-8134180D01*
X7512680Y-8245984D01*
X7433623Y-8382916D01*
X7392700Y-8535643D01*
X-22650583Y-8535643D01*
X-23400943Y-6727398D01*
X-23413996Y-6695943D01*
X-6600500Y-6695943D01*
X-6600500Y-6854057D01*
X-6559577Y-7006784D01*
X-6480520Y-7143716D01*
X-6368716Y-7255520D01*
X-6231784Y-7334577D01*
X-6079057Y-7375500D01*
X-6079055Y-7375500D01*
X-5920945Y-7375500D01*
X-5920943Y-7375500D01*
X-5768216Y-7334577D01*
X-5631284Y-7255520D01*
X-5519480Y-7143716D01*
X-5440423Y-7006784D01*
X-5428301Y-6961543D01*
X-148200Y-6961543D01*
X-148200Y-7119657D01*
X-107277Y-7272384D01*
X-28220Y-7409316D01*
X83584Y-7521120D01*
X220516Y-7600177D01*
X373243Y-7641100D01*
X373245Y-7641100D01*
X531355Y-7641100D01*
X531357Y-7641100D01*
X684084Y-7600177D01*
X821016Y-7521120D01*
X932820Y-7409316D01*
X1011877Y-7272384D01*
X1052800Y-7119657D01*
X1052800Y-6961543D01*
X1011877Y-6808816D01*
X946710Y-6695943D01*
X5399500Y-6695943D01*
X5399500Y-6854057D01*
X5440423Y-7006784D01*
X5519480Y-7143716D01*
X5631284Y-7255520D01*
X5768216Y-7334577D01*
X5920943Y-7375500D01*
X5920945Y-7375500D01*
X6079055Y-7375500D01*
X6079057Y-7375500D01*
X6231784Y-7334577D01*
X6368716Y-7255520D01*
X6480520Y-7143716D01*
X6559577Y-7006784D01*
X6600500Y-6854057D01*
X6600500Y-6695943D01*
X6595864Y-6678643D01*
X13880500Y-6678643D01*
X13880500Y-6836757D01*
X13921423Y-6989484D01*
X14000480Y-7126416D01*
X14112284Y-7238220D01*
X14249216Y-7317277D01*
X14401943Y-7358200D01*
X14401945Y-7358200D01*
X14560055Y-7358200D01*
X14560057Y-7358200D01*
X14712784Y-7317277D01*
X14849716Y-7238220D01*
X14961520Y-7126416D01*
X15040577Y-6989484D01*
X15081500Y-6836757D01*
X15081500Y-6678643D01*
X15040577Y-6525916D01*
X14961520Y-6388984D01*
X14849716Y-6277180D01*
X14712784Y-6198123D01*
X14560057Y-6157200D01*
X14401943Y-6157200D01*
X14249216Y-6198123D01*
X14112284Y-6277180D01*
X14000480Y-6388984D01*
X13921423Y-6525916D01*
X13880500Y-6678643D01*
X6595864Y-6678643D01*
X6559577Y-6543216D01*
X6480520Y-6406284D01*
X6368716Y-6294480D01*
X6231784Y-6215423D01*
X6079057Y-6174500D01*
X5920943Y-6174500D01*
X5768216Y-6215423D01*
X5631284Y-6294480D01*
X5519480Y-6406284D01*
X5440423Y-6543216D01*
X5399500Y-6695943D01*
X946710Y-6695943D01*
X932820Y-6671884D01*
X821016Y-6560080D01*
X684084Y-6481023D01*
X531357Y-6440100D01*
X373243Y-6440100D01*
X220516Y-6481023D01*
X83584Y-6560080D01*
X-28220Y-6671884D01*
X-107277Y-6808816D01*
X-148200Y-6961543D01*
X-5428301Y-6961543D01*
X-5399500Y-6854057D01*
X-5399500Y-6695943D01*
X-5440423Y-6543216D01*
X-5519480Y-6406284D01*
X-5631284Y-6294480D01*
X-5768216Y-6215423D01*
X-5920943Y-6174500D01*
X-6079057Y-6174500D01*
X-6231784Y-6215423D01*
X-6368716Y-6294480D01*
X-6480520Y-6406284D01*
X-6559577Y-6543216D01*
X-6600500Y-6695943D01*
X-23413996Y-6695943D01*
X-23564986Y-6332081D01*
X-23571703Y-6307028D01*
X-23706497Y-5280645D01*
X-23707338Y-5274243D01*
X-1677300Y-5274243D01*
X-1677300Y-5432357D01*
X-1636377Y-5585084D01*
X-1557320Y-5722016D01*
X-1445516Y-5833820D01*
X-1308584Y-5912877D01*
X-1155857Y-5953800D01*
X-1155855Y-5953800D01*
X-997745Y-5953800D01*
X-997743Y-5953800D01*
X-845016Y-5912877D01*
X-708084Y-5833820D01*
X-596280Y-5722016D01*
X-517223Y-5585084D01*
X-476300Y-5432357D01*
X-476300Y-5274243D01*
X-517223Y-5121516D01*
X-596280Y-4984584D01*
X-597454Y-4983409D01*
X-601326Y-4976987D01*
X-605479Y-4959108D01*
X2362000Y-4959108D01*
X2362000Y-5090892D01*
X2370206Y-5121516D01*
X2396109Y-5218190D01*
X2461996Y-5332309D01*
X2461998Y-5332311D01*
X2462000Y-5332314D01*
X2555186Y-5425500D01*
X2555188Y-5425501D01*
X2555190Y-5425503D01*
X2669310Y-5491390D01*
X2669308Y-5491390D01*
X2669312Y-5491391D01*
X2669314Y-5491392D01*
X2796608Y-5525500D01*
X2796610Y-5525500D01*
X2928390Y-5525500D01*
X2928392Y-5525500D01*
X3055686Y-5491392D01*
X3055688Y-5491390D01*
X3055690Y-5491390D01*
X3169809Y-5425503D01*
X3169809Y-5425502D01*
X3169814Y-5425500D01*
X3263000Y-5332314D01*
X3296527Y-5274244D01*
X3328890Y-5218190D01*
X3328890Y-5218188D01*
X3328892Y-5218186D01*
X3363000Y-5090892D01*
X3363000Y-4959108D01*
X3328892Y-4831814D01*
X3328890Y-4831811D01*
X3328890Y-4831809D01*
X3263003Y-4717690D01*
X3263001Y-4717688D01*
X3263000Y-4717686D01*
X3169814Y-4624500D01*
X3169811Y-4624498D01*
X3169809Y-4624496D01*
X3055689Y-4558609D01*
X3055691Y-4558609D01*
X3006299Y-4545375D01*
X2928392Y-4524500D01*
X2796608Y-4524500D01*
X2718700Y-4545375D01*
X2669309Y-4558609D01*
X2555190Y-4624496D01*
X2461996Y-4717690D01*
X2396109Y-4831809D01*
X2387944Y-4862283D01*
X2362000Y-4959108D01*
X-605479Y-4959108D01*
X-607057Y-4952316D01*
X-615504Y-4928439D01*
X-613878Y-4922957D01*
X-615172Y-4917389D01*
X-605309Y-4894063D01*
X-598107Y-4869779D01*
X-591871Y-4862283D01*
X-591343Y-4861034D01*
X-590317Y-4860416D01*
X-586545Y-4855881D01*
X-492580Y-4761916D01*
X-413523Y-4624984D01*
X-372600Y-4472257D01*
X-372600Y-4314143D01*
X-413523Y-4161416D01*
X-492580Y-4024484D01*
X-604384Y-3912680D01*
X-741316Y-3833623D01*
X-894043Y-3792700D01*
X-1052157Y-3792700D01*
X-1204884Y-3833623D01*
X-1341816Y-3912680D01*
X-1453620Y-4024484D01*
X-1532677Y-4161416D01*
X-1573600Y-4314143D01*
X-1573600Y-4472257D01*
X-1532677Y-4624984D01*
X-1453620Y-4761916D01*
X-1453617Y-4761918D01*
X-1450375Y-4767535D01*
X-1451953Y-4768446D01*
X-1434396Y-4818029D01*
X-1451774Y-4876695D01*
X-1463353Y-4890617D01*
X-1557320Y-4984584D01*
X-1636377Y-5121516D01*
X-1677300Y-5274243D01*
X-23707338Y-5274243D01*
X-24069097Y-2519645D01*
X-24069938Y-2513243D01*
X-7175600Y-2513243D01*
X-7175600Y-2671357D01*
X-7134677Y-2824084D01*
X-7055620Y-2961016D01*
X-6943816Y-3072820D01*
X-6806884Y-3151877D01*
X-6654157Y-3192800D01*
X-6654155Y-3192800D01*
X-6496045Y-3192800D01*
X-6496043Y-3192800D01*
X-6343316Y-3151877D01*
X-6206384Y-3072820D01*
X-6176107Y-3042543D01*
X-5428500Y-3042543D01*
X-5428500Y-3200657D01*
X-5387577Y-3353384D01*
X-5308520Y-3490316D01*
X-5196716Y-3602120D01*
X-5059784Y-3681177D01*
X-4907057Y-3722100D01*
X-4907055Y-3722100D01*
X-4748945Y-3722100D01*
X-4748943Y-3722100D01*
X-4596216Y-3681177D01*
X-4459284Y-3602120D01*
X-4347480Y-3490316D01*
X-4268423Y-3353384D01*
X-4227500Y-3200657D01*
X-4227500Y-3042543D01*
X-4260083Y-2920943D01*
X12349500Y-2920943D01*
X12349500Y-3079057D01*
X12390423Y-3231784D01*
X12469480Y-3368716D01*
X12581284Y-3480520D01*
X12718216Y-3559577D01*
X12870943Y-3600500D01*
X12870945Y-3600500D01*
X13029055Y-3600500D01*
X13029057Y-3600500D01*
X13181784Y-3559577D01*
X13318716Y-3480520D01*
X13430520Y-3368716D01*
X13509577Y-3231784D01*
X13550500Y-3079057D01*
X13550500Y-2920943D01*
X13509577Y-2768216D01*
X13430520Y-2631284D01*
X13318716Y-2519480D01*
X13181784Y-2440423D01*
X13029057Y-2399500D01*
X12870943Y-2399500D01*
X12718216Y-2440423D01*
X12581284Y-2519480D01*
X12469480Y-2631284D01*
X12390423Y-2768216D01*
X12349500Y-2920943D01*
X-4260083Y-2920943D01*
X-4268423Y-2889816D01*
X-4347480Y-2752884D01*
X-4459284Y-2641080D01*
X-4596216Y-2562023D01*
X-4748943Y-2521100D01*
X-4907057Y-2521100D01*
X-5059784Y-2562023D01*
X-5196716Y-2641080D01*
X-5308520Y-2752884D01*
X-5387577Y-2889816D01*
X-5428500Y-3042543D01*
X-6176107Y-3042543D01*
X-6094580Y-2961016D01*
X-6015523Y-2824084D01*
X-5974600Y-2671357D01*
X-5974600Y-2513243D01*
X-6015523Y-2360516D01*
X-6094580Y-2223584D01*
X-6206384Y-2111780D01*
X-6343316Y-2032723D01*
X-6496043Y-1991800D01*
X-6654157Y-1991800D01*
X-6806884Y-2032723D01*
X-6943816Y-2111780D01*
X-7055620Y-2223584D01*
X-7134677Y-2360516D01*
X-7175600Y-2513243D01*
X-24069938Y-2513243D01*
X-24398307Y-12891D01*
X-24398307Y12890D01*
X-24386042Y106287D01*
X-23350500Y106287D01*
X-23350500Y-106287D01*
X-23317246Y-316243D01*
X-23251557Y-518412D01*
X-23155051Y-707816D01*
X-23030104Y-879792D01*
X-22879792Y-1030104D01*
X-22707816Y-1155051D01*
X-22518412Y-1251557D01*
X-22316243Y-1317246D01*
X-22316239Y-1317246D01*
X-22316238Y-1317247D01*
X-22106290Y-1350500D01*
X-22106287Y-1350500D01*
X-21893710Y-1350500D01*
X-21683761Y-1317247D01*
X-21683758Y-1317246D01*
X-21683757Y-1317246D01*
X-21481588Y-1251557D01*
X-21292184Y-1155051D01*
X-21292180Y-1155049D01*
X-21120213Y-1030108D01*
X-21120211Y-1030106D01*
X-21120208Y-1030104D01*
X-21069447Y-979343D01*
X-7729600Y-979343D01*
X-7729600Y-1137457D01*
X-7688677Y-1290184D01*
X-7609620Y-1427116D01*
X-7497816Y-1538920D01*
X-7360884Y-1617977D01*
X-7208157Y-1658900D01*
X-7208155Y-1658900D01*
X-7050045Y-1658900D01*
X-7050043Y-1658900D01*
X-6897316Y-1617977D01*
X-6760384Y-1538920D01*
X-6648580Y-1427116D01*
X-6569523Y-1290184D01*
X-6528600Y-1137457D01*
X-6528600Y-979343D01*
X-6569523Y-826616D01*
X-6648580Y-689684D01*
X-6760384Y-577880D01*
X-6897316Y-498823D01*
X-7050043Y-457900D01*
X-7208157Y-457900D01*
X-7360884Y-498823D01*
X-7497816Y-577880D01*
X-7609620Y-689684D01*
X-7688677Y-826616D01*
X-7729600Y-979343D01*
X-21069447Y-979343D01*
X-20969896Y-879792D01*
X-20969893Y-879788D01*
X-20969891Y-879786D01*
X-20844950Y-707819D01*
X-20844948Y-707815D01*
X-20748443Y-518412D01*
X-20682752Y-316238D01*
X-20649500Y-106290D01*
X-20649500Y106290D01*
X20649500Y106290D01*
X20649500Y-106290D01*
X20682752Y-316238D01*
X20748443Y-518412D01*
X20844948Y-707815D01*
X20844950Y-707819D01*
X20969891Y-879786D01*
X20969893Y-879788D01*
X20969896Y-879792D01*
X21120208Y-1030104D01*
X21120211Y-1030106D01*
X21120213Y-1030108D01*
X21292180Y-1155049D01*
X21292184Y-1155051D01*
X21481588Y-1251557D01*
X21683757Y-1317246D01*
X21683758Y-1317246D01*
X21683761Y-1317247D01*
X21893710Y-1350500D01*
X21893713Y-1350500D01*
X22106290Y-1350500D01*
X22316238Y-1317247D01*
X22316239Y-1317246D01*
X22316243Y-1317246D01*
X22518412Y-1251557D01*
X22707816Y-1155051D01*
X22879792Y-1030104D01*
X23030104Y-879792D01*
X23155051Y-707816D01*
X23251557Y-518412D01*
X23317246Y-316243D01*
X23350500Y-106287D01*
X23350500Y106287D01*
X23347842Y123067D01*
X23317247Y316238D01*
X23317246Y316239D01*
X23317246Y316243D01*
X23251557Y518412D01*
X23155051Y707816D01*
X23030104Y879792D01*
X22879792Y1030104D01*
X22707816Y1155051D01*
X22518412Y1251557D01*
X22316243Y1317246D01*
X22316239Y1317246D01*
X22316238Y1317247D01*
X22106290Y1350500D01*
X22106287Y1350500D01*
X21893713Y1350500D01*
X21893710Y1350500D01*
X21683761Y1317247D01*
X21683758Y1317246D01*
X21683757Y1317246D01*
X21481588Y1251557D01*
X21292184Y1155051D01*
X21292180Y1155049D01*
X21120213Y1030108D01*
X21120211Y1030106D01*
X21120208Y1030104D01*
X20969896Y879792D01*
X20969893Y879788D01*
X20969891Y879786D01*
X20844950Y707819D01*
X20844948Y707815D01*
X20748443Y518412D01*
X20682752Y316238D01*
X20649500Y106290D01*
X-20649500Y106290D01*
X-20682752Y316238D01*
X-20748443Y518412D01*
X-20844948Y707815D01*
X-20844950Y707819D01*
X-20969891Y879786D01*
X-20969893Y879788D01*
X-20969896Y879792D01*
X-21120208Y1030104D01*
X-21120211Y1030106D01*
X-21120213Y1030108D01*
X-21292180Y1155049D01*
X-21292184Y1155051D01*
X-21481588Y1251557D01*
X-21683757Y1317246D01*
X-21683758Y1317246D01*
X-21683761Y1317247D01*
X-21893710Y1350500D01*
X-21893713Y1350500D01*
X-22106287Y1350500D01*
X-22106290Y1350500D01*
X-22316238Y1317247D01*
X-22316239Y1317246D01*
X-22316243Y1317246D01*
X-22518412Y1251557D01*
X-22707816Y1155051D01*
X-22879792Y1030104D01*
X-23030104Y879792D01*
X-23155051Y707816D01*
X-23251557Y518412D01*
X-23317246Y316243D01*
X-23317246Y316239D01*
X-23317247Y316238D01*
X-23347842Y123067D01*
X-23350500Y106287D01*
X-24386042Y106287D01*
X-24383838Y123067D01*
X-24383838Y123068D01*
X-24331917Y518412D01*
X-24091442Y2349501D01*
X-23822825Y4394865D01*
X-19750500Y4394865D01*
X-19750499Y2605136D01*
X-19747585Y2580009D01*
X-19702206Y2477235D01*
X-19622765Y2397794D01*
X-19519991Y2352415D01*
X-19519990Y2352414D01*
X-19519988Y2352414D01*
X-19494868Y2349500D01*
X-19494865Y2349500D01*
X-17705139Y2349500D01*
X-17705136Y2349501D01*
X-17680009Y2352414D01*
X-17577235Y2397794D01*
X-17497794Y2477235D01*
X-17452414Y2580011D01*
X-17449500Y2605130D01*
X-17449500Y4394860D01*
X-17449501Y4394863D01*
X-17452414Y4419990D01*
X-17497794Y4522764D01*
X-17497794Y4522765D01*
X-17577235Y4602206D01*
X-17680009Y4647585D01*
X-17705135Y4650500D01*
X-19494864Y4650499D01*
X-19519991Y4647585D01*
X-19622765Y4602206D01*
X-19702206Y4522765D01*
X-19747585Y4419991D01*
X-19750500Y4394865D01*
X-23822825Y4394865D01*
X-23820757Y4410615D01*
X-23594879Y6130549D01*
X-19750500Y6130549D01*
X-19750500Y5949450D01*
X-19731614Y5830212D01*
X-19722171Y5770591D01*
X-19666211Y5598361D01*
X-19583996Y5437006D01*
X-19477553Y5290499D01*
X-19349501Y5162447D01*
X-19202994Y5056004D01*
X-19202991Y5056002D01*
X-19041637Y4973788D01*
X-18869406Y4917828D01*
X-18690549Y4889500D01*
X-18690546Y4889500D01*
X-18509451Y4889500D01*
X-18330593Y4917828D01*
X-18158362Y4973788D01*
X-17997008Y5056002D01*
X-17923752Y5109225D01*
X-17850499Y5162447D01*
X-17722447Y5290499D01*
X-17669225Y5363752D01*
X-17616002Y5437008D01*
X-17533788Y5598362D01*
X-17477828Y5770593D01*
X-17449500Y5949450D01*
X-17449500Y6130549D01*
X-17477828Y6309406D01*
X-17533788Y6481637D01*
X-17616002Y6642991D01*
X-17616004Y6642994D01*
X-17722447Y6789501D01*
X-17850499Y6917553D01*
X-17997006Y7023996D01*
X-18158361Y7106211D01*
X-18330591Y7162171D01*
X-18402136Y7173502D01*
X-18509451Y7190500D01*
X-18509454Y7190500D01*
X-18690546Y7190500D01*
X-18690549Y7190500D01*
X-18779977Y7176335D01*
X-18869409Y7162171D01*
X-19041639Y7106211D01*
X-19202994Y7023996D01*
X-19349501Y6917553D01*
X-19477553Y6789501D01*
X-19583996Y6642994D01*
X-19666211Y6481639D01*
X-19722171Y6309409D01*
X-19722171Y6309406D01*
X-19750500Y6130549D01*
X-23594879Y6130549D01*
X-23592676Y6147327D01*
X-23571703Y6307028D01*
X-23564986Y6332081D01*
X-23195095Y7223457D01*
X-14697200Y7223457D01*
X-14697200Y7065343D01*
X-14656277Y6912616D01*
X-14577220Y6775684D01*
X-14465416Y6663880D01*
X-14328484Y6584823D01*
X-14175757Y6543900D01*
X-14175755Y6543900D01*
X-14017645Y6543900D01*
X-14017643Y6543900D01*
X-13864916Y6584823D01*
X-13727984Y6663880D01*
X-13616180Y6775684D01*
X-13537123Y6912616D01*
X-13496200Y7065343D01*
X-13496200Y7223457D01*
X-13537123Y7376184D01*
X-13616180Y7513116D01*
X-13727984Y7624920D01*
X-13864916Y7703977D01*
X-14017643Y7744900D01*
X-14175757Y7744900D01*
X-14328484Y7703977D01*
X-14465416Y7624920D01*
X-14577220Y7513116D01*
X-14656277Y7376184D01*
X-14697200Y7223457D01*
X-23195095Y7223457D01*
X-22594601Y8670549D01*
X-19750500Y8670549D01*
X-19750500Y8489450D01*
X-19731614Y8370212D01*
X-19722171Y8310591D01*
X-19666211Y8138361D01*
X-19583996Y7977006D01*
X-19477553Y7830499D01*
X-19349501Y7702447D01*
X-19242792Y7624919D01*
X-19202991Y7596002D01*
X-19041637Y7513788D01*
X-18869406Y7457828D01*
X-18690549Y7429500D01*
X-18690546Y7429500D01*
X-18509451Y7429500D01*
X-18330593Y7457828D01*
X-18158362Y7513788D01*
X-17997008Y7596002D01*
X-17923752Y7649225D01*
X-17850499Y7702447D01*
X-17722447Y7830499D01*
X-17669225Y7903752D01*
X-17616002Y7977008D01*
X-17533788Y8138362D01*
X-17477828Y8310593D01*
X-17449500Y8489450D01*
X-17449500Y8670549D01*
X-17477828Y8849406D01*
X-17533788Y9021637D01*
X-17616002Y9182991D01*
X-17616004Y9182994D01*
X-17722447Y9329501D01*
X-17850499Y9457553D01*
X-17997006Y9563996D01*
X-18158361Y9646211D01*
X-18330591Y9702171D01*
X-18402136Y9713502D01*
X-18509451Y9730500D01*
X-18509454Y9730500D01*
X-18690546Y9730500D01*
X-18690549Y9730500D01*
X-18779977Y9716335D01*
X-18869409Y9702171D01*
X-19041639Y9646211D01*
X-19202994Y9563996D01*
X-19349501Y9457553D01*
X-19477553Y9329501D01*
X-19583996Y9182994D01*
X-19666211Y9021639D01*
X-19722171Y8849409D01*
X-19722171Y8849406D01*
X-19750500Y8670549D01*
X-22594601Y8670549D01*
X-22577243Y8712380D01*
X-21523229Y11252380D01*
X-21134994Y12187964D01*
X-21122058Y12210336D01*
X-20114177Y13522138D01*
X-20063731Y13556763D01*
X-20002568Y13555123D01*
X-19954050Y13517845D01*
X-19937892Y13477309D01*
X-19916759Y13343878D01*
X-19851095Y13141784D01*
X-19754623Y12952446D01*
X-19754619Y12952440D01*
X-19715270Y12898282D01*
X-19715269Y12898282D01*
X-19082962Y13530590D01*
X-19065925Y13467007D01*
X-19000099Y13352993D01*
X-18907007Y13259901D01*
X-18792993Y13194075D01*
X-18729407Y13177037D01*
X-19361716Y12544729D01*
X-19361716Y12544728D01*
X-19307559Y12505380D01*
X-19307553Y12505376D01*
X-19118215Y12408904D01*
X-19027015Y12379272D01*
X-18977515Y12343308D01*
X-18958608Y12285117D01*
X-18977515Y12226926D01*
X-19027013Y12190962D01*
X-19027017Y12190962D01*
X-19027018Y12190962D01*
X-19036244Y12187964D01*
X-19041639Y12186211D01*
X-19202994Y12103996D01*
X-19349501Y11997553D01*
X-19477553Y11869501D01*
X-19583996Y11722994D01*
X-19666211Y11561639D01*
X-19722171Y11389409D01*
X-19736335Y11299977D01*
X-19750500Y11210549D01*
X-19750500Y11029450D01*
X-19733314Y10920944D01*
X-19722171Y10850591D01*
X-19666211Y10678361D01*
X-19583996Y10517006D01*
X-19477553Y10370499D01*
X-19349501Y10242447D01*
X-19202994Y10136004D01*
X-19202991Y10136002D01*
X-19041637Y10053788D01*
X-18869406Y9997828D01*
X-18690549Y9969500D01*
X-18690546Y9969500D01*
X-18509451Y9969500D01*
X-18330593Y9997828D01*
X-18158362Y10053788D01*
X-17997008Y10136002D01*
X-17923752Y10189225D01*
X-17850499Y10242447D01*
X-17722447Y10370499D01*
X-17669225Y10443752D01*
X-17616002Y10517008D01*
X-17533788Y10678362D01*
X-17477828Y10850593D01*
X-17449500Y11029450D01*
X-17449500Y11079057D01*
X-13400500Y11079057D01*
X-13400500Y10920943D01*
X-13359577Y10768216D01*
X-13280520Y10631284D01*
X-13168716Y10519480D01*
X-13031784Y10440423D01*
X-12879057Y10399500D01*
X-12879055Y10399500D01*
X-12720945Y10399500D01*
X-12720943Y10399500D01*
X-12568216Y10440423D01*
X-12431284Y10519480D01*
X-12319480Y10631284D01*
X-12240423Y10768216D01*
X-12199500Y10920943D01*
X-12199500Y11079057D01*
X12199500Y11079057D01*
X12199500Y10920943D01*
X12240423Y10768216D01*
X12319480Y10631284D01*
X12431284Y10519480D01*
X12568216Y10440423D01*
X12720943Y10399500D01*
X12720945Y10399500D01*
X12879055Y10399500D01*
X12879057Y10399500D01*
X13031784Y10440423D01*
X13168716Y10519480D01*
X13280520Y10631284D01*
X13359577Y10768216D01*
X13400500Y10920943D01*
X13400500Y11079057D01*
X13359577Y11231784D01*
X13280520Y11368716D01*
X13168716Y11480520D01*
X13031784Y11559577D01*
X12879057Y11600500D01*
X12720943Y11600500D01*
X12568216Y11559577D01*
X12431284Y11480520D01*
X12319480Y11368716D01*
X12240423Y11231784D01*
X12199500Y11079057D01*
X-12199500Y11079057D01*
X-12240423Y11231784D01*
X-12319480Y11368716D01*
X-12431284Y11480520D01*
X-12568216Y11559577D01*
X-12720943Y11600500D01*
X-12879057Y11600500D01*
X-13031784Y11559577D01*
X-13168716Y11480520D01*
X-13280520Y11368716D01*
X-13359577Y11231784D01*
X-13400500Y11079057D01*
X-17449500Y11079057D01*
X-17449500Y11210549D01*
X-17477828Y11389406D01*
X-17533788Y11561637D01*
X-17616002Y11722991D01*
X-17616004Y11722994D01*
X-17722447Y11869501D01*
X-17850499Y11997553D01*
X-17997006Y12103996D01*
X-18158361Y12186211D01*
X-18172983Y12190962D01*
X-18222483Y12226926D01*
X-18241391Y12285116D01*
X-18222484Y12343307D01*
X-18172985Y12379271D01*
X-18172984Y12379272D01*
X-18081784Y12408904D01*
X-17892446Y12505376D01*
X-17892442Y12505378D01*
X-17838282Y12544728D01*
X-18470591Y13177037D01*
X-18407007Y13194075D01*
X-18292993Y13259901D01*
X-18199901Y13352993D01*
X-18134075Y13467007D01*
X-18117037Y13530591D01*
X-17484728Y12898282D01*
X-17445378Y12952442D01*
X-17445376Y12952446D01*
X-17348904Y13141784D01*
X-17283240Y13343878D01*
X-17250000Y13553749D01*
X-17250000Y13766250D01*
X-17283240Y13976121D01*
X-17348904Y14178215D01*
X-17445376Y14367553D01*
X-17445380Y14367559D01*
X-17484728Y14421716D01*
X-17484729Y14421716D01*
X-18117037Y13789407D01*
X-18134075Y13852993D01*
X-18199901Y13967007D01*
X-18292993Y14060099D01*
X-18407007Y14125925D01*
X-18470589Y14142962D01*
X-17838282Y14775269D01*
X-17838282Y14775270D01*
X-17892440Y14814619D01*
X-17892446Y14814623D01*
X-18081784Y14911095D01*
X-18283878Y14976759D01*
X-18493750Y15010000D01*
X-18706249Y15010000D01*
X-18762401Y15001106D01*
X-18822833Y15010677D01*
X-18866098Y15053941D01*
X-18875670Y15114373D01*
X-18856393Y15159203D01*
X-17257902Y17239714D01*
X-17239714Y17257902D01*
X-12210336Y21122058D01*
X-12187964Y21134994D01*
X-6332081Y23564986D01*
X-6307028Y23571703D01*
X-12891Y24398307D01*
X12891Y24398307D01*
X6307028Y23571703D01*
G37*
%TD.AperFunction*%
%TD*%
M02*
