%TF.GenerationSoftware,KiCad,Pcbnew,10.0.4*%
%TF.CreationDate,2026-07-26T09:12:55+02:00*%
%TF.ProjectId,Homematic-6Button-Flush,486f6d65-6d61-4746-9963-2d3642757474,rev?*%
%TF.SameCoordinates,Original*%
%TF.FileFunction,Soldermask,Bot*%
%TF.FilePolarity,Negative*%
%FSLAX46Y46*%
G04 Gerber Fmt 4.6, Leading zero omitted, Abs format (unit mm)*
G04 Created by KiCad (PCBNEW 10.0.4) date 2026-07-26 09:12:55*
%MOMM*%
%LPD*%
G01*
G04 APERTURE LIST*
G04 Aperture macros list*
%AMRoundRect*
0 Rectangle with rounded corners*
0 $1 Rounding radius*
0 $2 $3 $4 $5 $6 $7 $8 $9 X,Y pos of 4 corners*
0 Add a 4 corners polygon primitive as box body*
4,1,4,$2,$3,$4,$5,$6,$7,$8,$9,$2,$3,0*
0 Add four circle primitives for the rounded corners*
1,1,$1+$1,$2,$3*
1,1,$1+$1,$4,$5*
1,1,$1+$1,$6,$7*
1,1,$1+$1,$8,$9*
0 Add four rect primitives between the rounded corners*
20,1,$1+$1,$2,$3,$4,$5,0*
20,1,$1+$1,$4,$5,$6,$7,0*
20,1,$1+$1,$6,$7,$8,$9,0*
20,1,$1+$1,$8,$9,$2,$3,0*%
G04 Aperture macros list end*
%ADD10C,3.200000*%
%ADD11RoundRect,0.225000X0.250000X-0.225000X0.250000X0.225000X-0.250000X0.225000X-0.250000X-0.225000X0*%
%ADD12R,5.100000X5.100000*%
%ADD13C,17.800000*%
%ADD14R,1.700000X1.700000*%
%ADD15C,1.700000*%
%ADD16RoundRect,0.100000X0.637500X0.100000X-0.637500X0.100000X-0.637500X-0.100000X0.637500X-0.100000X0*%
%ADD17RoundRect,0.200000X0.200000X0.275000X-0.200000X0.275000X-0.200000X-0.275000X0.200000X-0.275000X0*%
%ADD18RoundRect,0.250000X0.250000X0.475000X-0.250000X0.475000X-0.250000X-0.475000X0.250000X-0.475000X0*%
%ADD19C,2.000000*%
G04 APERTURE END LIST*
D10*
%TO.C,MH1*%
X-22000000Y0D03*
%TD*%
%TO.C,MH2*%
X22000000Y0D03*
%TD*%
D11*
%TO.C,C1*%
X6000000Y-6775000D03*
X6000000Y-5225000D03*
%TD*%
D12*
%TO.C,BT1*%
X-12800000Y11000000D03*
X12800000Y11000000D03*
D13*
X0Y11000000D03*
%TD*%
D14*
%TO.C,J_SWD*%
X-18600000Y3500000D03*
D15*
X-18600000Y6040000D03*
X-18600000Y8580000D03*
X-18600000Y11120000D03*
X-18600000Y13660000D03*
%TD*%
D16*
%TO.C,U1*%
X2862500Y-3075000D03*
X2862500Y-3725000D03*
X2862500Y-4375000D03*
X2862500Y-5025000D03*
X2862500Y-5675000D03*
X2862500Y-6325000D03*
X2862500Y-6975000D03*
X2862500Y-7625000D03*
X2862500Y-8275000D03*
X2862500Y-8925000D03*
X-2862500Y-8925000D03*
X-2862500Y-8275000D03*
X-2862500Y-7625000D03*
X-2862500Y-6975000D03*
X-2862500Y-6325000D03*
X-2862500Y-5675000D03*
X-2862500Y-5025000D03*
X-2862500Y-4375000D03*
X-2862500Y-3725000D03*
X-2862500Y-3075000D03*
%TD*%
D17*
%TO.C,R_LED*%
X9825000Y-11000000D03*
X8175000Y-11000000D03*
%TD*%
D14*
%TO.C,J_RF*%
X9000000Y-15200000D03*
D15*
X6460000Y-15200000D03*
X3920000Y-15200000D03*
X1380000Y-15200000D03*
X-1160000Y-15200000D03*
X-3700000Y-15200000D03*
X-6240000Y-15200000D03*
X-8780000Y-15200000D03*
%TD*%
D18*
%TO.C,C3*%
X12950000Y-3000000D03*
X11050000Y-3000000D03*
%TD*%
D11*
%TO.C,C2*%
X-6000000Y-6775000D03*
X-6000000Y-5225000D03*
%TD*%
D19*
%TO.C,ANT*%
X0Y-21000000D03*
%TD*%
M02*
