%TF.GenerationSoftware,KiCad,Pcbnew,10.0.4*%
%TF.CreationDate,2026-07-26T09:12:55+02:00*%
%TF.ProjectId,Homematic-6Button-Flush,486f6d65-6d61-4746-9963-2d3642757474,rev?*%
%TF.SameCoordinates,Original*%
%TF.FileFunction,Other,User*%
%FSLAX46Y46*%
G04 Gerber Fmt 4.6, Leading zero omitted, Abs format (unit mm)*
G04 Created by KiCad (PCBNEW 10.0.4) date 2026-07-26 09:12:55*
%MOMM*%
%LPD*%
G01*
G04 APERTURE LIST*
%ADD10C,0.050000*%
G04 APERTURE END LIST*
%TO.C,C1*%
D10*
X5270000Y-4520000D02*
X6730000Y-4520000D01*
X6730000Y-7480000D01*
X5270000Y-7480000D01*
X5270000Y-4520000D01*
%TO.C,BT1*%
X-15850000Y14050000D02*
X-15850000Y7950000D01*
X-15850000Y7950000D02*
X-11050000Y7950000D01*
X-11050000Y17350000D02*
X-11050000Y14050000D01*
X-11050000Y14050000D02*
X-15850000Y14050000D01*
X-11050000Y7950000D02*
X-11050000Y1200000D01*
X-11050000Y1200000D02*
X-3900000Y1200000D01*
X-4300000Y22100000D02*
X-11050000Y17350000D01*
X4300000Y22100000D02*
X-4300000Y22100000D01*
X11050000Y17350000D02*
X4300000Y22100000D01*
X11050000Y14050000D02*
X11050000Y17350000D01*
X11050000Y7950000D02*
X15850000Y7950000D01*
X11050000Y1200000D02*
X3900000Y1200000D01*
X11050000Y1200000D02*
X11050000Y7950000D01*
X15850000Y14050000D02*
X11050000Y14050000D01*
X15850000Y7950000D02*
X15850000Y14050000D01*
X3900000Y1200000D02*
G75*
G02*
X-3900000Y1200000I-3900000J9799994D01*
G01*
%TO.C,J_SWD*%
X-20370000Y15430000D02*
X-16830000Y15430000D01*
X-16830000Y1730000D01*
X-20370000Y1730000D01*
X-20370000Y15430000D01*
%TO.C,U1*%
X-3850000Y-2620000D02*
X-3850000Y-9380000D01*
X-3850000Y-9380000D02*
X-2450000Y-9380000D01*
X-2450000Y-2500000D02*
X-2450000Y-2620000D01*
X-2450000Y-2620000D02*
X-3850000Y-2620000D01*
X-2450000Y-9380000D02*
X-2450000Y-9500000D01*
X-2450000Y-9500000D02*
X2450000Y-9500000D01*
X2450000Y-2500000D02*
X-2450000Y-2500000D01*
X2450000Y-2620000D02*
X2450000Y-2500000D01*
X2450000Y-9380000D02*
X3850000Y-9380000D01*
X2450000Y-9500000D02*
X2450000Y-9380000D01*
X3850000Y-2620000D02*
X2450000Y-2620000D01*
X3850000Y-9380000D02*
X3850000Y-2620000D01*
%TO.C,R_LED*%
X7520000Y-10270000D02*
X10480000Y-10270000D01*
X10480000Y-11730000D01*
X7520000Y-11730000D01*
X7520000Y-10270000D01*
%TO.C,J_RF*%
X-10550000Y-13430000D02*
X10770000Y-13430000D01*
X10770000Y-16970000D01*
X-10550000Y-16970000D01*
X-10550000Y-13430000D01*
%TO.C,C3*%
X10300000Y-2020000D02*
X13700000Y-2020000D01*
X13700000Y-3980000D01*
X10300000Y-3980000D01*
X10300000Y-2020000D01*
%TO.C,C2*%
X-6730000Y-4520000D02*
X-5270000Y-4520000D01*
X-5270000Y-7480000D01*
X-6730000Y-7480000D01*
X-6730000Y-4520000D01*
%TO.C,ANT*%
X1500000Y-21000000D02*
G75*
G02*
X-1500000Y-21000000I-1500000J0D01*
G01*
X-1500000Y-21000000D02*
G75*
G02*
X1500000Y-21000000I1500000J0D01*
G01*
%TD*%
M02*
