%TF.GenerationSoftware,KiCad,Pcbnew,10.0.4*%
%TF.CreationDate,2026-07-26T09:12:55+02:00*%
%TF.ProjectId,Homematic-6Button-Flush,486f6d65-6d61-4746-9963-2d3642757474,rev?*%
%TF.SameCoordinates,Original*%
%TF.FileFunction,AssemblyDrawing,Top*%
%FSLAX46Y46*%
G04 Gerber Fmt 4.6, Leading zero omitted, Abs format (unit mm)*
G04 Created by KiCad (PCBNEW 10.0.4) date 2026-07-26 09:12:55*
%MOMM*%
%LPD*%
G01*
G04 APERTURE LIST*
%ADD10C,0.150000*%
%ADD11C,0.080000*%
%ADD12C,0.158750*%
%ADD13C,0.100000*%
G04 APERTURE END LIST*
D10*
X-642857Y-11104819D02*
X-1119047Y-11104819D01*
X-1119047Y-11104819D02*
X-1119047Y-10104819D01*
X-309523Y-10581009D02*
X23809Y-10581009D01*
X166666Y-11104819D02*
X-309523Y-11104819D01*
X-309523Y-11104819D02*
X-309523Y-10104819D01*
X-309523Y-10104819D02*
X166666Y-10104819D01*
X595238Y-11104819D02*
X595238Y-10104819D01*
X595238Y-10104819D02*
X833333Y-10104819D01*
X833333Y-10104819D02*
X976190Y-10152438D01*
X976190Y-10152438D02*
X1071428Y-10247676D01*
X1071428Y-10247676D02*
X1119047Y-10342914D01*
X1119047Y-10342914D02*
X1166666Y-10533390D01*
X1166666Y-10533390D02*
X1166666Y-10676247D01*
X1166666Y-10676247D02*
X1119047Y-10866723D01*
X1119047Y-10866723D02*
X1071428Y-10961961D01*
X1071428Y-10961961D02*
X976190Y-11057200D01*
X976190Y-11057200D02*
X833333Y-11104819D01*
X833333Y-11104819D02*
X595238Y-11104819D01*
D11*
X-559523Y-9227149D02*
X-797618Y-9227149D01*
X-797618Y-9227149D02*
X-797618Y-8727149D01*
X-392856Y-8965244D02*
X-226189Y-8965244D01*
X-154761Y-9227149D02*
X-392856Y-9227149D01*
X-392856Y-9227149D02*
X-392856Y-8727149D01*
X-392856Y-8727149D02*
X-154761Y-8727149D01*
X59524Y-9227149D02*
X59524Y-8727149D01*
X59524Y-8727149D02*
X178572Y-8727149D01*
X178572Y-8727149D02*
X250000Y-8750959D01*
X250000Y-8750959D02*
X297619Y-8798578D01*
X297619Y-8798578D02*
X321429Y-8846197D01*
X321429Y-8846197D02*
X345238Y-8941435D01*
X345238Y-8941435D02*
X345238Y-9012863D01*
X345238Y-9012863D02*
X321429Y-9108101D01*
X321429Y-9108101D02*
X297619Y-9155720D01*
X297619Y-9155720D02*
X250000Y-9203340D01*
X250000Y-9203340D02*
X178572Y-9227149D01*
X178572Y-9227149D02*
X59524Y-9227149D01*
X821429Y-9227149D02*
X535715Y-9227149D01*
X678572Y-9227149D02*
X678572Y-8727149D01*
X678572Y-8727149D02*
X630953Y-8798578D01*
X630953Y-8798578D02*
X583334Y-8846197D01*
X583334Y-8846197D02*
X535715Y-8870006D01*
D10*
X18006400Y-17068318D02*
X18054019Y-16925461D01*
X18054019Y-16925461D02*
X18054019Y-16687366D01*
X18054019Y-16687366D02*
X18006400Y-16592128D01*
X18006400Y-16592128D02*
X17958780Y-16544509D01*
X17958780Y-16544509D02*
X17863542Y-16496890D01*
X17863542Y-16496890D02*
X17768304Y-16496890D01*
X17768304Y-16496890D02*
X17673066Y-16544509D01*
X17673066Y-16544509D02*
X17625447Y-16592128D01*
X17625447Y-16592128D02*
X17577828Y-16687366D01*
X17577828Y-16687366D02*
X17530209Y-16877842D01*
X17530209Y-16877842D02*
X17482590Y-16973080D01*
X17482590Y-16973080D02*
X17434971Y-17020699D01*
X17434971Y-17020699D02*
X17339733Y-17068318D01*
X17339733Y-17068318D02*
X17244495Y-17068318D01*
X17244495Y-17068318D02*
X17149257Y-17020699D01*
X17149257Y-17020699D02*
X17101638Y-16973080D01*
X17101638Y-16973080D02*
X17054019Y-16877842D01*
X17054019Y-16877842D02*
X17054019Y-16639747D01*
X17054019Y-16639747D02*
X17101638Y-16496890D01*
X17054019Y-16163556D02*
X18054019Y-15925461D01*
X18054019Y-15925461D02*
X17339733Y-15734985D01*
X17339733Y-15734985D02*
X18054019Y-15544509D01*
X18054019Y-15544509D02*
X17054019Y-15306414D01*
X18149257Y-15163557D02*
X18149257Y-14401652D01*
X18054019Y-14163556D02*
X17054019Y-14163556D01*
X17054019Y-14163556D02*
X17054019Y-13782604D01*
X17054019Y-13782604D02*
X17101638Y-13687366D01*
X17101638Y-13687366D02*
X17149257Y-13639747D01*
X17149257Y-13639747D02*
X17244495Y-13592128D01*
X17244495Y-13592128D02*
X17387352Y-13592128D01*
X17387352Y-13592128D02*
X17482590Y-13639747D01*
X17482590Y-13639747D02*
X17530209Y-13687366D01*
X17530209Y-13687366D02*
X17577828Y-13782604D01*
X17577828Y-13782604D02*
X17577828Y-14163556D01*
X17387352Y-12734985D02*
X18054019Y-12734985D01*
X17387352Y-13163556D02*
X17911161Y-13163556D01*
X17911161Y-13163556D02*
X18006400Y-13115937D01*
X18006400Y-13115937D02*
X18054019Y-13020699D01*
X18054019Y-13020699D02*
X18054019Y-12877842D01*
X18054019Y-12877842D02*
X18006400Y-12782604D01*
X18006400Y-12782604D02*
X17958780Y-12734985D01*
X18006400Y-12306413D02*
X18054019Y-12211175D01*
X18054019Y-12211175D02*
X18054019Y-12020699D01*
X18054019Y-12020699D02*
X18006400Y-11925461D01*
X18006400Y-11925461D02*
X17911161Y-11877842D01*
X17911161Y-11877842D02*
X17863542Y-11877842D01*
X17863542Y-11877842D02*
X17768304Y-11925461D01*
X17768304Y-11925461D02*
X17720685Y-12020699D01*
X17720685Y-12020699D02*
X17720685Y-12163556D01*
X17720685Y-12163556D02*
X17673066Y-12258794D01*
X17673066Y-12258794D02*
X17577828Y-12306413D01*
X17577828Y-12306413D02*
X17530209Y-12306413D01*
X17530209Y-12306413D02*
X17434971Y-12258794D01*
X17434971Y-12258794D02*
X17387352Y-12163556D01*
X17387352Y-12163556D02*
X17387352Y-12020699D01*
X17387352Y-12020699D02*
X17434971Y-11925461D01*
X18054019Y-11449270D02*
X17054019Y-11449270D01*
X18054019Y-11020699D02*
X17530209Y-11020699D01*
X17530209Y-11020699D02*
X17434971Y-11068318D01*
X17434971Y-11068318D02*
X17387352Y-11163556D01*
X17387352Y-11163556D02*
X17387352Y-11306413D01*
X17387352Y-11306413D02*
X17434971Y-11401651D01*
X17434971Y-11401651D02*
X17482590Y-11449270D01*
X13006400Y-15354032D02*
X13054019Y-15211175D01*
X13054019Y-15211175D02*
X13054019Y-14973080D01*
X13054019Y-14973080D02*
X13006400Y-14877842D01*
X13006400Y-14877842D02*
X12958780Y-14830223D01*
X12958780Y-14830223D02*
X12863542Y-14782604D01*
X12863542Y-14782604D02*
X12768304Y-14782604D01*
X12768304Y-14782604D02*
X12673066Y-14830223D01*
X12673066Y-14830223D02*
X12625447Y-14877842D01*
X12625447Y-14877842D02*
X12577828Y-14973080D01*
X12577828Y-14973080D02*
X12530209Y-15163556D01*
X12530209Y-15163556D02*
X12482590Y-15258794D01*
X12482590Y-15258794D02*
X12434971Y-15306413D01*
X12434971Y-15306413D02*
X12339733Y-15354032D01*
X12339733Y-15354032D02*
X12244495Y-15354032D01*
X12244495Y-15354032D02*
X12149257Y-15306413D01*
X12149257Y-15306413D02*
X12101638Y-15258794D01*
X12101638Y-15258794D02*
X12054019Y-15163556D01*
X12054019Y-15163556D02*
X12054019Y-14925461D01*
X12054019Y-14925461D02*
X12101638Y-14782604D01*
X12054019Y-14449270D02*
X13054019Y-14211175D01*
X13054019Y-14211175D02*
X12339733Y-14020699D01*
X12339733Y-14020699D02*
X13054019Y-13830223D01*
X13054019Y-13830223D02*
X12054019Y-13592128D01*
X12387352Y-12782604D02*
X13054019Y-12782604D01*
X12006400Y-13020699D02*
X12720685Y-13258794D01*
X12720685Y-13258794D02*
X12720685Y-12639747D01*
X-12192000Y-17068318D02*
X-12144380Y-16925461D01*
X-12144380Y-16925461D02*
X-12144380Y-16687366D01*
X-12144380Y-16687366D02*
X-12192000Y-16592128D01*
X-12192000Y-16592128D02*
X-12239619Y-16544509D01*
X-12239619Y-16544509D02*
X-12334857Y-16496890D01*
X-12334857Y-16496890D02*
X-12430095Y-16496890D01*
X-12430095Y-16496890D02*
X-12525333Y-16544509D01*
X-12525333Y-16544509D02*
X-12572952Y-16592128D01*
X-12572952Y-16592128D02*
X-12620571Y-16687366D01*
X-12620571Y-16687366D02*
X-12668190Y-16877842D01*
X-12668190Y-16877842D02*
X-12715809Y-16973080D01*
X-12715809Y-16973080D02*
X-12763428Y-17020699D01*
X-12763428Y-17020699D02*
X-12858666Y-17068318D01*
X-12858666Y-17068318D02*
X-12953904Y-17068318D01*
X-12953904Y-17068318D02*
X-13049142Y-17020699D01*
X-13049142Y-17020699D02*
X-13096761Y-16973080D01*
X-13096761Y-16973080D02*
X-13144380Y-16877842D01*
X-13144380Y-16877842D02*
X-13144380Y-16639747D01*
X-13144380Y-16639747D02*
X-13096761Y-16496890D01*
X-13144380Y-16163556D02*
X-12144380Y-15925461D01*
X-12144380Y-15925461D02*
X-12858666Y-15734985D01*
X-12858666Y-15734985D02*
X-12144380Y-15544509D01*
X-12144380Y-15544509D02*
X-13144380Y-15306414D01*
X-12049142Y-15163557D02*
X-12049142Y-14401652D01*
X-12144380Y-14163556D02*
X-13144380Y-14163556D01*
X-13144380Y-14163556D02*
X-13144380Y-13782604D01*
X-13144380Y-13782604D02*
X-13096761Y-13687366D01*
X-13096761Y-13687366D02*
X-13049142Y-13639747D01*
X-13049142Y-13639747D02*
X-12953904Y-13592128D01*
X-12953904Y-13592128D02*
X-12811047Y-13592128D01*
X-12811047Y-13592128D02*
X-12715809Y-13639747D01*
X-12715809Y-13639747D02*
X-12668190Y-13687366D01*
X-12668190Y-13687366D02*
X-12620571Y-13782604D01*
X-12620571Y-13782604D02*
X-12620571Y-14163556D01*
X-12811047Y-12734985D02*
X-12144380Y-12734985D01*
X-12811047Y-13163556D02*
X-12287238Y-13163556D01*
X-12287238Y-13163556D02*
X-12192000Y-13115937D01*
X-12192000Y-13115937D02*
X-12144380Y-13020699D01*
X-12144380Y-13020699D02*
X-12144380Y-12877842D01*
X-12144380Y-12877842D02*
X-12192000Y-12782604D01*
X-12192000Y-12782604D02*
X-12239619Y-12734985D01*
X-12192000Y-12306413D02*
X-12144380Y-12211175D01*
X-12144380Y-12211175D02*
X-12144380Y-12020699D01*
X-12144380Y-12020699D02*
X-12192000Y-11925461D01*
X-12192000Y-11925461D02*
X-12287238Y-11877842D01*
X-12287238Y-11877842D02*
X-12334857Y-11877842D01*
X-12334857Y-11877842D02*
X-12430095Y-11925461D01*
X-12430095Y-11925461D02*
X-12477714Y-12020699D01*
X-12477714Y-12020699D02*
X-12477714Y-12163556D01*
X-12477714Y-12163556D02*
X-12525333Y-12258794D01*
X-12525333Y-12258794D02*
X-12620571Y-12306413D01*
X-12620571Y-12306413D02*
X-12668190Y-12306413D01*
X-12668190Y-12306413D02*
X-12763428Y-12258794D01*
X-12763428Y-12258794D02*
X-12811047Y-12163556D01*
X-12811047Y-12163556D02*
X-12811047Y-12020699D01*
X-12811047Y-12020699D02*
X-12763428Y-11925461D01*
X-12144380Y-11449270D02*
X-13144380Y-11449270D01*
X-12144380Y-11020699D02*
X-12668190Y-11020699D01*
X-12668190Y-11020699D02*
X-12763428Y-11068318D01*
X-12763428Y-11068318D02*
X-12811047Y-11163556D01*
X-12811047Y-11163556D02*
X-12811047Y-11306413D01*
X-12811047Y-11306413D02*
X-12763428Y-11401651D01*
X-12763428Y-11401651D02*
X-12715809Y-11449270D01*
X-17192000Y-15354032D02*
X-17144380Y-15211175D01*
X-17144380Y-15211175D02*
X-17144380Y-14973080D01*
X-17144380Y-14973080D02*
X-17192000Y-14877842D01*
X-17192000Y-14877842D02*
X-17239619Y-14830223D01*
X-17239619Y-14830223D02*
X-17334857Y-14782604D01*
X-17334857Y-14782604D02*
X-17430095Y-14782604D01*
X-17430095Y-14782604D02*
X-17525333Y-14830223D01*
X-17525333Y-14830223D02*
X-17572952Y-14877842D01*
X-17572952Y-14877842D02*
X-17620571Y-14973080D01*
X-17620571Y-14973080D02*
X-17668190Y-15163556D01*
X-17668190Y-15163556D02*
X-17715809Y-15258794D01*
X-17715809Y-15258794D02*
X-17763428Y-15306413D01*
X-17763428Y-15306413D02*
X-17858666Y-15354032D01*
X-17858666Y-15354032D02*
X-17953904Y-15354032D01*
X-17953904Y-15354032D02*
X-18049142Y-15306413D01*
X-18049142Y-15306413D02*
X-18096761Y-15258794D01*
X-18096761Y-15258794D02*
X-18144380Y-15163556D01*
X-18144380Y-15163556D02*
X-18144380Y-14925461D01*
X-18144380Y-14925461D02*
X-18096761Y-14782604D01*
X-18144380Y-14449270D02*
X-17144380Y-14211175D01*
X-17144380Y-14211175D02*
X-17858666Y-14020699D01*
X-17858666Y-14020699D02*
X-17144380Y-13830223D01*
X-17144380Y-13830223D02*
X-18144380Y-13592128D01*
X-17144380Y-12687366D02*
X-17144380Y-13258794D01*
X-17144380Y-12973080D02*
X-18144380Y-12973080D01*
X-18144380Y-12973080D02*
X-18001523Y-13068318D01*
X-18001523Y-13068318D02*
X-17906285Y-13163556D01*
X-17906285Y-13163556D02*
X-17858666Y-13258794D01*
X-18547618Y-2907200D02*
X-18404761Y-2954819D01*
X-18404761Y-2954819D02*
X-18166666Y-2954819D01*
X-18166666Y-2954819D02*
X-18071428Y-2907200D01*
X-18071428Y-2907200D02*
X-18023809Y-2859580D01*
X-18023809Y-2859580D02*
X-17976190Y-2764342D01*
X-17976190Y-2764342D02*
X-17976190Y-2669104D01*
X-17976190Y-2669104D02*
X-18023809Y-2573866D01*
X-18023809Y-2573866D02*
X-18071428Y-2526247D01*
X-18071428Y-2526247D02*
X-18166666Y-2478628D01*
X-18166666Y-2478628D02*
X-18357142Y-2431009D01*
X-18357142Y-2431009D02*
X-18452380Y-2383390D01*
X-18452380Y-2383390D02*
X-18499999Y-2335771D01*
X-18499999Y-2335771D02*
X-18547618Y-2240533D01*
X-18547618Y-2240533D02*
X-18547618Y-2145295D01*
X-18547618Y-2145295D02*
X-18499999Y-2050057D01*
X-18499999Y-2050057D02*
X-18452380Y-2002438D01*
X-18452380Y-2002438D02*
X-18357142Y-1954819D01*
X-18357142Y-1954819D02*
X-18119047Y-1954819D01*
X-18119047Y-1954819D02*
X-17976190Y-2002438D01*
X-17642856Y-1954819D02*
X-17404761Y-2954819D01*
X-17404761Y-2954819D02*
X-17214285Y-2240533D01*
X-17214285Y-2240533D02*
X-17023809Y-2954819D01*
X-17023809Y-2954819D02*
X-16785714Y-1954819D01*
X-16642857Y-3050057D02*
X-15880952Y-3050057D01*
X-15642856Y-2954819D02*
X-15642856Y-1954819D01*
X-15642856Y-1954819D02*
X-15261904Y-1954819D01*
X-15261904Y-1954819D02*
X-15166666Y-2002438D01*
X-15166666Y-2002438D02*
X-15119047Y-2050057D01*
X-15119047Y-2050057D02*
X-15071428Y-2145295D01*
X-15071428Y-2145295D02*
X-15071428Y-2288152D01*
X-15071428Y-2288152D02*
X-15119047Y-2383390D01*
X-15119047Y-2383390D02*
X-15166666Y-2431009D01*
X-15166666Y-2431009D02*
X-15261904Y-2478628D01*
X-15261904Y-2478628D02*
X-15642856Y-2478628D01*
X-14214285Y-2288152D02*
X-14214285Y-2954819D01*
X-14642856Y-2288152D02*
X-14642856Y-2811961D01*
X-14642856Y-2811961D02*
X-14595237Y-2907200D01*
X-14595237Y-2907200D02*
X-14499999Y-2954819D01*
X-14499999Y-2954819D02*
X-14357142Y-2954819D01*
X-14357142Y-2954819D02*
X-14261904Y-2907200D01*
X-14261904Y-2907200D02*
X-14214285Y-2859580D01*
X-13785713Y-2907200D02*
X-13690475Y-2954819D01*
X-13690475Y-2954819D02*
X-13499999Y-2954819D01*
X-13499999Y-2954819D02*
X-13404761Y-2907200D01*
X-13404761Y-2907200D02*
X-13357142Y-2811961D01*
X-13357142Y-2811961D02*
X-13357142Y-2764342D01*
X-13357142Y-2764342D02*
X-13404761Y-2669104D01*
X-13404761Y-2669104D02*
X-13499999Y-2621485D01*
X-13499999Y-2621485D02*
X-13642856Y-2621485D01*
X-13642856Y-2621485D02*
X-13738094Y-2573866D01*
X-13738094Y-2573866D02*
X-13785713Y-2478628D01*
X-13785713Y-2478628D02*
X-13785713Y-2431009D01*
X-13785713Y-2431009D02*
X-13738094Y-2335771D01*
X-13738094Y-2335771D02*
X-13642856Y-2288152D01*
X-13642856Y-2288152D02*
X-13499999Y-2288152D01*
X-13499999Y-2288152D02*
X-13404761Y-2335771D01*
X-12928570Y-2954819D02*
X-12928570Y-1954819D01*
X-12499999Y-2954819D02*
X-12499999Y-2431009D01*
X-12499999Y-2431009D02*
X-12547618Y-2335771D01*
X-12547618Y-2335771D02*
X-12642856Y-2288152D01*
X-12642856Y-2288152D02*
X-12785713Y-2288152D01*
X-12785713Y-2288152D02*
X-12880951Y-2335771D01*
X-12880951Y-2335771D02*
X-12928570Y-2383390D01*
X-16833332Y2092800D02*
X-16690475Y2045180D01*
X-16690475Y2045180D02*
X-16452380Y2045180D01*
X-16452380Y2045180D02*
X-16357142Y2092800D01*
X-16357142Y2092800D02*
X-16309523Y2140419D01*
X-16309523Y2140419D02*
X-16261904Y2235657D01*
X-16261904Y2235657D02*
X-16261904Y2330895D01*
X-16261904Y2330895D02*
X-16309523Y2426133D01*
X-16309523Y2426133D02*
X-16357142Y2473752D01*
X-16357142Y2473752D02*
X-16452380Y2521371D01*
X-16452380Y2521371D02*
X-16642856Y2568990D01*
X-16642856Y2568990D02*
X-16738094Y2616609D01*
X-16738094Y2616609D02*
X-16785713Y2664228D01*
X-16785713Y2664228D02*
X-16833332Y2759466D01*
X-16833332Y2759466D02*
X-16833332Y2854704D01*
X-16833332Y2854704D02*
X-16785713Y2949942D01*
X-16785713Y2949942D02*
X-16738094Y2997561D01*
X-16738094Y2997561D02*
X-16642856Y3045180D01*
X-16642856Y3045180D02*
X-16404761Y3045180D01*
X-16404761Y3045180D02*
X-16261904Y2997561D01*
X-15928570Y3045180D02*
X-15690475Y2045180D01*
X-15690475Y2045180D02*
X-15499999Y2759466D01*
X-15499999Y2759466D02*
X-15309523Y2045180D01*
X-15309523Y2045180D02*
X-15071428Y3045180D01*
X-14738094Y2949942D02*
X-14690475Y2997561D01*
X-14690475Y2997561D02*
X-14595237Y3045180D01*
X-14595237Y3045180D02*
X-14357142Y3045180D01*
X-14357142Y3045180D02*
X-14261904Y2997561D01*
X-14261904Y2997561D02*
X-14214285Y2949942D01*
X-14214285Y2949942D02*
X-14166666Y2854704D01*
X-14166666Y2854704D02*
X-14166666Y2759466D01*
X-14166666Y2759466D02*
X-14214285Y2616609D01*
X-14214285Y2616609D02*
X-14785713Y2045180D01*
X-14785713Y2045180D02*
X-14166666Y2045180D01*
X18407200Y-3047618D02*
X18454819Y-2904761D01*
X18454819Y-2904761D02*
X18454819Y-2666666D01*
X18454819Y-2666666D02*
X18407200Y-2571428D01*
X18407200Y-2571428D02*
X18359580Y-2523809D01*
X18359580Y-2523809D02*
X18264342Y-2476190D01*
X18264342Y-2476190D02*
X18169104Y-2476190D01*
X18169104Y-2476190D02*
X18073866Y-2523809D01*
X18073866Y-2523809D02*
X18026247Y-2571428D01*
X18026247Y-2571428D02*
X17978628Y-2666666D01*
X17978628Y-2666666D02*
X17931009Y-2857142D01*
X17931009Y-2857142D02*
X17883390Y-2952380D01*
X17883390Y-2952380D02*
X17835771Y-2999999D01*
X17835771Y-2999999D02*
X17740533Y-3047618D01*
X17740533Y-3047618D02*
X17645295Y-3047618D01*
X17645295Y-3047618D02*
X17550057Y-2999999D01*
X17550057Y-2999999D02*
X17502438Y-2952380D01*
X17502438Y-2952380D02*
X17454819Y-2857142D01*
X17454819Y-2857142D02*
X17454819Y-2619047D01*
X17454819Y-2619047D02*
X17502438Y-2476190D01*
X17454819Y-2142856D02*
X18454819Y-1904761D01*
X18454819Y-1904761D02*
X17740533Y-1714285D01*
X17740533Y-1714285D02*
X18454819Y-1523809D01*
X18454819Y-1523809D02*
X17454819Y-1285714D01*
X18550057Y-1142857D02*
X18550057Y-380952D01*
X18454819Y-142856D02*
X17454819Y-142856D01*
X17454819Y-142856D02*
X17454819Y238095D01*
X17454819Y238095D02*
X17502438Y333333D01*
X17502438Y333333D02*
X17550057Y380952D01*
X17550057Y380952D02*
X17645295Y428571D01*
X17645295Y428571D02*
X17788152Y428571D01*
X17788152Y428571D02*
X17883390Y380952D01*
X17883390Y380952D02*
X17931009Y333333D01*
X17931009Y333333D02*
X17978628Y238095D01*
X17978628Y238095D02*
X17978628Y-142856D01*
X17788152Y1285714D02*
X18454819Y1285714D01*
X17788152Y857143D02*
X18311961Y857143D01*
X18311961Y857143D02*
X18407200Y904762D01*
X18407200Y904762D02*
X18454819Y1000000D01*
X18454819Y1000000D02*
X18454819Y1142857D01*
X18454819Y1142857D02*
X18407200Y1238095D01*
X18407200Y1238095D02*
X18359580Y1285714D01*
X18407200Y1714286D02*
X18454819Y1809524D01*
X18454819Y1809524D02*
X18454819Y2000000D01*
X18454819Y2000000D02*
X18407200Y2095238D01*
X18407200Y2095238D02*
X18311961Y2142857D01*
X18311961Y2142857D02*
X18264342Y2142857D01*
X18264342Y2142857D02*
X18169104Y2095238D01*
X18169104Y2095238D02*
X18121485Y2000000D01*
X18121485Y2000000D02*
X18121485Y1857143D01*
X18121485Y1857143D02*
X18073866Y1761905D01*
X18073866Y1761905D02*
X17978628Y1714286D01*
X17978628Y1714286D02*
X17931009Y1714286D01*
X17931009Y1714286D02*
X17835771Y1761905D01*
X17835771Y1761905D02*
X17788152Y1857143D01*
X17788152Y1857143D02*
X17788152Y2000000D01*
X17788152Y2000000D02*
X17835771Y2095238D01*
X18454819Y2571429D02*
X17454819Y2571429D01*
X18454819Y3000000D02*
X17931009Y3000000D01*
X17931009Y3000000D02*
X17835771Y2952381D01*
X17835771Y2952381D02*
X17788152Y2857143D01*
X17788152Y2857143D02*
X17788152Y2714286D01*
X17788152Y2714286D02*
X17835771Y2619048D01*
X17835771Y2619048D02*
X17883390Y2571429D01*
X13407200Y-1333332D02*
X13454819Y-1190475D01*
X13454819Y-1190475D02*
X13454819Y-952380D01*
X13454819Y-952380D02*
X13407200Y-857142D01*
X13407200Y-857142D02*
X13359580Y-809523D01*
X13359580Y-809523D02*
X13264342Y-761904D01*
X13264342Y-761904D02*
X13169104Y-761904D01*
X13169104Y-761904D02*
X13073866Y-809523D01*
X13073866Y-809523D02*
X13026247Y-857142D01*
X13026247Y-857142D02*
X12978628Y-952380D01*
X12978628Y-952380D02*
X12931009Y-1142856D01*
X12931009Y-1142856D02*
X12883390Y-1238094D01*
X12883390Y-1238094D02*
X12835771Y-1285713D01*
X12835771Y-1285713D02*
X12740533Y-1333332D01*
X12740533Y-1333332D02*
X12645295Y-1333332D01*
X12645295Y-1333332D02*
X12550057Y-1285713D01*
X12550057Y-1285713D02*
X12502438Y-1238094D01*
X12502438Y-1238094D02*
X12454819Y-1142856D01*
X12454819Y-1142856D02*
X12454819Y-904761D01*
X12454819Y-904761D02*
X12502438Y-761904D01*
X12454819Y-428570D02*
X13454819Y-190475D01*
X13454819Y-190475D02*
X12740533Y0D01*
X12740533Y0D02*
X13454819Y190476D01*
X13454819Y190476D02*
X12454819Y428572D01*
X12454819Y1285714D02*
X12454819Y809524D01*
X12454819Y809524D02*
X12931009Y761905D01*
X12931009Y761905D02*
X12883390Y809524D01*
X12883390Y809524D02*
X12835771Y904762D01*
X12835771Y904762D02*
X12835771Y1142857D01*
X12835771Y1142857D02*
X12883390Y1238095D01*
X12883390Y1238095D02*
X12931009Y1285714D01*
X12931009Y1285714D02*
X13026247Y1333333D01*
X13026247Y1333333D02*
X13264342Y1333333D01*
X13264342Y1333333D02*
X13359580Y1285714D01*
X13359580Y1285714D02*
X13407200Y1238095D01*
X13407200Y1238095D02*
X13454819Y1142857D01*
X13454819Y1142857D02*
X13454819Y904762D01*
X13454819Y904762D02*
X13407200Y809524D01*
X13407200Y809524D02*
X13359580Y761905D01*
D12*
X-31766905Y-579271D02*
X-31766905Y690728D01*
X-31766905Y690728D02*
X-31343571Y-216414D01*
X-31343571Y-216414D02*
X-30920238Y690728D01*
X-30920238Y690728D02*
X-30920238Y-579271D01*
X-30134047Y-579271D02*
X-30254999Y-518795D01*
X-30254999Y-518795D02*
X-30315476Y-458318D01*
X-30315476Y-458318D02*
X-30375952Y-337366D01*
X-30375952Y-337366D02*
X-30375952Y25490D01*
X-30375952Y25490D02*
X-30315476Y146443D01*
X-30315476Y146443D02*
X-30254999Y206919D01*
X-30254999Y206919D02*
X-30134047Y267395D01*
X-30134047Y267395D02*
X-29952618Y267395D01*
X-29952618Y267395D02*
X-29831666Y206919D01*
X-29831666Y206919D02*
X-29771190Y146443D01*
X-29771190Y146443D02*
X-29710714Y25490D01*
X-29710714Y25490D02*
X-29710714Y-337366D01*
X-29710714Y-337366D02*
X-29771190Y-458318D01*
X-29771190Y-458318D02*
X-29831666Y-518795D01*
X-29831666Y-518795D02*
X-29952618Y-579271D01*
X-29952618Y-579271D02*
X-30134047Y-579271D01*
X-28622142Y267395D02*
X-28622142Y-579271D01*
X-29166428Y267395D02*
X-29166428Y-397842D01*
X-29166428Y-397842D02*
X-29105951Y-518795D01*
X-29105951Y-518795D02*
X-28984999Y-579271D01*
X-28984999Y-579271D02*
X-28803570Y-579271D01*
X-28803570Y-579271D02*
X-28682618Y-518795D01*
X-28682618Y-518795D02*
X-28622142Y-458318D01*
X-28017380Y267395D02*
X-28017380Y-579271D01*
X-28017380Y146443D02*
X-27956903Y206919D01*
X-27956903Y206919D02*
X-27835951Y267395D01*
X-27835951Y267395D02*
X-27654522Y267395D01*
X-27654522Y267395D02*
X-27533570Y206919D01*
X-27533570Y206919D02*
X-27473094Y85966D01*
X-27473094Y85966D02*
X-27473094Y-579271D01*
X-27049760Y267395D02*
X-26565951Y267395D01*
X-26868332Y690728D02*
X-26868332Y-397842D01*
X-26868332Y-397842D02*
X-26807855Y-518795D01*
X-26807855Y-518795D02*
X-26686903Y-579271D01*
X-26686903Y-579271D02*
X-26565951Y-579271D01*
X-26142618Y-579271D02*
X-26142618Y267395D01*
X-26142618Y690728D02*
X-26203094Y630252D01*
X-26203094Y630252D02*
X-26142618Y569776D01*
X-26142618Y569776D02*
X-26082141Y630252D01*
X-26082141Y630252D02*
X-26142618Y690728D01*
X-26142618Y690728D02*
X-26142618Y569776D01*
X-25537856Y267395D02*
X-25537856Y-579271D01*
X-25537856Y146443D02*
X-25477379Y206919D01*
X-25477379Y206919D02*
X-25356427Y267395D01*
X-25356427Y267395D02*
X-25174998Y267395D01*
X-25174998Y267395D02*
X-25054046Y206919D01*
X-25054046Y206919D02*
X-24993570Y85966D01*
X-24993570Y85966D02*
X-24993570Y-579271D01*
X-23844522Y267395D02*
X-23844522Y-760699D01*
X-23844522Y-760699D02*
X-23904998Y-881652D01*
X-23904998Y-881652D02*
X-23965474Y-942128D01*
X-23965474Y-942128D02*
X-24086427Y-1002604D01*
X-24086427Y-1002604D02*
X-24267855Y-1002604D01*
X-24267855Y-1002604D02*
X-24388808Y-942128D01*
X-23844522Y-518795D02*
X-23965474Y-579271D01*
X-23965474Y-579271D02*
X-24207379Y-579271D01*
X-24207379Y-579271D02*
X-24328331Y-518795D01*
X-24328331Y-518795D02*
X-24388808Y-458318D01*
X-24388808Y-458318D02*
X-24449284Y-337366D01*
X-24449284Y-337366D02*
X-24449284Y25490D01*
X-24449284Y25490D02*
X-24388808Y146443D01*
X-24388808Y146443D02*
X-24328331Y206919D01*
X-24328331Y206919D02*
X-24207379Y267395D01*
X-24207379Y267395D02*
X-23965474Y267395D01*
X-23965474Y267395D02*
X-23844522Y206919D01*
X-23239760Y-579271D02*
X-23239760Y690728D01*
X-23239760Y85966D02*
X-22514045Y85966D01*
X-22514045Y-579271D02*
X-22514045Y690728D01*
X-21727855Y-579271D02*
X-21848807Y-518795D01*
X-21848807Y-518795D02*
X-21909284Y-458318D01*
X-21909284Y-458318D02*
X-21969760Y-337366D01*
X-21969760Y-337366D02*
X-21969760Y25490D01*
X-21969760Y25490D02*
X-21909284Y146443D01*
X-21909284Y146443D02*
X-21848807Y206919D01*
X-21848807Y206919D02*
X-21727855Y267395D01*
X-21727855Y267395D02*
X-21546426Y267395D01*
X-21546426Y267395D02*
X-21425474Y206919D01*
X-21425474Y206919D02*
X-21364998Y146443D01*
X-21364998Y146443D02*
X-21304522Y25490D01*
X-21304522Y25490D02*
X-21304522Y-337366D01*
X-21304522Y-337366D02*
X-21364998Y-458318D01*
X-21364998Y-458318D02*
X-21425474Y-518795D01*
X-21425474Y-518795D02*
X-21546426Y-579271D01*
X-21546426Y-579271D02*
X-21727855Y-579271D01*
X-20578807Y-579271D02*
X-20699759Y-518795D01*
X-20699759Y-518795D02*
X-20760236Y-397842D01*
X-20760236Y-397842D02*
X-20760236Y690728D01*
X-19611188Y-518795D02*
X-19732140Y-579271D01*
X-19732140Y-579271D02*
X-19974045Y-579271D01*
X-19974045Y-579271D02*
X-20094998Y-518795D01*
X-20094998Y-518795D02*
X-20155474Y-397842D01*
X-20155474Y-397842D02*
X-20155474Y85966D01*
X-20155474Y85966D02*
X-20094998Y206919D01*
X-20094998Y206919D02*
X-19974045Y267395D01*
X-19974045Y267395D02*
X-19732140Y267395D01*
X-19732140Y267395D02*
X-19611188Y206919D01*
X-19611188Y206919D02*
X-19550712Y85966D01*
X-19550712Y85966D02*
X-19550712Y-34985D01*
X-19550712Y-34985D02*
X-20155474Y-155937D01*
X-19308808Y-700223D02*
X-18341188Y-700223D01*
X-18099284Y569776D02*
X-18038808Y630252D01*
X-18038808Y630252D02*
X-17917855Y690728D01*
X-17917855Y690728D02*
X-17615474Y690728D01*
X-17615474Y690728D02*
X-17494522Y630252D01*
X-17494522Y630252D02*
X-17434046Y569776D01*
X-17434046Y569776D02*
X-17373569Y448824D01*
X-17373569Y448824D02*
X-17373569Y327871D01*
X-17373569Y327871D02*
X-17434046Y146443D01*
X-17434046Y146443D02*
X-18159760Y-579271D01*
X-18159760Y-579271D02*
X-17373569Y-579271D01*
X-16829284Y-458318D02*
X-16768807Y-518795D01*
X-16768807Y-518795D02*
X-16829284Y-579271D01*
X-16829284Y-579271D02*
X-16889760Y-518795D01*
X-16889760Y-518795D02*
X-16829284Y-458318D01*
X-16829284Y-458318D02*
X-16829284Y-579271D01*
X-16284998Y569776D02*
X-16224522Y630252D01*
X-16224522Y630252D02*
X-16103569Y690728D01*
X-16103569Y690728D02*
X-15801188Y690728D01*
X-15801188Y690728D02*
X-15680236Y630252D01*
X-15680236Y630252D02*
X-15619760Y569776D01*
X-15619760Y569776D02*
X-15559283Y448824D01*
X-15559283Y448824D02*
X-15559283Y327871D01*
X-15559283Y327871D02*
X-15619760Y146443D01*
X-15619760Y146443D02*
X-16345474Y-579271D01*
X-16345474Y-579271D02*
X-15559283Y-579271D01*
X-15014998Y-579271D02*
X-15014998Y267395D01*
X-15014998Y146443D02*
X-14954521Y206919D01*
X-14954521Y206919D02*
X-14833569Y267395D01*
X-14833569Y267395D02*
X-14652140Y267395D01*
X-14652140Y267395D02*
X-14531188Y206919D01*
X-14531188Y206919D02*
X-14470712Y85966D01*
X-14470712Y85966D02*
X-14470712Y-579271D01*
X-14470712Y85966D02*
X-14410236Y206919D01*
X-14410236Y206919D02*
X-14289283Y267395D01*
X-14289283Y267395D02*
X-14107855Y267395D01*
X-14107855Y267395D02*
X-13986902Y206919D01*
X-13986902Y206919D02*
X-13926426Y85966D01*
X-13926426Y85966D02*
X-13926426Y-579271D01*
X-13321665Y-579271D02*
X-13321665Y267395D01*
X-13321665Y146443D02*
X-13261188Y206919D01*
X-13261188Y206919D02*
X-13140236Y267395D01*
X-13140236Y267395D02*
X-12958807Y267395D01*
X-12958807Y267395D02*
X-12837855Y206919D01*
X-12837855Y206919D02*
X-12777379Y85966D01*
X-12777379Y85966D02*
X-12777379Y-579271D01*
X-12777379Y85966D02*
X-12716903Y206919D01*
X-12716903Y206919D02*
X-12595950Y267395D01*
X-12595950Y267395D02*
X-12414522Y267395D01*
X-12414522Y267395D02*
X-12293569Y206919D01*
X-12293569Y206919D02*
X-12233093Y85966D01*
X-12233093Y85966D02*
X-12233093Y-579271D01*
D10*
X12051581Y11113500D02*
X12194438Y11065880D01*
X12194438Y11065880D02*
X12432533Y11065880D01*
X12432533Y11065880D02*
X12527771Y11113500D01*
X12527771Y11113500D02*
X12575390Y11161119D01*
X12575390Y11161119D02*
X12623009Y11256357D01*
X12623009Y11256357D02*
X12623009Y11351595D01*
X12623009Y11351595D02*
X12575390Y11446833D01*
X12575390Y11446833D02*
X12527771Y11494452D01*
X12527771Y11494452D02*
X12432533Y11542071D01*
X12432533Y11542071D02*
X12242057Y11589690D01*
X12242057Y11589690D02*
X12146819Y11637309D01*
X12146819Y11637309D02*
X12099200Y11684928D01*
X12099200Y11684928D02*
X12051581Y11780166D01*
X12051581Y11780166D02*
X12051581Y11875404D01*
X12051581Y11875404D02*
X12099200Y11970642D01*
X12099200Y11970642D02*
X12146819Y12018261D01*
X12146819Y12018261D02*
X12242057Y12065880D01*
X12242057Y12065880D02*
X12480152Y12065880D01*
X12480152Y12065880D02*
X12623009Y12018261D01*
X12956343Y12065880D02*
X13194438Y11065880D01*
X13194438Y11065880D02*
X13384914Y11780166D01*
X13384914Y11780166D02*
X13575390Y11065880D01*
X13575390Y11065880D02*
X13813486Y12065880D01*
X13956343Y10970642D02*
X14718247Y10970642D01*
X14956343Y11065880D02*
X14956343Y12065880D01*
X14956343Y12065880D02*
X15337295Y12065880D01*
X15337295Y12065880D02*
X15432533Y12018261D01*
X15432533Y12018261D02*
X15480152Y11970642D01*
X15480152Y11970642D02*
X15527771Y11875404D01*
X15527771Y11875404D02*
X15527771Y11732547D01*
X15527771Y11732547D02*
X15480152Y11637309D01*
X15480152Y11637309D02*
X15432533Y11589690D01*
X15432533Y11589690D02*
X15337295Y11542071D01*
X15337295Y11542071D02*
X14956343Y11542071D01*
X16384914Y11732547D02*
X16384914Y11065880D01*
X15956343Y11732547D02*
X15956343Y11208738D01*
X15956343Y11208738D02*
X16003962Y11113500D01*
X16003962Y11113500D02*
X16099200Y11065880D01*
X16099200Y11065880D02*
X16242057Y11065880D01*
X16242057Y11065880D02*
X16337295Y11113500D01*
X16337295Y11113500D02*
X16384914Y11161119D01*
X16813486Y11113500D02*
X16908724Y11065880D01*
X16908724Y11065880D02*
X17099200Y11065880D01*
X17099200Y11065880D02*
X17194438Y11113500D01*
X17194438Y11113500D02*
X17242057Y11208738D01*
X17242057Y11208738D02*
X17242057Y11256357D01*
X17242057Y11256357D02*
X17194438Y11351595D01*
X17194438Y11351595D02*
X17099200Y11399214D01*
X17099200Y11399214D02*
X16956343Y11399214D01*
X16956343Y11399214D02*
X16861105Y11446833D01*
X16861105Y11446833D02*
X16813486Y11542071D01*
X16813486Y11542071D02*
X16813486Y11589690D01*
X16813486Y11589690D02*
X16861105Y11684928D01*
X16861105Y11684928D02*
X16956343Y11732547D01*
X16956343Y11732547D02*
X17099200Y11732547D01*
X17099200Y11732547D02*
X17194438Y11684928D01*
X17670629Y11065880D02*
X17670629Y12065880D01*
X18099200Y11065880D02*
X18099200Y11589690D01*
X18099200Y11589690D02*
X18051581Y11684928D01*
X18051581Y11684928D02*
X17956343Y11732547D01*
X17956343Y11732547D02*
X17813486Y11732547D01*
X17813486Y11732547D02*
X17718248Y11684928D01*
X17718248Y11684928D02*
X17670629Y11637309D01*
X13765867Y16113500D02*
X13908724Y16065880D01*
X13908724Y16065880D02*
X14146819Y16065880D01*
X14146819Y16065880D02*
X14242057Y16113500D01*
X14242057Y16113500D02*
X14289676Y16161119D01*
X14289676Y16161119D02*
X14337295Y16256357D01*
X14337295Y16256357D02*
X14337295Y16351595D01*
X14337295Y16351595D02*
X14289676Y16446833D01*
X14289676Y16446833D02*
X14242057Y16494452D01*
X14242057Y16494452D02*
X14146819Y16542071D01*
X14146819Y16542071D02*
X13956343Y16589690D01*
X13956343Y16589690D02*
X13861105Y16637309D01*
X13861105Y16637309D02*
X13813486Y16684928D01*
X13813486Y16684928D02*
X13765867Y16780166D01*
X13765867Y16780166D02*
X13765867Y16875404D01*
X13765867Y16875404D02*
X13813486Y16970642D01*
X13813486Y16970642D02*
X13861105Y17018261D01*
X13861105Y17018261D02*
X13956343Y17065880D01*
X13956343Y17065880D02*
X14194438Y17065880D01*
X14194438Y17065880D02*
X14337295Y17018261D01*
X14670629Y17065880D02*
X14908724Y16065880D01*
X14908724Y16065880D02*
X15099200Y16780166D01*
X15099200Y16780166D02*
X15289676Y16065880D01*
X15289676Y16065880D02*
X15527772Y17065880D01*
X16337295Y17065880D02*
X16146819Y17065880D01*
X16146819Y17065880D02*
X16051581Y17018261D01*
X16051581Y17018261D02*
X16003962Y16970642D01*
X16003962Y16970642D02*
X15908724Y16827785D01*
X15908724Y16827785D02*
X15861105Y16637309D01*
X15861105Y16637309D02*
X15861105Y16256357D01*
X15861105Y16256357D02*
X15908724Y16161119D01*
X15908724Y16161119D02*
X15956343Y16113500D01*
X15956343Y16113500D02*
X16051581Y16065880D01*
X16051581Y16065880D02*
X16242057Y16065880D01*
X16242057Y16065880D02*
X16337295Y16113500D01*
X16337295Y16113500D02*
X16384914Y16161119D01*
X16384914Y16161119D02*
X16432533Y16256357D01*
X16432533Y16256357D02*
X16432533Y16494452D01*
X16432533Y16494452D02*
X16384914Y16589690D01*
X16384914Y16589690D02*
X16337295Y16637309D01*
X16337295Y16637309D02*
X16242057Y16684928D01*
X16242057Y16684928D02*
X16051581Y16684928D01*
X16051581Y16684928D02*
X15956343Y16637309D01*
X15956343Y16637309D02*
X15908724Y16589690D01*
X15908724Y16589690D02*
X15861105Y16494452D01*
X-12192000Y10973081D02*
X-12144380Y11115938D01*
X-12144380Y11115938D02*
X-12144380Y11354033D01*
X-12144380Y11354033D02*
X-12192000Y11449271D01*
X-12192000Y11449271D02*
X-12239619Y11496890D01*
X-12239619Y11496890D02*
X-12334857Y11544509D01*
X-12334857Y11544509D02*
X-12430095Y11544509D01*
X-12430095Y11544509D02*
X-12525333Y11496890D01*
X-12525333Y11496890D02*
X-12572952Y11449271D01*
X-12572952Y11449271D02*
X-12620571Y11354033D01*
X-12620571Y11354033D02*
X-12668190Y11163557D01*
X-12668190Y11163557D02*
X-12715809Y11068319D01*
X-12715809Y11068319D02*
X-12763428Y11020700D01*
X-12763428Y11020700D02*
X-12858666Y10973081D01*
X-12858666Y10973081D02*
X-12953904Y10973081D01*
X-12953904Y10973081D02*
X-13049142Y11020700D01*
X-13049142Y11020700D02*
X-13096761Y11068319D01*
X-13096761Y11068319D02*
X-13144380Y11163557D01*
X-13144380Y11163557D02*
X-13144380Y11401652D01*
X-13144380Y11401652D02*
X-13096761Y11544509D01*
X-13144380Y11877843D02*
X-12144380Y12115938D01*
X-12144380Y12115938D02*
X-12858666Y12306414D01*
X-12858666Y12306414D02*
X-12144380Y12496890D01*
X-12144380Y12496890D02*
X-13144380Y12734986D01*
X-12049142Y12877843D02*
X-12049142Y13639747D01*
X-12144380Y13877843D02*
X-13144380Y13877843D01*
X-13144380Y13877843D02*
X-13144380Y14258795D01*
X-13144380Y14258795D02*
X-13096761Y14354033D01*
X-13096761Y14354033D02*
X-13049142Y14401652D01*
X-13049142Y14401652D02*
X-12953904Y14449271D01*
X-12953904Y14449271D02*
X-12811047Y14449271D01*
X-12811047Y14449271D02*
X-12715809Y14401652D01*
X-12715809Y14401652D02*
X-12668190Y14354033D01*
X-12668190Y14354033D02*
X-12620571Y14258795D01*
X-12620571Y14258795D02*
X-12620571Y13877843D01*
X-12811047Y15306414D02*
X-12144380Y15306414D01*
X-12811047Y14877843D02*
X-12287238Y14877843D01*
X-12287238Y14877843D02*
X-12192000Y14925462D01*
X-12192000Y14925462D02*
X-12144380Y15020700D01*
X-12144380Y15020700D02*
X-12144380Y15163557D01*
X-12144380Y15163557D02*
X-12192000Y15258795D01*
X-12192000Y15258795D02*
X-12239619Y15306414D01*
X-12192000Y15734986D02*
X-12144380Y15830224D01*
X-12144380Y15830224D02*
X-12144380Y16020700D01*
X-12144380Y16020700D02*
X-12192000Y16115938D01*
X-12192000Y16115938D02*
X-12287238Y16163557D01*
X-12287238Y16163557D02*
X-12334857Y16163557D01*
X-12334857Y16163557D02*
X-12430095Y16115938D01*
X-12430095Y16115938D02*
X-12477714Y16020700D01*
X-12477714Y16020700D02*
X-12477714Y15877843D01*
X-12477714Y15877843D02*
X-12525333Y15782605D01*
X-12525333Y15782605D02*
X-12620571Y15734986D01*
X-12620571Y15734986D02*
X-12668190Y15734986D01*
X-12668190Y15734986D02*
X-12763428Y15782605D01*
X-12763428Y15782605D02*
X-12811047Y15877843D01*
X-12811047Y15877843D02*
X-12811047Y16020700D01*
X-12811047Y16020700D02*
X-12763428Y16115938D01*
X-12144380Y16592129D02*
X-13144380Y16592129D01*
X-12144380Y17020700D02*
X-12668190Y17020700D01*
X-12668190Y17020700D02*
X-12763428Y16973081D01*
X-12763428Y16973081D02*
X-12811047Y16877843D01*
X-12811047Y16877843D02*
X-12811047Y16734986D01*
X-12811047Y16734986D02*
X-12763428Y16639748D01*
X-12763428Y16639748D02*
X-12715809Y16592129D01*
X-17192000Y12687367D02*
X-17144380Y12830224D01*
X-17144380Y12830224D02*
X-17144380Y13068319D01*
X-17144380Y13068319D02*
X-17192000Y13163557D01*
X-17192000Y13163557D02*
X-17239619Y13211176D01*
X-17239619Y13211176D02*
X-17334857Y13258795D01*
X-17334857Y13258795D02*
X-17430095Y13258795D01*
X-17430095Y13258795D02*
X-17525333Y13211176D01*
X-17525333Y13211176D02*
X-17572952Y13163557D01*
X-17572952Y13163557D02*
X-17620571Y13068319D01*
X-17620571Y13068319D02*
X-17668190Y12877843D01*
X-17668190Y12877843D02*
X-17715809Y12782605D01*
X-17715809Y12782605D02*
X-17763428Y12734986D01*
X-17763428Y12734986D02*
X-17858666Y12687367D01*
X-17858666Y12687367D02*
X-17953904Y12687367D01*
X-17953904Y12687367D02*
X-18049142Y12734986D01*
X-18049142Y12734986D02*
X-18096761Y12782605D01*
X-18096761Y12782605D02*
X-18144380Y12877843D01*
X-18144380Y12877843D02*
X-18144380Y13115938D01*
X-18144380Y13115938D02*
X-18096761Y13258795D01*
X-18144380Y13592129D02*
X-17144380Y13830224D01*
X-17144380Y13830224D02*
X-17858666Y14020700D01*
X-17858666Y14020700D02*
X-17144380Y14211176D01*
X-17144380Y14211176D02*
X-18144380Y14449272D01*
X-18144380Y14734986D02*
X-18144380Y15354033D01*
X-18144380Y15354033D02*
X-17763428Y15020700D01*
X-17763428Y15020700D02*
X-17763428Y15163557D01*
X-17763428Y15163557D02*
X-17715809Y15258795D01*
X-17715809Y15258795D02*
X-17668190Y15306414D01*
X-17668190Y15306414D02*
X-17572952Y15354033D01*
X-17572952Y15354033D02*
X-17334857Y15354033D01*
X-17334857Y15354033D02*
X-17239619Y15306414D01*
X-17239619Y15306414D02*
X-17192000Y15258795D01*
X-17192000Y15258795D02*
X-17144380Y15163557D01*
X-17144380Y15163557D02*
X-17144380Y14877843D01*
X-17144380Y14877843D02*
X-17192000Y14782605D01*
X-17192000Y14782605D02*
X-17239619Y14734986D01*
D12*
X12233094Y-579271D02*
X12233094Y690728D01*
X12233094Y690728D02*
X12656428Y-216414D01*
X12656428Y-216414D02*
X13079761Y690728D01*
X13079761Y690728D02*
X13079761Y-579271D01*
X13865952Y-579271D02*
X13745000Y-518795D01*
X13745000Y-518795D02*
X13684523Y-458318D01*
X13684523Y-458318D02*
X13624047Y-337366D01*
X13624047Y-337366D02*
X13624047Y25490D01*
X13624047Y25490D02*
X13684523Y146443D01*
X13684523Y146443D02*
X13745000Y206919D01*
X13745000Y206919D02*
X13865952Y267395D01*
X13865952Y267395D02*
X14047381Y267395D01*
X14047381Y267395D02*
X14168333Y206919D01*
X14168333Y206919D02*
X14228809Y146443D01*
X14228809Y146443D02*
X14289285Y25490D01*
X14289285Y25490D02*
X14289285Y-337366D01*
X14289285Y-337366D02*
X14228809Y-458318D01*
X14228809Y-458318D02*
X14168333Y-518795D01*
X14168333Y-518795D02*
X14047381Y-579271D01*
X14047381Y-579271D02*
X13865952Y-579271D01*
X15377857Y267395D02*
X15377857Y-579271D01*
X14833571Y267395D02*
X14833571Y-397842D01*
X14833571Y-397842D02*
X14894048Y-518795D01*
X14894048Y-518795D02*
X15015000Y-579271D01*
X15015000Y-579271D02*
X15196429Y-579271D01*
X15196429Y-579271D02*
X15317381Y-518795D01*
X15317381Y-518795D02*
X15377857Y-458318D01*
X15982619Y267395D02*
X15982619Y-579271D01*
X15982619Y146443D02*
X16043096Y206919D01*
X16043096Y206919D02*
X16164048Y267395D01*
X16164048Y267395D02*
X16345477Y267395D01*
X16345477Y267395D02*
X16466429Y206919D01*
X16466429Y206919D02*
X16526905Y85966D01*
X16526905Y85966D02*
X16526905Y-579271D01*
X16950239Y267395D02*
X17434048Y267395D01*
X17131667Y690728D02*
X17131667Y-397842D01*
X17131667Y-397842D02*
X17192144Y-518795D01*
X17192144Y-518795D02*
X17313096Y-579271D01*
X17313096Y-579271D02*
X17434048Y-579271D01*
X17857381Y-579271D02*
X17857381Y267395D01*
X17857381Y690728D02*
X17796905Y630252D01*
X17796905Y630252D02*
X17857381Y569776D01*
X17857381Y569776D02*
X17917858Y630252D01*
X17917858Y630252D02*
X17857381Y690728D01*
X17857381Y690728D02*
X17857381Y569776D01*
X18462143Y267395D02*
X18462143Y-579271D01*
X18462143Y146443D02*
X18522620Y206919D01*
X18522620Y206919D02*
X18643572Y267395D01*
X18643572Y267395D02*
X18825001Y267395D01*
X18825001Y267395D02*
X18945953Y206919D01*
X18945953Y206919D02*
X19006429Y85966D01*
X19006429Y85966D02*
X19006429Y-579271D01*
X20155477Y267395D02*
X20155477Y-760699D01*
X20155477Y-760699D02*
X20095001Y-881652D01*
X20095001Y-881652D02*
X20034525Y-942128D01*
X20034525Y-942128D02*
X19913572Y-1002604D01*
X19913572Y-1002604D02*
X19732144Y-1002604D01*
X19732144Y-1002604D02*
X19611191Y-942128D01*
X20155477Y-518795D02*
X20034525Y-579271D01*
X20034525Y-579271D02*
X19792620Y-579271D01*
X19792620Y-579271D02*
X19671668Y-518795D01*
X19671668Y-518795D02*
X19611191Y-458318D01*
X19611191Y-458318D02*
X19550715Y-337366D01*
X19550715Y-337366D02*
X19550715Y25490D01*
X19550715Y25490D02*
X19611191Y146443D01*
X19611191Y146443D02*
X19671668Y206919D01*
X19671668Y206919D02*
X19792620Y267395D01*
X19792620Y267395D02*
X20034525Y267395D01*
X20034525Y267395D02*
X20155477Y206919D01*
X20760239Y-579271D02*
X20760239Y690728D01*
X20760239Y85966D02*
X21485954Y85966D01*
X21485954Y-579271D02*
X21485954Y690728D01*
X22272144Y-579271D02*
X22151192Y-518795D01*
X22151192Y-518795D02*
X22090715Y-458318D01*
X22090715Y-458318D02*
X22030239Y-337366D01*
X22030239Y-337366D02*
X22030239Y25490D01*
X22030239Y25490D02*
X22090715Y146443D01*
X22090715Y146443D02*
X22151192Y206919D01*
X22151192Y206919D02*
X22272144Y267395D01*
X22272144Y267395D02*
X22453573Y267395D01*
X22453573Y267395D02*
X22574525Y206919D01*
X22574525Y206919D02*
X22635001Y146443D01*
X22635001Y146443D02*
X22695477Y25490D01*
X22695477Y25490D02*
X22695477Y-337366D01*
X22695477Y-337366D02*
X22635001Y-458318D01*
X22635001Y-458318D02*
X22574525Y-518795D01*
X22574525Y-518795D02*
X22453573Y-579271D01*
X22453573Y-579271D02*
X22272144Y-579271D01*
X23421192Y-579271D02*
X23300240Y-518795D01*
X23300240Y-518795D02*
X23239763Y-397842D01*
X23239763Y-397842D02*
X23239763Y690728D01*
X24388811Y-518795D02*
X24267859Y-579271D01*
X24267859Y-579271D02*
X24025954Y-579271D01*
X24025954Y-579271D02*
X23905001Y-518795D01*
X23905001Y-518795D02*
X23844525Y-397842D01*
X23844525Y-397842D02*
X23844525Y85966D01*
X23844525Y85966D02*
X23905001Y206919D01*
X23905001Y206919D02*
X24025954Y267395D01*
X24025954Y267395D02*
X24267859Y267395D01*
X24267859Y267395D02*
X24388811Y206919D01*
X24388811Y206919D02*
X24449287Y85966D01*
X24449287Y85966D02*
X24449287Y-34985D01*
X24449287Y-34985D02*
X23844525Y-155937D01*
X24691192Y-700223D02*
X25658811Y-700223D01*
X25900715Y569776D02*
X25961191Y630252D01*
X25961191Y630252D02*
X26082144Y690728D01*
X26082144Y690728D02*
X26384525Y690728D01*
X26384525Y690728D02*
X26505477Y630252D01*
X26505477Y630252D02*
X26565953Y569776D01*
X26565953Y569776D02*
X26626430Y448824D01*
X26626430Y448824D02*
X26626430Y327871D01*
X26626430Y327871D02*
X26565953Y146443D01*
X26565953Y146443D02*
X25840239Y-579271D01*
X25840239Y-579271D02*
X26626430Y-579271D01*
X27170715Y-458318D02*
X27231192Y-518795D01*
X27231192Y-518795D02*
X27170715Y-579271D01*
X27170715Y-579271D02*
X27110239Y-518795D01*
X27110239Y-518795D02*
X27170715Y-458318D01*
X27170715Y-458318D02*
X27170715Y-579271D01*
X27715001Y569776D02*
X27775477Y630252D01*
X27775477Y630252D02*
X27896430Y690728D01*
X27896430Y690728D02*
X28198811Y690728D01*
X28198811Y690728D02*
X28319763Y630252D01*
X28319763Y630252D02*
X28380239Y569776D01*
X28380239Y569776D02*
X28440716Y448824D01*
X28440716Y448824D02*
X28440716Y327871D01*
X28440716Y327871D02*
X28380239Y146443D01*
X28380239Y146443D02*
X27654525Y-579271D01*
X27654525Y-579271D02*
X28440716Y-579271D01*
X28985001Y-579271D02*
X28985001Y267395D01*
X28985001Y146443D02*
X29045478Y206919D01*
X29045478Y206919D02*
X29166430Y267395D01*
X29166430Y267395D02*
X29347859Y267395D01*
X29347859Y267395D02*
X29468811Y206919D01*
X29468811Y206919D02*
X29529287Y85966D01*
X29529287Y85966D02*
X29529287Y-579271D01*
X29529287Y85966D02*
X29589763Y206919D01*
X29589763Y206919D02*
X29710716Y267395D01*
X29710716Y267395D02*
X29892144Y267395D01*
X29892144Y267395D02*
X30013097Y206919D01*
X30013097Y206919D02*
X30073573Y85966D01*
X30073573Y85966D02*
X30073573Y-579271D01*
X30678334Y-579271D02*
X30678334Y267395D01*
X30678334Y146443D02*
X30738811Y206919D01*
X30738811Y206919D02*
X30859763Y267395D01*
X30859763Y267395D02*
X31041192Y267395D01*
X31041192Y267395D02*
X31162144Y206919D01*
X31162144Y206919D02*
X31222620Y85966D01*
X31222620Y85966D02*
X31222620Y-579271D01*
X31222620Y85966D02*
X31283096Y206919D01*
X31283096Y206919D02*
X31404049Y267395D01*
X31404049Y267395D02*
X31585477Y267395D01*
X31585477Y267395D02*
X31706430Y206919D01*
X31706430Y206919D02*
X31766906Y85966D01*
X31766906Y85966D02*
X31766906Y-579271D01*
%TO.C,LED1*%
D13*
X-1000000Y-8700000D02*
X-1000000Y-9600000D01*
X-1000000Y-9600000D02*
X1000000Y-9600000D01*
X-700000Y-8400000D02*
X-1000000Y-8700000D01*
X1000000Y-8400000D02*
X-700000Y-8400000D01*
X1000000Y-9600000D02*
X1000000Y-8400000D01*
%TO.C,SW4*%
X13849200Y-12520700D02*
X16349200Y-12520700D01*
X13849200Y-15520700D02*
X13849200Y-12520700D01*
X16349200Y-12520700D02*
X16349200Y-15520700D01*
X16349200Y-15520700D02*
X13849200Y-15520700D01*
X15849200Y-14020700D02*
G75*
G02*
X14349200Y-14020700I-750000J0D01*
G01*
X14349200Y-14020700D02*
G75*
G02*
X15849200Y-14020700I750000J0D01*
G01*
%TO.C,SW1*%
X-16349200Y-12520700D02*
X-13849200Y-12520700D01*
X-16349200Y-15520700D02*
X-16349200Y-12520700D01*
X-13849200Y-12520700D02*
X-13849200Y-15520700D01*
X-13849200Y-15520700D02*
X-16349200Y-15520700D01*
X-14349200Y-14020700D02*
G75*
G02*
X-15849200Y-14020700I-750000J0D01*
G01*
X-15849200Y-14020700D02*
G75*
G02*
X-14349200Y-14020700I750000J0D01*
G01*
%TO.C,SW2*%
X-17000000Y1250000D02*
X-14000000Y1250000D01*
X-17000000Y-1250000D02*
X-17000000Y1250000D01*
X-14000000Y1250000D02*
X-14000000Y-1250000D01*
X-14000000Y-1250000D02*
X-17000000Y-1250000D01*
X-14750000Y0D02*
G75*
G02*
X-16250000Y0I-750000J0D01*
G01*
X-16250000Y0D02*
G75*
G02*
X-14750000Y0I750000J0D01*
G01*
%TO.C,SW5*%
X14250000Y1500000D02*
X16750000Y1500000D01*
X14250000Y-1500000D02*
X14250000Y1500000D01*
X16750000Y1500000D02*
X16750000Y-1500000D01*
X16750000Y-1500000D02*
X14250000Y-1500000D01*
X16250000Y0D02*
G75*
G02*
X14750000Y0I-750000J0D01*
G01*
X14750000Y0D02*
G75*
G02*
X16250000Y0I750000J0D01*
G01*
%TO.C,SW6*%
X13599200Y15270700D02*
X16599200Y15270700D01*
X13599200Y12770700D02*
X13599200Y15270700D01*
X16599200Y15270700D02*
X16599200Y12770700D01*
X16599200Y12770700D02*
X13599200Y12770700D01*
X15849200Y14020700D02*
G75*
G02*
X14349200Y14020700I-750000J0D01*
G01*
X14349200Y14020700D02*
G75*
G02*
X15849200Y14020700I750000J0D01*
G01*
%TO.C,SW3*%
X-16349200Y15520700D02*
X-13849200Y15520700D01*
X-16349200Y12520700D02*
X-16349200Y15520700D01*
X-13849200Y15520700D02*
X-13849200Y12520700D01*
X-13849200Y12520700D02*
X-16349200Y12520700D01*
X-14349200Y14020700D02*
G75*
G02*
X-15849200Y14020700I-750000J0D01*
G01*
X-15849200Y14020700D02*
G75*
G02*
X-14349200Y14020700I750000J0D01*
G01*
%TD*%
M02*
