%TF.GenerationSoftware,KiCad,Pcbnew,10.0.4*%
%TF.CreationDate,2026-07-28T11:01:35+02:00*%
%TF.ProjectId,Homematic-6Button-Flush,486f6d65-6d61-4746-9963-2d3642757474,rev?*%
%TF.SameCoordinates,Original*%
%TF.FileFunction,AssemblyDrawing,Bot*%
%FSLAX46Y46*%
G04 Gerber Fmt 4.6, Leading zero omitted, Abs format (unit mm)*
G04 Created by KiCad (PCBNEW 10.0.4) date 2026-07-28 11:01:35*
%MOMM*%
%LPD*%
G01*
G04 APERTURE LIST*
%ADD10C,0.150000*%
%ADD11C,0.060000*%
%ADD12C,0.080000*%
%ADD13C,0.100000*%
G04 APERTURE END LIST*
D10*
X5024819Y-4452380D02*
X5024819Y-3880952D01*
X5024819Y-4166666D02*
X4024819Y-4166666D01*
X4024819Y-4166666D02*
X4167676Y-4071428D01*
X4167676Y-4071428D02*
X4262914Y-3976190D01*
X4262914Y-3976190D02*
X4310533Y-3880952D01*
X4024819Y-5071428D02*
X4024819Y-5166666D01*
X4024819Y-5166666D02*
X4072438Y-5261904D01*
X4072438Y-5261904D02*
X4120057Y-5309523D01*
X4120057Y-5309523D02*
X4215295Y-5357142D01*
X4215295Y-5357142D02*
X4405771Y-5404761D01*
X4405771Y-5404761D02*
X4643866Y-5404761D01*
X4643866Y-5404761D02*
X4834342Y-5357142D01*
X4834342Y-5357142D02*
X4929580Y-5309523D01*
X4929580Y-5309523D02*
X4977200Y-5261904D01*
X4977200Y-5261904D02*
X5024819Y-5166666D01*
X5024819Y-5166666D02*
X5024819Y-5071428D01*
X5024819Y-5071428D02*
X4977200Y-4976190D01*
X4977200Y-4976190D02*
X4929580Y-4928571D01*
X4929580Y-4928571D02*
X4834342Y-4880952D01*
X4834342Y-4880952D02*
X4643866Y-4833333D01*
X4643866Y-4833333D02*
X4405771Y-4833333D01*
X4405771Y-4833333D02*
X4215295Y-4880952D01*
X4215295Y-4880952D02*
X4120057Y-4928571D01*
X4120057Y-4928571D02*
X4072438Y-4976190D01*
X4072438Y-4976190D02*
X4024819Y-5071428D01*
X4024819Y-6023809D02*
X4024819Y-6119047D01*
X4024819Y-6119047D02*
X4072438Y-6214285D01*
X4072438Y-6214285D02*
X4120057Y-6261904D01*
X4120057Y-6261904D02*
X4215295Y-6309523D01*
X4215295Y-6309523D02*
X4405771Y-6357142D01*
X4405771Y-6357142D02*
X4643866Y-6357142D01*
X4643866Y-6357142D02*
X4834342Y-6309523D01*
X4834342Y-6309523D02*
X4929580Y-6261904D01*
X4929580Y-6261904D02*
X4977200Y-6214285D01*
X4977200Y-6214285D02*
X5024819Y-6119047D01*
X5024819Y-6119047D02*
X5024819Y-6023809D01*
X5024819Y-6023809D02*
X4977200Y-5928571D01*
X4977200Y-5928571D02*
X4929580Y-5880952D01*
X4929580Y-5880952D02*
X4834342Y-5833333D01*
X4834342Y-5833333D02*
X4643866Y-5785714D01*
X4643866Y-5785714D02*
X4405771Y-5785714D01*
X4405771Y-5785714D02*
X4215295Y-5833333D01*
X4215295Y-5833333D02*
X4120057Y-5880952D01*
X4120057Y-5880952D02*
X4072438Y-5928571D01*
X4072438Y-5928571D02*
X4024819Y-6023809D01*
X4358152Y-6785714D02*
X5024819Y-6785714D01*
X4453390Y-6785714D02*
X4405771Y-6833333D01*
X4405771Y-6833333D02*
X4358152Y-6928571D01*
X4358152Y-6928571D02*
X4358152Y-7071428D01*
X4358152Y-7071428D02*
X4405771Y-7166666D01*
X4405771Y-7166666D02*
X4501009Y-7214285D01*
X4501009Y-7214285D02*
X5024819Y-7214285D01*
X4501009Y-8023809D02*
X4501009Y-7690476D01*
X5024819Y-7690476D02*
X4024819Y-7690476D01*
X4024819Y-7690476D02*
X4024819Y-8166666D01*
D11*
X6143832Y-5933333D02*
X6162880Y-5914285D01*
X6162880Y-5914285D02*
X6181927Y-5857143D01*
X6181927Y-5857143D02*
X6181927Y-5819047D01*
X6181927Y-5819047D02*
X6162880Y-5761904D01*
X6162880Y-5761904D02*
X6124784Y-5723809D01*
X6124784Y-5723809D02*
X6086689Y-5704762D01*
X6086689Y-5704762D02*
X6010499Y-5685714D01*
X6010499Y-5685714D02*
X5953356Y-5685714D01*
X5953356Y-5685714D02*
X5877165Y-5704762D01*
X5877165Y-5704762D02*
X5839070Y-5723809D01*
X5839070Y-5723809D02*
X5800975Y-5761904D01*
X5800975Y-5761904D02*
X5781927Y-5819047D01*
X5781927Y-5819047D02*
X5781927Y-5857143D01*
X5781927Y-5857143D02*
X5800975Y-5914285D01*
X5800975Y-5914285D02*
X5820022Y-5933333D01*
X6181927Y-6314285D02*
X6181927Y-6085714D01*
X6181927Y-6200000D02*
X5781927Y-6200000D01*
X5781927Y-6200000D02*
X5839070Y-6161904D01*
X5839070Y-6161904D02*
X5877165Y-6123809D01*
X5877165Y-6123809D02*
X5896213Y-6085714D01*
D10*
X2095238Y-359580D02*
X2142857Y-407200D01*
X2142857Y-407200D02*
X2285714Y-454819D01*
X2285714Y-454819D02*
X2380952Y-454819D01*
X2380952Y-454819D02*
X2523809Y-407200D01*
X2523809Y-407200D02*
X2619047Y-311961D01*
X2619047Y-311961D02*
X2666666Y-216723D01*
X2666666Y-216723D02*
X2714285Y-26247D01*
X2714285Y-26247D02*
X2714285Y116609D01*
X2714285Y116609D02*
X2666666Y307085D01*
X2666666Y307085D02*
X2619047Y402323D01*
X2619047Y402323D02*
X2523809Y497561D01*
X2523809Y497561D02*
X2380952Y545180D01*
X2380952Y545180D02*
X2285714Y545180D01*
X2285714Y545180D02*
X2142857Y497561D01*
X2142857Y497561D02*
X2095238Y449942D01*
X1095238Y-454819D02*
X1428571Y21371D01*
X1666666Y-454819D02*
X1666666Y545180D01*
X1666666Y545180D02*
X1285714Y545180D01*
X1285714Y545180D02*
X1190476Y497561D01*
X1190476Y497561D02*
X1142857Y449942D01*
X1142857Y449942D02*
X1095238Y354704D01*
X1095238Y354704D02*
X1095238Y211847D01*
X1095238Y211847D02*
X1142857Y116609D01*
X1142857Y116609D02*
X1190476Y68990D01*
X1190476Y68990D02*
X1285714Y21371D01*
X1285714Y21371D02*
X1666666Y21371D01*
X714285Y449942D02*
X666666Y497561D01*
X666666Y497561D02*
X571428Y545180D01*
X571428Y545180D02*
X333333Y545180D01*
X333333Y545180D02*
X238095Y497561D01*
X238095Y497561D02*
X190476Y449942D01*
X190476Y449942D02*
X142857Y354704D01*
X142857Y354704D02*
X142857Y259466D01*
X142857Y259466D02*
X190476Y116609D01*
X190476Y116609D02*
X761904Y-454819D01*
X761904Y-454819D02*
X142857Y-454819D01*
X-476190Y545180D02*
X-571428Y545180D01*
X-571428Y545180D02*
X-666666Y497561D01*
X-666666Y497561D02*
X-714285Y449942D01*
X-714285Y449942D02*
X-761904Y354704D01*
X-761904Y354704D02*
X-809523Y164228D01*
X-809523Y164228D02*
X-809523Y-73866D01*
X-809523Y-73866D02*
X-761904Y-264342D01*
X-761904Y-264342D02*
X-714285Y-359580D01*
X-714285Y-359580D02*
X-666666Y-407200D01*
X-666666Y-407200D02*
X-571428Y-454819D01*
X-571428Y-454819D02*
X-476190Y-454819D01*
X-476190Y-454819D02*
X-380952Y-407200D01*
X-380952Y-407200D02*
X-333333Y-359580D01*
X-333333Y-359580D02*
X-285714Y-264342D01*
X-285714Y-264342D02*
X-238095Y-73866D01*
X-238095Y-73866D02*
X-238095Y164228D01*
X-238095Y164228D02*
X-285714Y354704D01*
X-285714Y354704D02*
X-333333Y449942D01*
X-333333Y449942D02*
X-380952Y497561D01*
X-380952Y497561D02*
X-476190Y545180D01*
X-1142857Y545180D02*
X-1761904Y545180D01*
X-1761904Y545180D02*
X-1428571Y164228D01*
X-1428571Y164228D02*
X-1571428Y164228D01*
X-1571428Y164228D02*
X-1666666Y116609D01*
X-1666666Y116609D02*
X-1714285Y68990D01*
X-1714285Y68990D02*
X-1761904Y-26247D01*
X-1761904Y-26247D02*
X-1761904Y-264342D01*
X-1761904Y-264342D02*
X-1714285Y-359580D01*
X-1714285Y-359580D02*
X-1666666Y-407200D01*
X-1666666Y-407200D02*
X-1571428Y-454819D01*
X-1571428Y-454819D02*
X-1285714Y-454819D01*
X-1285714Y-454819D02*
X-1190476Y-407200D01*
X-1190476Y-407200D02*
X-1142857Y-359580D01*
X-2142857Y449942D02*
X-2190476Y497561D01*
X-2190476Y497561D02*
X-2285714Y545180D01*
X-2285714Y545180D02*
X-2523809Y545180D01*
X-2523809Y545180D02*
X-2619047Y497561D01*
X-2619047Y497561D02*
X-2666666Y449942D01*
X-2666666Y449942D02*
X-2714285Y354704D01*
X-2714285Y354704D02*
X-2714285Y259466D01*
X-2714285Y259466D02*
X-2666666Y116609D01*
X-2666666Y116609D02*
X-2095238Y-454819D01*
X-2095238Y-454819D02*
X-2714285Y-454819D01*
X-8364285Y20768990D02*
X-8507142Y20721371D01*
X-8507142Y20721371D02*
X-8554761Y20673752D01*
X-8554761Y20673752D02*
X-8602380Y20578514D01*
X-8602380Y20578514D02*
X-8602380Y20435657D01*
X-8602380Y20435657D02*
X-8554761Y20340419D01*
X-8554761Y20340419D02*
X-8507142Y20292800D01*
X-8507142Y20292800D02*
X-8411904Y20245180D01*
X-8411904Y20245180D02*
X-8030952Y20245180D01*
X-8030952Y20245180D02*
X-8030952Y21245180D01*
X-8030952Y21245180D02*
X-8364285Y21245180D01*
X-8364285Y21245180D02*
X-8459523Y21197561D01*
X-8459523Y21197561D02*
X-8507142Y21149942D01*
X-8507142Y21149942D02*
X-8554761Y21054704D01*
X-8554761Y21054704D02*
X-8554761Y20959466D01*
X-8554761Y20959466D02*
X-8507142Y20864228D01*
X-8507142Y20864228D02*
X-8459523Y20816609D01*
X-8459523Y20816609D02*
X-8364285Y20768990D01*
X-8364285Y20768990D02*
X-8030952Y20768990D01*
X-8888095Y21245180D02*
X-9459523Y21245180D01*
X-9173809Y20245180D02*
X-9173809Y21245180D01*
X-10316666Y20245180D02*
X-9745238Y20245180D01*
X-10030952Y20245180D02*
X-10030952Y21245180D01*
X-10030952Y21245180D02*
X-9935714Y21102323D01*
X-9935714Y21102323D02*
X-9840476Y21007085D01*
X-9840476Y21007085D02*
X-9745238Y20959466D01*
X-17242857Y15632800D02*
X-17385714Y15585180D01*
X-17385714Y15585180D02*
X-17623809Y15585180D01*
X-17623809Y15585180D02*
X-17719047Y15632800D01*
X-17719047Y15632800D02*
X-17766666Y15680419D01*
X-17766666Y15680419D02*
X-17814285Y15775657D01*
X-17814285Y15775657D02*
X-17814285Y15870895D01*
X-17814285Y15870895D02*
X-17766666Y15966133D01*
X-17766666Y15966133D02*
X-17719047Y16013752D01*
X-17719047Y16013752D02*
X-17623809Y16061371D01*
X-17623809Y16061371D02*
X-17433333Y16108990D01*
X-17433333Y16108990D02*
X-17338095Y16156609D01*
X-17338095Y16156609D02*
X-17290476Y16204228D01*
X-17290476Y16204228D02*
X-17242857Y16299466D01*
X-17242857Y16299466D02*
X-17242857Y16394704D01*
X-17242857Y16394704D02*
X-17290476Y16489942D01*
X-17290476Y16489942D02*
X-17338095Y16537561D01*
X-17338095Y16537561D02*
X-17433333Y16585180D01*
X-17433333Y16585180D02*
X-17671428Y16585180D01*
X-17671428Y16585180D02*
X-17814285Y16537561D01*
X-18147619Y16585180D02*
X-18385714Y15585180D01*
X-18385714Y15585180D02*
X-18576190Y16299466D01*
X-18576190Y16299466D02*
X-18766666Y15585180D01*
X-18766666Y15585180D02*
X-19004762Y16585180D01*
X-19385714Y15585180D02*
X-19385714Y16585180D01*
X-19385714Y16585180D02*
X-19623809Y16585180D01*
X-19623809Y16585180D02*
X-19766666Y16537561D01*
X-19766666Y16537561D02*
X-19861904Y16442323D01*
X-19861904Y16442323D02*
X-19909523Y16347085D01*
X-19909523Y16347085D02*
X-19957142Y16156609D01*
X-19957142Y16156609D02*
X-19957142Y16013752D01*
X-19957142Y16013752D02*
X-19909523Y15823276D01*
X-19909523Y15823276D02*
X-19861904Y15728038D01*
X-19861904Y15728038D02*
X-19766666Y15632800D01*
X-19766666Y15632800D02*
X-19623809Y15585180D01*
X-19623809Y15585180D02*
X-19385714Y15585180D01*
X-19145180Y10365714D02*
X-18430895Y10365714D01*
X-18430895Y10365714D02*
X-18288038Y10413333D01*
X-18288038Y10413333D02*
X-18192800Y10508571D01*
X-18192800Y10508571D02*
X-18145180Y10651428D01*
X-18145180Y10651428D02*
X-18145180Y10746666D01*
X-18049942Y10127619D02*
X-18049942Y9365714D01*
X-18192800Y9175237D02*
X-18145180Y9032380D01*
X-18145180Y9032380D02*
X-18145180Y8794285D01*
X-18145180Y8794285D02*
X-18192800Y8699047D01*
X-18192800Y8699047D02*
X-18240419Y8651428D01*
X-18240419Y8651428D02*
X-18335657Y8603809D01*
X-18335657Y8603809D02*
X-18430895Y8603809D01*
X-18430895Y8603809D02*
X-18526133Y8651428D01*
X-18526133Y8651428D02*
X-18573752Y8699047D01*
X-18573752Y8699047D02*
X-18621371Y8794285D01*
X-18621371Y8794285D02*
X-18668990Y8984761D01*
X-18668990Y8984761D02*
X-18716609Y9079999D01*
X-18716609Y9079999D02*
X-18764228Y9127618D01*
X-18764228Y9127618D02*
X-18859466Y9175237D01*
X-18859466Y9175237D02*
X-18954704Y9175237D01*
X-18954704Y9175237D02*
X-19049942Y9127618D01*
X-19049942Y9127618D02*
X-19097561Y9079999D01*
X-19097561Y9079999D02*
X-19145180Y8984761D01*
X-19145180Y8984761D02*
X-19145180Y8746666D01*
X-19145180Y8746666D02*
X-19097561Y8603809D01*
X-19145180Y8270475D02*
X-18145180Y8032380D01*
X-18145180Y8032380D02*
X-18859466Y7841904D01*
X-18859466Y7841904D02*
X-18145180Y7651428D01*
X-18145180Y7651428D02*
X-19145180Y7413333D01*
X-18145180Y7032380D02*
X-19145180Y7032380D01*
X-19145180Y7032380D02*
X-19145180Y6794285D01*
X-19145180Y6794285D02*
X-19097561Y6651428D01*
X-19097561Y6651428D02*
X-19002323Y6556190D01*
X-19002323Y6556190D02*
X-18907085Y6508571D01*
X-18907085Y6508571D02*
X-18716609Y6460952D01*
X-18716609Y6460952D02*
X-18573752Y6460952D01*
X-18573752Y6460952D02*
X-18383276Y6508571D01*
X-18383276Y6508571D02*
X-18288038Y6556190D01*
X-18288038Y6556190D02*
X-18192800Y6651428D01*
X-18192800Y6651428D02*
X-18145180Y6794285D01*
X-18145180Y6794285D02*
X-18145180Y7032380D01*
X5928571Y-10607200D02*
X5785714Y-10654819D01*
X5785714Y-10654819D02*
X5547619Y-10654819D01*
X5547619Y-10654819D02*
X5452381Y-10607200D01*
X5452381Y-10607200D02*
X5404762Y-10559580D01*
X5404762Y-10559580D02*
X5357143Y-10464342D01*
X5357143Y-10464342D02*
X5357143Y-10369104D01*
X5357143Y-10369104D02*
X5404762Y-10273866D01*
X5404762Y-10273866D02*
X5452381Y-10226247D01*
X5452381Y-10226247D02*
X5547619Y-10178628D01*
X5547619Y-10178628D02*
X5738095Y-10131009D01*
X5738095Y-10131009D02*
X5833333Y-10083390D01*
X5833333Y-10083390D02*
X5880952Y-10035771D01*
X5880952Y-10035771D02*
X5928571Y-9940533D01*
X5928571Y-9940533D02*
X5928571Y-9845295D01*
X5928571Y-9845295D02*
X5880952Y-9750057D01*
X5880952Y-9750057D02*
X5833333Y-9702438D01*
X5833333Y-9702438D02*
X5738095Y-9654819D01*
X5738095Y-9654819D02*
X5500000Y-9654819D01*
X5500000Y-9654819D02*
X5357143Y-9702438D01*
X5071428Y-9654819D02*
X4500000Y-9654819D01*
X4785714Y-10654819D02*
X4785714Y-9654819D01*
X4166666Y-10654819D02*
X4166666Y-9654819D01*
X4166666Y-9654819D02*
X3833333Y-10369104D01*
X3833333Y-10369104D02*
X3500000Y-9654819D01*
X3500000Y-9654819D02*
X3500000Y-10654819D01*
X3119047Y-9654819D02*
X2500000Y-9654819D01*
X2500000Y-9654819D02*
X2833333Y-10035771D01*
X2833333Y-10035771D02*
X2690476Y-10035771D01*
X2690476Y-10035771D02*
X2595238Y-10083390D01*
X2595238Y-10083390D02*
X2547619Y-10131009D01*
X2547619Y-10131009D02*
X2500000Y-10226247D01*
X2500000Y-10226247D02*
X2500000Y-10464342D01*
X2500000Y-10464342D02*
X2547619Y-10559580D01*
X2547619Y-10559580D02*
X2595238Y-10607200D01*
X2595238Y-10607200D02*
X2690476Y-10654819D01*
X2690476Y-10654819D02*
X2976190Y-10654819D01*
X2976190Y-10654819D02*
X3071428Y-10607200D01*
X3071428Y-10607200D02*
X3119047Y-10559580D01*
X2119047Y-9750057D02*
X2071428Y-9702438D01*
X2071428Y-9702438D02*
X1976190Y-9654819D01*
X1976190Y-9654819D02*
X1738095Y-9654819D01*
X1738095Y-9654819D02*
X1642857Y-9702438D01*
X1642857Y-9702438D02*
X1595238Y-9750057D01*
X1595238Y-9750057D02*
X1547619Y-9845295D01*
X1547619Y-9845295D02*
X1547619Y-9940533D01*
X1547619Y-9940533D02*
X1595238Y-10083390D01*
X1595238Y-10083390D02*
X2166666Y-10654819D01*
X2166666Y-10654819D02*
X1547619Y-10654819D01*
X595238Y-9702438D02*
X690476Y-9654819D01*
X690476Y-9654819D02*
X833333Y-9654819D01*
X833333Y-9654819D02*
X976190Y-9702438D01*
X976190Y-9702438D02*
X1071428Y-9797676D01*
X1071428Y-9797676D02*
X1119047Y-9892914D01*
X1119047Y-9892914D02*
X1166666Y-10083390D01*
X1166666Y-10083390D02*
X1166666Y-10226247D01*
X1166666Y-10226247D02*
X1119047Y-10416723D01*
X1119047Y-10416723D02*
X1071428Y-10511961D01*
X1071428Y-10511961D02*
X976190Y-10607200D01*
X976190Y-10607200D02*
X833333Y-10654819D01*
X833333Y-10654819D02*
X738095Y-10654819D01*
X738095Y-10654819D02*
X595238Y-10607200D01*
X595238Y-10607200D02*
X547619Y-10559580D01*
X547619Y-10559580D02*
X547619Y-10226247D01*
X547619Y-10226247D02*
X738095Y-10226247D01*
X-71428Y-9654819D02*
X-166666Y-9654819D01*
X-166666Y-9654819D02*
X-261904Y-9702438D01*
X-261904Y-9702438D02*
X-309523Y-9750057D01*
X-309523Y-9750057D02*
X-357142Y-9845295D01*
X-357142Y-9845295D02*
X-404761Y-10035771D01*
X-404761Y-10035771D02*
X-404761Y-10273866D01*
X-404761Y-10273866D02*
X-357142Y-10464342D01*
X-357142Y-10464342D02*
X-309523Y-10559580D01*
X-309523Y-10559580D02*
X-261904Y-10607200D01*
X-261904Y-10607200D02*
X-166666Y-10654819D01*
X-166666Y-10654819D02*
X-71428Y-10654819D01*
X-71428Y-10654819D02*
X23809Y-10607200D01*
X23809Y-10607200D02*
X71428Y-10559580D01*
X71428Y-10559580D02*
X119047Y-10464342D01*
X119047Y-10464342D02*
X166666Y-10273866D01*
X166666Y-10273866D02*
X166666Y-10035771D01*
X166666Y-10035771D02*
X119047Y-9845295D01*
X119047Y-9845295D02*
X71428Y-9750057D01*
X71428Y-9750057D02*
X23809Y-9702438D01*
X23809Y-9702438D02*
X-71428Y-9654819D01*
X-738095Y-9654819D02*
X-1357142Y-9654819D01*
X-1357142Y-9654819D02*
X-1023809Y-10035771D01*
X-1023809Y-10035771D02*
X-1166666Y-10035771D01*
X-1166666Y-10035771D02*
X-1261904Y-10083390D01*
X-1261904Y-10083390D02*
X-1309523Y-10131009D01*
X-1309523Y-10131009D02*
X-1357142Y-10226247D01*
X-1357142Y-10226247D02*
X-1357142Y-10464342D01*
X-1357142Y-10464342D02*
X-1309523Y-10559580D01*
X-1309523Y-10559580D02*
X-1261904Y-10607200D01*
X-1261904Y-10607200D02*
X-1166666Y-10654819D01*
X-1166666Y-10654819D02*
X-880952Y-10654819D01*
X-880952Y-10654819D02*
X-785714Y-10607200D01*
X-785714Y-10607200D02*
X-738095Y-10559580D01*
X-1976190Y-9654819D02*
X-2071428Y-9654819D01*
X-2071428Y-9654819D02*
X-2166666Y-9702438D01*
X-2166666Y-9702438D02*
X-2214285Y-9750057D01*
X-2214285Y-9750057D02*
X-2261904Y-9845295D01*
X-2261904Y-9845295D02*
X-2309523Y-10035771D01*
X-2309523Y-10035771D02*
X-2309523Y-10273866D01*
X-2309523Y-10273866D02*
X-2261904Y-10464342D01*
X-2261904Y-10464342D02*
X-2214285Y-10559580D01*
X-2214285Y-10559580D02*
X-2166666Y-10607200D01*
X-2166666Y-10607200D02*
X-2071428Y-10654819D01*
X-2071428Y-10654819D02*
X-1976190Y-10654819D01*
X-1976190Y-10654819D02*
X-1880952Y-10607200D01*
X-1880952Y-10607200D02*
X-1833333Y-10559580D01*
X-1833333Y-10559580D02*
X-1785714Y-10464342D01*
X-1785714Y-10464342D02*
X-1738095Y-10273866D01*
X-1738095Y-10273866D02*
X-1738095Y-10035771D01*
X-1738095Y-10035771D02*
X-1785714Y-9845295D01*
X-1785714Y-9845295D02*
X-1833333Y-9750057D01*
X-1833333Y-9750057D02*
X-1880952Y-9702438D01*
X-1880952Y-9702438D02*
X-1976190Y-9654819D01*
X-3071428Y-10131009D02*
X-2738095Y-10131009D01*
X-2738095Y-10654819D02*
X-2738095Y-9654819D01*
X-2738095Y-9654819D02*
X-3214285Y-9654819D01*
X-4023809Y-9654819D02*
X-3833333Y-9654819D01*
X-3833333Y-9654819D02*
X-3738095Y-9702438D01*
X-3738095Y-9702438D02*
X-3690476Y-9750057D01*
X-3690476Y-9750057D02*
X-3595238Y-9892914D01*
X-3595238Y-9892914D02*
X-3547619Y-10083390D01*
X-3547619Y-10083390D02*
X-3547619Y-10464342D01*
X-3547619Y-10464342D02*
X-3595238Y-10559580D01*
X-3595238Y-10559580D02*
X-3642857Y-10607200D01*
X-3642857Y-10607200D02*
X-3738095Y-10654819D01*
X-3738095Y-10654819D02*
X-3928571Y-10654819D01*
X-3928571Y-10654819D02*
X-4023809Y-10607200D01*
X-4023809Y-10607200D02*
X-4071428Y-10559580D01*
X-4071428Y-10559580D02*
X-4119047Y-10464342D01*
X-4119047Y-10464342D02*
X-4119047Y-10226247D01*
X-4119047Y-10226247D02*
X-4071428Y-10131009D01*
X-4071428Y-10131009D02*
X-4023809Y-10083390D01*
X-4023809Y-10083390D02*
X-3928571Y-10035771D01*
X-3928571Y-10035771D02*
X-3738095Y-10035771D01*
X-3738095Y-10035771D02*
X-3642857Y-10083390D01*
X-3642857Y-10083390D02*
X-3595238Y-10131009D01*
X-3595238Y-10131009D02*
X-3547619Y-10226247D01*
X-4547619Y-10654819D02*
X-4547619Y-9654819D01*
X-4547619Y-9654819D02*
X-4928571Y-9654819D01*
X-4928571Y-9654819D02*
X-5023809Y-9702438D01*
X-5023809Y-9702438D02*
X-5071428Y-9750057D01*
X-5071428Y-9750057D02*
X-5119047Y-9845295D01*
X-5119047Y-9845295D02*
X-5119047Y-9988152D01*
X-5119047Y-9988152D02*
X-5071428Y-10083390D01*
X-5071428Y-10083390D02*
X-5023809Y-10131009D01*
X-5023809Y-10131009D02*
X-4928571Y-10178628D01*
X-4928571Y-10178628D02*
X-4547619Y-10178628D01*
X-5452381Y-10654819D02*
X-5976190Y-9988152D01*
X-5452381Y-9988152D02*
X-5976190Y-10654819D01*
X761904Y-5454819D02*
X761904Y-6264342D01*
X761904Y-6264342D02*
X714285Y-6359580D01*
X714285Y-6359580D02*
X666666Y-6407200D01*
X666666Y-6407200D02*
X571428Y-6454819D01*
X571428Y-6454819D02*
X380952Y-6454819D01*
X380952Y-6454819D02*
X285714Y-6407200D01*
X285714Y-6407200D02*
X238095Y-6359580D01*
X238095Y-6359580D02*
X190476Y-6264342D01*
X190476Y-6264342D02*
X190476Y-5454819D01*
X-809523Y-6454819D02*
X-238095Y-6454819D01*
X-523809Y-6454819D02*
X-523809Y-5454819D01*
X-523809Y-5454819D02*
X-428571Y-5597676D01*
X-428571Y-5597676D02*
X-333333Y-5692914D01*
X-333333Y-5692914D02*
X-238095Y-5740533D01*
X9119047Y-12884819D02*
X9690475Y-12884819D01*
X9404761Y-12884819D02*
X9404761Y-11884819D01*
X9404761Y-11884819D02*
X9499999Y-12027676D01*
X9499999Y-12027676D02*
X9595237Y-12122914D01*
X9595237Y-12122914D02*
X9690475Y-12170533D01*
X8690475Y-12884819D02*
X8690475Y-11884819D01*
X8595237Y-12503866D02*
X8309523Y-12884819D01*
X8309523Y-12218152D02*
X8690475Y-12599104D01*
D11*
X9571428Y-11181927D02*
X9704761Y-10991451D01*
X9799999Y-11181927D02*
X9799999Y-10781927D01*
X9799999Y-10781927D02*
X9647618Y-10781927D01*
X9647618Y-10781927D02*
X9609523Y-10800975D01*
X9609523Y-10800975D02*
X9590476Y-10820022D01*
X9590476Y-10820022D02*
X9571428Y-10858118D01*
X9571428Y-10858118D02*
X9571428Y-10915260D01*
X9571428Y-10915260D02*
X9590476Y-10953356D01*
X9590476Y-10953356D02*
X9609523Y-10972403D01*
X9609523Y-10972403D02*
X9647618Y-10991451D01*
X9647618Y-10991451D02*
X9799999Y-10991451D01*
X9495238Y-11220022D02*
X9190476Y-11220022D01*
X8904761Y-11181927D02*
X9095237Y-11181927D01*
X9095237Y-11181927D02*
X9095237Y-10781927D01*
X8771427Y-10972403D02*
X8638094Y-10972403D01*
X8580951Y-11181927D02*
X8771427Y-11181927D01*
X8771427Y-11181927D02*
X8771427Y-10781927D01*
X8771427Y-10781927D02*
X8580951Y-10781927D01*
X8409522Y-11181927D02*
X8409522Y-10781927D01*
X8409522Y-10781927D02*
X8314284Y-10781927D01*
X8314284Y-10781927D02*
X8257141Y-10800975D01*
X8257141Y-10800975D02*
X8219046Y-10839070D01*
X8219046Y-10839070D02*
X8199999Y-10877165D01*
X8199999Y-10877165D02*
X8180951Y-10953356D01*
X8180951Y-10953356D02*
X8180951Y-11010499D01*
X8180951Y-11010499D02*
X8199999Y-11086689D01*
X8199999Y-11086689D02*
X8219046Y-11124784D01*
X8219046Y-11124784D02*
X8257141Y-11162880D01*
X8257141Y-11162880D02*
X8314284Y-11181927D01*
X8314284Y-11181927D02*
X8409522Y-11181927D01*
D10*
X-10800419Y-13104761D02*
X-10752800Y-13057142D01*
X-10752800Y-13057142D02*
X-10705180Y-12914285D01*
X-10705180Y-12914285D02*
X-10705180Y-12819047D01*
X-10705180Y-12819047D02*
X-10752800Y-12676190D01*
X-10752800Y-12676190D02*
X-10848038Y-12580952D01*
X-10848038Y-12580952D02*
X-10943276Y-12533333D01*
X-10943276Y-12533333D02*
X-11133752Y-12485714D01*
X-11133752Y-12485714D02*
X-11276609Y-12485714D01*
X-11276609Y-12485714D02*
X-11467085Y-12533333D01*
X-11467085Y-12533333D02*
X-11562323Y-12580952D01*
X-11562323Y-12580952D02*
X-11657561Y-12676190D01*
X-11657561Y-12676190D02*
X-11705180Y-12819047D01*
X-11705180Y-12819047D02*
X-11705180Y-12914285D01*
X-11705180Y-12914285D02*
X-11657561Y-13057142D01*
X-11657561Y-13057142D02*
X-11609942Y-13104761D01*
X-10800419Y-14104761D02*
X-10752800Y-14057142D01*
X-10752800Y-14057142D02*
X-10705180Y-13914285D01*
X-10705180Y-13914285D02*
X-10705180Y-13819047D01*
X-10705180Y-13819047D02*
X-10752800Y-13676190D01*
X-10752800Y-13676190D02*
X-10848038Y-13580952D01*
X-10848038Y-13580952D02*
X-10943276Y-13533333D01*
X-10943276Y-13533333D02*
X-11133752Y-13485714D01*
X-11133752Y-13485714D02*
X-11276609Y-13485714D01*
X-11276609Y-13485714D02*
X-11467085Y-13533333D01*
X-11467085Y-13533333D02*
X-11562323Y-13580952D01*
X-11562323Y-13580952D02*
X-11657561Y-13676190D01*
X-11657561Y-13676190D02*
X-11705180Y-13819047D01*
X-11705180Y-13819047D02*
X-11705180Y-13914285D01*
X-11705180Y-13914285D02*
X-11657561Y-14057142D01*
X-11657561Y-14057142D02*
X-11609942Y-14104761D01*
X-10705180Y-15057142D02*
X-10705180Y-14485714D01*
X-10705180Y-14771428D02*
X-11705180Y-14771428D01*
X-11705180Y-14771428D02*
X-11562323Y-14676190D01*
X-11562323Y-14676190D02*
X-11467085Y-14580952D01*
X-11467085Y-14580952D02*
X-11419466Y-14485714D01*
X-10705180Y-16009523D02*
X-10705180Y-15438095D01*
X-10705180Y-15723809D02*
X-11705180Y-15723809D01*
X-11705180Y-15723809D02*
X-11562323Y-15628571D01*
X-11562323Y-15628571D02*
X-11467085Y-15533333D01*
X-11467085Y-15533333D02*
X-11419466Y-15438095D01*
X-11705180Y-16628571D02*
X-11705180Y-16723809D01*
X-11705180Y-16723809D02*
X-11657561Y-16819047D01*
X-11657561Y-16819047D02*
X-11609942Y-16866666D01*
X-11609942Y-16866666D02*
X-11514704Y-16914285D01*
X-11514704Y-16914285D02*
X-11324228Y-16961904D01*
X-11324228Y-16961904D02*
X-11086133Y-16961904D01*
X-11086133Y-16961904D02*
X-10895657Y-16914285D01*
X-10895657Y-16914285D02*
X-10800419Y-16866666D01*
X-10800419Y-16866666D02*
X-10752800Y-16819047D01*
X-10752800Y-16819047D02*
X-10705180Y-16723809D01*
X-10705180Y-16723809D02*
X-10705180Y-16628571D01*
X-10705180Y-16628571D02*
X-10752800Y-16533333D01*
X-10752800Y-16533333D02*
X-10800419Y-16485714D01*
X-10800419Y-16485714D02*
X-10895657Y-16438095D01*
X-10895657Y-16438095D02*
X-11086133Y-16390476D01*
X-11086133Y-16390476D02*
X-11324228Y-16390476D01*
X-11324228Y-16390476D02*
X-11514704Y-16438095D01*
X-11514704Y-16438095D02*
X-11609942Y-16485714D01*
X-11609942Y-16485714D02*
X-11657561Y-16533333D01*
X-11657561Y-16533333D02*
X-11705180Y-16628571D01*
X-10705180Y-17914285D02*
X-10705180Y-17342857D01*
X-10705180Y-17628571D02*
X-11705180Y-17628571D01*
X-11705180Y-17628571D02*
X-11562323Y-17533333D01*
X-11562323Y-17533333D02*
X-11467085Y-17438095D01*
X-11467085Y-17438095D02*
X-11419466Y-17342857D01*
X1276666Y-14654819D02*
X1276666Y-15369104D01*
X1276666Y-15369104D02*
X1324285Y-15511961D01*
X1324285Y-15511961D02*
X1419523Y-15607200D01*
X1419523Y-15607200D02*
X1562380Y-15654819D01*
X1562380Y-15654819D02*
X1657618Y-15654819D01*
X1038571Y-15750057D02*
X276666Y-15750057D01*
X-532857Y-15654819D02*
X-199524Y-15178628D01*
X38570Y-15654819D02*
X38570Y-14654819D01*
X38570Y-14654819D02*
X-342381Y-14654819D01*
X-342381Y-14654819D02*
X-437619Y-14702438D01*
X-437619Y-14702438D02*
X-485238Y-14750057D01*
X-485238Y-14750057D02*
X-532857Y-14845295D01*
X-532857Y-14845295D02*
X-532857Y-14988152D01*
X-532857Y-14988152D02*
X-485238Y-15083390D01*
X-485238Y-15083390D02*
X-437619Y-15131009D01*
X-437619Y-15131009D02*
X-342381Y-15178628D01*
X-342381Y-15178628D02*
X38570Y-15178628D01*
X-1294762Y-15131009D02*
X-961429Y-15131009D01*
X-961429Y-15654819D02*
X-961429Y-14654819D01*
X-961429Y-14654819D02*
X-1437619Y-14654819D01*
X13071428Y-5134819D02*
X13642856Y-5134819D01*
X13357142Y-5134819D02*
X13357142Y-4134819D01*
X13357142Y-4134819D02*
X13452380Y-4277676D01*
X13452380Y-4277676D02*
X13547618Y-4372914D01*
X13547618Y-4372914D02*
X13642856Y-4420533D01*
X12452380Y-4134819D02*
X12357142Y-4134819D01*
X12357142Y-4134819D02*
X12261904Y-4182438D01*
X12261904Y-4182438D02*
X12214285Y-4230057D01*
X12214285Y-4230057D02*
X12166666Y-4325295D01*
X12166666Y-4325295D02*
X12119047Y-4515771D01*
X12119047Y-4515771D02*
X12119047Y-4753866D01*
X12119047Y-4753866D02*
X12166666Y-4944342D01*
X12166666Y-4944342D02*
X12214285Y-5039580D01*
X12214285Y-5039580D02*
X12261904Y-5087200D01*
X12261904Y-5087200D02*
X12357142Y-5134819D01*
X12357142Y-5134819D02*
X12452380Y-5134819D01*
X12452380Y-5134819D02*
X12547618Y-5087200D01*
X12547618Y-5087200D02*
X12595237Y-5039580D01*
X12595237Y-5039580D02*
X12642856Y-4944342D01*
X12642856Y-4944342D02*
X12690475Y-4753866D01*
X12690475Y-4753866D02*
X12690475Y-4515771D01*
X12690475Y-4515771D02*
X12642856Y-4325295D01*
X12642856Y-4325295D02*
X12595237Y-4230057D01*
X12595237Y-4230057D02*
X12547618Y-4182438D01*
X12547618Y-4182438D02*
X12452380Y-4134819D01*
X11261904Y-4468152D02*
X11261904Y-5134819D01*
X11690475Y-4468152D02*
X11690475Y-4991961D01*
X11690475Y-4991961D02*
X11642856Y-5087200D01*
X11642856Y-5087200D02*
X11547618Y-5134819D01*
X11547618Y-5134819D02*
X11404761Y-5134819D01*
X11404761Y-5134819D02*
X11309523Y-5087200D01*
X11309523Y-5087200D02*
X11261904Y-5039580D01*
X10452380Y-4611009D02*
X10785713Y-4611009D01*
X10785713Y-5134819D02*
X10785713Y-4134819D01*
X10785713Y-4134819D02*
X10309523Y-4134819D01*
D12*
X12083333Y-3179530D02*
X12107142Y-3203340D01*
X12107142Y-3203340D02*
X12178571Y-3227149D01*
X12178571Y-3227149D02*
X12226190Y-3227149D01*
X12226190Y-3227149D02*
X12297618Y-3203340D01*
X12297618Y-3203340D02*
X12345237Y-3155720D01*
X12345237Y-3155720D02*
X12369047Y-3108101D01*
X12369047Y-3108101D02*
X12392856Y-3012863D01*
X12392856Y-3012863D02*
X12392856Y-2941435D01*
X12392856Y-2941435D02*
X12369047Y-2846197D01*
X12369047Y-2846197D02*
X12345237Y-2798578D01*
X12345237Y-2798578D02*
X12297618Y-2750959D01*
X12297618Y-2750959D02*
X12226190Y-2727149D01*
X12226190Y-2727149D02*
X12178571Y-2727149D01*
X12178571Y-2727149D02*
X12107142Y-2750959D01*
X12107142Y-2750959D02*
X12083333Y-2774768D01*
X11916666Y-2727149D02*
X11607142Y-2727149D01*
X11607142Y-2727149D02*
X11773809Y-2917625D01*
X11773809Y-2917625D02*
X11702380Y-2917625D01*
X11702380Y-2917625D02*
X11654761Y-2941435D01*
X11654761Y-2941435D02*
X11630952Y-2965244D01*
X11630952Y-2965244D02*
X11607142Y-3012863D01*
X11607142Y-3012863D02*
X11607142Y-3131911D01*
X11607142Y-3131911D02*
X11630952Y-3179530D01*
X11630952Y-3179530D02*
X11654761Y-3203340D01*
X11654761Y-3203340D02*
X11702380Y-3227149D01*
X11702380Y-3227149D02*
X11845237Y-3227149D01*
X11845237Y-3227149D02*
X11892856Y-3203340D01*
X11892856Y-3203340D02*
X11916666Y-3179530D01*
D10*
X-6975180Y-4452380D02*
X-6975180Y-3880952D01*
X-6975180Y-4166666D02*
X-7975180Y-4166666D01*
X-7975180Y-4166666D02*
X-7832323Y-4071428D01*
X-7832323Y-4071428D02*
X-7737085Y-3976190D01*
X-7737085Y-3976190D02*
X-7689466Y-3880952D01*
X-7975180Y-5071428D02*
X-7975180Y-5166666D01*
X-7975180Y-5166666D02*
X-7927561Y-5261904D01*
X-7927561Y-5261904D02*
X-7879942Y-5309523D01*
X-7879942Y-5309523D02*
X-7784704Y-5357142D01*
X-7784704Y-5357142D02*
X-7594228Y-5404761D01*
X-7594228Y-5404761D02*
X-7356133Y-5404761D01*
X-7356133Y-5404761D02*
X-7165657Y-5357142D01*
X-7165657Y-5357142D02*
X-7070419Y-5309523D01*
X-7070419Y-5309523D02*
X-7022800Y-5261904D01*
X-7022800Y-5261904D02*
X-6975180Y-5166666D01*
X-6975180Y-5166666D02*
X-6975180Y-5071428D01*
X-6975180Y-5071428D02*
X-7022800Y-4976190D01*
X-7022800Y-4976190D02*
X-7070419Y-4928571D01*
X-7070419Y-4928571D02*
X-7165657Y-4880952D01*
X-7165657Y-4880952D02*
X-7356133Y-4833333D01*
X-7356133Y-4833333D02*
X-7594228Y-4833333D01*
X-7594228Y-4833333D02*
X-7784704Y-4880952D01*
X-7784704Y-4880952D02*
X-7879942Y-4928571D01*
X-7879942Y-4928571D02*
X-7927561Y-4976190D01*
X-7927561Y-4976190D02*
X-7975180Y-5071428D01*
X-7975180Y-6023809D02*
X-7975180Y-6119047D01*
X-7975180Y-6119047D02*
X-7927561Y-6214285D01*
X-7927561Y-6214285D02*
X-7879942Y-6261904D01*
X-7879942Y-6261904D02*
X-7784704Y-6309523D01*
X-7784704Y-6309523D02*
X-7594228Y-6357142D01*
X-7594228Y-6357142D02*
X-7356133Y-6357142D01*
X-7356133Y-6357142D02*
X-7165657Y-6309523D01*
X-7165657Y-6309523D02*
X-7070419Y-6261904D01*
X-7070419Y-6261904D02*
X-7022800Y-6214285D01*
X-7022800Y-6214285D02*
X-6975180Y-6119047D01*
X-6975180Y-6119047D02*
X-6975180Y-6023809D01*
X-6975180Y-6023809D02*
X-7022800Y-5928571D01*
X-7022800Y-5928571D02*
X-7070419Y-5880952D01*
X-7070419Y-5880952D02*
X-7165657Y-5833333D01*
X-7165657Y-5833333D02*
X-7356133Y-5785714D01*
X-7356133Y-5785714D02*
X-7594228Y-5785714D01*
X-7594228Y-5785714D02*
X-7784704Y-5833333D01*
X-7784704Y-5833333D02*
X-7879942Y-5880952D01*
X-7879942Y-5880952D02*
X-7927561Y-5928571D01*
X-7927561Y-5928571D02*
X-7975180Y-6023809D01*
X-7641847Y-6785714D02*
X-6975180Y-6785714D01*
X-7546609Y-6785714D02*
X-7594228Y-6833333D01*
X-7594228Y-6833333D02*
X-7641847Y-6928571D01*
X-7641847Y-6928571D02*
X-7641847Y-7071428D01*
X-7641847Y-7071428D02*
X-7594228Y-7166666D01*
X-7594228Y-7166666D02*
X-7498990Y-7214285D01*
X-7498990Y-7214285D02*
X-6975180Y-7214285D01*
X-7498990Y-8023809D02*
X-7498990Y-7690476D01*
X-6975180Y-7690476D02*
X-7975180Y-7690476D01*
X-7975180Y-7690476D02*
X-7975180Y-8166666D01*
D11*
X-5856167Y-5933333D02*
X-5837120Y-5914285D01*
X-5837120Y-5914285D02*
X-5818072Y-5857143D01*
X-5818072Y-5857143D02*
X-5818072Y-5819047D01*
X-5818072Y-5819047D02*
X-5837120Y-5761904D01*
X-5837120Y-5761904D02*
X-5875215Y-5723809D01*
X-5875215Y-5723809D02*
X-5913310Y-5704762D01*
X-5913310Y-5704762D02*
X-5989500Y-5685714D01*
X-5989500Y-5685714D02*
X-6046643Y-5685714D01*
X-6046643Y-5685714D02*
X-6122834Y-5704762D01*
X-6122834Y-5704762D02*
X-6160929Y-5723809D01*
X-6160929Y-5723809D02*
X-6199024Y-5761904D01*
X-6199024Y-5761904D02*
X-6218072Y-5819047D01*
X-6218072Y-5819047D02*
X-6218072Y-5857143D01*
X-6218072Y-5857143D02*
X-6199024Y-5914285D01*
X-6199024Y-5914285D02*
X-6179977Y-5933333D01*
X-6179977Y-6085714D02*
X-6199024Y-6104762D01*
X-6199024Y-6104762D02*
X-6218072Y-6142857D01*
X-6218072Y-6142857D02*
X-6218072Y-6238095D01*
X-6218072Y-6238095D02*
X-6199024Y-6276190D01*
X-6199024Y-6276190D02*
X-6179977Y-6295238D01*
X-6179977Y-6295238D02*
X-6141881Y-6314285D01*
X-6141881Y-6314285D02*
X-6103786Y-6314285D01*
X-6103786Y-6314285D02*
X-6046643Y-6295238D01*
X-6046643Y-6295238D02*
X-5818072Y-6066666D01*
X-5818072Y-6066666D02*
X-5818072Y-6314285D01*
D10*
X4738095Y-23219104D02*
X4261905Y-23219104D01*
X4833333Y-23504819D02*
X4500000Y-22504819D01*
X4500000Y-22504819D02*
X4166667Y-23504819D01*
X3833333Y-23504819D02*
X3833333Y-22504819D01*
X3833333Y-22504819D02*
X3261905Y-23504819D01*
X3261905Y-23504819D02*
X3261905Y-22504819D01*
X2928571Y-22504819D02*
X2357143Y-22504819D01*
X2642857Y-23504819D02*
X2642857Y-22504819D01*
X2261905Y-23600057D02*
X1500000Y-23600057D01*
X1119047Y-23504819D02*
X1214285Y-23457200D01*
X1214285Y-23457200D02*
X1261904Y-23361961D01*
X1261904Y-23361961D02*
X1261904Y-22504819D01*
X309523Y-23504819D02*
X309523Y-22981009D01*
X309523Y-22981009D02*
X357142Y-22885771D01*
X357142Y-22885771D02*
X452380Y-22838152D01*
X452380Y-22838152D02*
X642856Y-22838152D01*
X642856Y-22838152D02*
X738094Y-22885771D01*
X309523Y-23457200D02*
X404761Y-23504819D01*
X404761Y-23504819D02*
X642856Y-23504819D01*
X642856Y-23504819D02*
X738094Y-23457200D01*
X738094Y-23457200D02*
X785713Y-23361961D01*
X785713Y-23361961D02*
X785713Y-23266723D01*
X785713Y-23266723D02*
X738094Y-23171485D01*
X738094Y-23171485D02*
X642856Y-23123866D01*
X642856Y-23123866D02*
X404761Y-23123866D01*
X404761Y-23123866D02*
X309523Y-23076247D01*
X-166667Y-23504819D02*
X-166667Y-22838152D01*
X-166667Y-22933390D02*
X-214286Y-22885771D01*
X-214286Y-22885771D02*
X-309524Y-22838152D01*
X-309524Y-22838152D02*
X-452381Y-22838152D01*
X-452381Y-22838152D02*
X-547619Y-22885771D01*
X-547619Y-22885771D02*
X-595238Y-22981009D01*
X-595238Y-22981009D02*
X-595238Y-23504819D01*
X-595238Y-22981009D02*
X-642857Y-22885771D01*
X-642857Y-22885771D02*
X-738095Y-22838152D01*
X-738095Y-22838152D02*
X-880952Y-22838152D01*
X-880952Y-22838152D02*
X-976191Y-22885771D01*
X-976191Y-22885771D02*
X-1023810Y-22981009D01*
X-1023810Y-22981009D02*
X-1023810Y-23504819D01*
X-1500000Y-23504819D02*
X-1500000Y-22504819D01*
X-1500000Y-22885771D02*
X-1595238Y-22838152D01*
X-1595238Y-22838152D02*
X-1785714Y-22838152D01*
X-1785714Y-22838152D02*
X-1880952Y-22885771D01*
X-1880952Y-22885771D02*
X-1928571Y-22933390D01*
X-1928571Y-22933390D02*
X-1976190Y-23028628D01*
X-1976190Y-23028628D02*
X-1976190Y-23314342D01*
X-1976190Y-23314342D02*
X-1928571Y-23409580D01*
X-1928571Y-23409580D02*
X-1880952Y-23457200D01*
X-1880952Y-23457200D02*
X-1785714Y-23504819D01*
X-1785714Y-23504819D02*
X-1595238Y-23504819D01*
X-1595238Y-23504819D02*
X-1500000Y-23457200D01*
X-2833333Y-23504819D02*
X-2833333Y-22504819D01*
X-2833333Y-23457200D02*
X-2738095Y-23504819D01*
X-2738095Y-23504819D02*
X-2547619Y-23504819D01*
X-2547619Y-23504819D02*
X-2452381Y-23457200D01*
X-2452381Y-23457200D02*
X-2404762Y-23409580D01*
X-2404762Y-23409580D02*
X-2357143Y-23314342D01*
X-2357143Y-23314342D02*
X-2357143Y-23028628D01*
X-2357143Y-23028628D02*
X-2404762Y-22933390D01*
X-2404762Y-22933390D02*
X-2452381Y-22885771D01*
X-2452381Y-22885771D02*
X-2547619Y-22838152D01*
X-2547619Y-22838152D02*
X-2738095Y-22838152D01*
X-2738095Y-22838152D02*
X-2833333Y-22885771D01*
X-3738095Y-23504819D02*
X-3738095Y-22981009D01*
X-3738095Y-22981009D02*
X-3690476Y-22885771D01*
X-3690476Y-22885771D02*
X-3595238Y-22838152D01*
X-3595238Y-22838152D02*
X-3404762Y-22838152D01*
X-3404762Y-22838152D02*
X-3309524Y-22885771D01*
X-3738095Y-23457200D02*
X-3642857Y-23504819D01*
X-3642857Y-23504819D02*
X-3404762Y-23504819D01*
X-3404762Y-23504819D02*
X-3309524Y-23457200D01*
X-3309524Y-23457200D02*
X-3261905Y-23361961D01*
X-3261905Y-23361961D02*
X-3261905Y-23266723D01*
X-3261905Y-23266723D02*
X-3309524Y-23171485D01*
X-3309524Y-23171485D02*
X-3404762Y-23123866D01*
X-3404762Y-23123866D02*
X-3642857Y-23123866D01*
X-3642857Y-23123866D02*
X-3738095Y-23076247D01*
X-4642857Y-22838152D02*
X-4642857Y-23504819D01*
X-4404762Y-22457200D02*
X-4166667Y-23171485D01*
X-4166667Y-23171485D02*
X-4785714Y-23171485D01*
X1142856Y-19169104D02*
X666666Y-19169104D01*
X1238094Y-19454819D02*
X904761Y-18454819D01*
X904761Y-18454819D02*
X571428Y-19454819D01*
X238094Y-19454819D02*
X238094Y-18454819D01*
X238094Y-18454819D02*
X-333333Y-19454819D01*
X-333333Y-19454819D02*
X-333333Y-18454819D01*
X-666667Y-18454819D02*
X-1238095Y-18454819D01*
X-952381Y-19454819D02*
X-952381Y-18454819D01*
%TO.C,C1*%
D13*
X5600000Y-5200000D02*
X6400000Y-5200000D01*
X6400000Y-6800000D01*
X5600000Y-6800000D01*
X5600000Y-5200000D01*
%TO.C,BT1*%
X-15350000Y13550000D02*
X-10550000Y13550000D01*
X-15350000Y8450000D02*
X-15350000Y13550000D01*
X-15350000Y8450000D02*
X-10550000Y8450000D01*
X-10550000Y16850000D02*
X-3800000Y21600000D01*
X-10550000Y13550000D02*
X-10550000Y16850000D01*
X-10550000Y8450000D02*
X-10550000Y1700000D01*
X-3800000Y21600000D02*
X3800000Y21600000D01*
X10550000Y16900000D02*
X3800000Y21600000D01*
X10550000Y13550000D02*
X10550000Y16900000D01*
X10550000Y13550000D02*
X15350000Y13550000D01*
X10550000Y8450000D02*
X10550000Y1700000D01*
X10550000Y1700000D02*
X-10550000Y1700000D01*
X15350000Y13550000D02*
X15350000Y8450000D01*
X15350000Y8450000D02*
X10550000Y8450000D01*
%TO.C,J_SWD*%
X-19870000Y14930000D02*
X-19870000Y2865000D01*
X-19870000Y2865000D02*
X-19235000Y2230000D01*
X-19235000Y2230000D02*
X-17330000Y2230000D01*
X-17330000Y14930000D02*
X-19870000Y14930000D01*
X-17330000Y2230000D02*
X-17330000Y14930000D01*
%TO.C,U1*%
X1200000Y-2750000D02*
X-2200000Y-2750000D01*
X-2200000Y-9250000D01*
X2200000Y-9250000D01*
X2200000Y-3750000D01*
X1200000Y-2750000D01*
%TO.C,R_LED*%
X8200000Y-10587500D02*
X9800000Y-10587500D01*
X9800000Y-11412500D01*
X8200000Y-11412500D01*
X8200000Y-10587500D01*
%TO.C,J_RF*%
X-10050000Y-13930000D02*
X-10050000Y-16470000D01*
X-10050000Y-16470000D02*
X9635000Y-16470000D01*
X9635000Y-16470000D02*
X10270000Y-15835000D01*
X10270000Y-13930000D02*
X-10050000Y-13930000D01*
X10270000Y-15835000D02*
X10270000Y-13930000D01*
%TO.C,C3*%
X11000000Y-2375000D02*
X13000000Y-2375000D01*
X13000000Y-3625000D01*
X11000000Y-3625000D01*
X11000000Y-2375000D01*
%TO.C,C2*%
X-6400000Y-5200000D02*
X-5600000Y-5200000D01*
X-5600000Y-6800000D01*
X-6400000Y-6800000D01*
X-6400000Y-5200000D01*
%TD*%
M02*
