%TF.GenerationSoftware,KiCad,Pcbnew,10.0.4*%
%TF.CreationDate,2026-07-28T11:01:34+02:00*%
%TF.ProjectId,Homematic-6Button-Flush,486f6d65-6d61-4746-9963-2d3642757474,rev?*%
%TF.SameCoordinates,Original*%
%TF.FileFunction,Copper,L4,Bot*%
%TF.FilePolarity,Positive*%
%FSLAX46Y46*%
G04 Gerber Fmt 4.6, Leading zero omitted, Abs format (unit mm)*
G04 Created by KiCad (PCBNEW 10.0.4) date 2026-07-28 11:01:34*
%MOMM*%
%LPD*%
G01*
G04 APERTURE LIST*
G04 Aperture macros list*
%AMRoundRect*
0 Rectangle with rounded corners*
0 $1 Rounding radius*
0 $2 $3 $4 $5 $6 $7 $8 $9 X,Y pos of 4 corners*
0 Add a 4 corners polygon primitive as box body*
4,1,4,$2,$3,$4,$5,$6,$7,$8,$9,$2,$3,0*
0 Add four circle primitives for the rounded corners*
1,1,$1+$1,$2,$3*
1,1,$1+$1,$4,$5*
1,1,$1+$1,$6,$7*
1,1,$1+$1,$8,$9*
0 Add four rect primitives between the rounded corners*
20,1,$1+$1,$2,$3,$4,$5,0*
20,1,$1+$1,$4,$5,$6,$7,0*
20,1,$1+$1,$6,$7,$8,$9,0*
20,1,$1+$1,$8,$9,$2,$3,0*%
G04 Aperture macros list end*
%TA.AperFunction,SMDPad,CuDef*%
%ADD10RoundRect,0.225000X0.250000X-0.225000X0.250000X0.225000X-0.250000X0.225000X-0.250000X-0.225000X0*%
%TD*%
%TA.AperFunction,SMDPad,CuDef*%
%ADD11R,5.100000X5.100000*%
%TD*%
%TA.AperFunction,SMDPad,CuDef*%
%ADD12C,17.800000*%
%TD*%
%TA.AperFunction,ComponentPad*%
%ADD13R,1.700000X1.700000*%
%TD*%
%TA.AperFunction,ComponentPad*%
%ADD14C,1.700000*%
%TD*%
%TA.AperFunction,SMDPad,CuDef*%
%ADD15RoundRect,0.100000X0.637500X0.100000X-0.637500X0.100000X-0.637500X-0.100000X0.637500X-0.100000X0*%
%TD*%
%TA.AperFunction,SMDPad,CuDef*%
%ADD16RoundRect,0.200000X0.200000X0.275000X-0.200000X0.275000X-0.200000X-0.275000X0.200000X-0.275000X0*%
%TD*%
%TA.AperFunction,SMDPad,CuDef*%
%ADD17RoundRect,0.250000X0.250000X0.475000X-0.250000X0.475000X-0.250000X-0.475000X0.250000X-0.475000X0*%
%TD*%
%TA.AperFunction,SMDPad,CuDef*%
%ADD18C,2.000000*%
%TD*%
%TA.AperFunction,ViaPad*%
%ADD19C,0.600000*%
%TD*%
%TA.AperFunction,ViaPad*%
%ADD20C,0.400000*%
%TD*%
%TA.AperFunction,Conductor*%
%ADD21C,0.200000*%
%TD*%
G04 APERTURE END LIST*
D10*
%TO.P,C1,1*%
%TO.N,+3V0*%
X6000000Y-6775000D03*
%TO.P,C1,2*%
%TO.N,GND*%
X6000000Y-5225000D03*
%TD*%
D11*
%TO.P,BT1,1*%
%TO.N,+3V0*%
X-12800000Y11000000D03*
X12800000Y11000000D03*
D12*
%TO.P,BT1,2*%
%TO.N,GND*%
X0Y11000000D03*
%TD*%
D13*
%TO.P,J_SWD,1*%
%TO.N,+3V0*%
X-18600000Y3500000D03*
D14*
%TO.P,J_SWD,2*%
%TO.N,SWDIO*%
X-18600000Y6040000D03*
%TO.P,J_SWD,3*%
%TO.N,SWCLK*%
X-18600000Y8580000D03*
%TO.P,J_SWD,4*%
%TO.N,NRST*%
X-18600000Y11120000D03*
%TO.P,J_SWD,5*%
%TO.N,GND*%
X-18600000Y13660000D03*
%TD*%
D15*
%TO.P,U1,1*%
%TO.N,RF_GDO2*%
X2862500Y-3075000D03*
%TO.P,U1,2*%
%TO.N,N/C*%
X2862500Y-3725000D03*
%TO.P,U1,3*%
X2862500Y-4375000D03*
%TO.P,U1,4*%
%TO.N,+3V0*%
X2862500Y-5025000D03*
%TO.P,U1,5*%
%TO.N,GND*%
X2862500Y-5675000D03*
%TO.P,U1,6*%
%TO.N,NRST*%
X2862500Y-6325000D03*
%TO.P,U1,7*%
%TO.N,BTN1*%
X2862500Y-6975000D03*
%TO.P,U1,8*%
%TO.N,BTN2*%
X2862500Y-7625000D03*
%TO.P,U1,9*%
%TO.N,BTN3*%
X2862500Y-8275000D03*
%TO.P,U1,10*%
%TO.N,BTN4*%
X2862500Y-8925000D03*
%TO.P,U1,11*%
%TO.N,BTN5*%
X-2862500Y-8925000D03*
%TO.P,U1,12*%
%TO.N,BTN6*%
X-2862500Y-8275000D03*
%TO.P,U1,13*%
%TO.N,LED_CTRL*%
X-2862500Y-7625000D03*
%TO.P,U1,14*%
%TO.N,RF_CSN*%
X-2862500Y-6975000D03*
%TO.P,U1,15*%
%TO.N,SPI_SCK*%
X-2862500Y-6325000D03*
%TO.P,U1,16*%
%TO.N,SPI_MISO*%
X-2862500Y-5675000D03*
%TO.P,U1,17*%
%TO.N,RF_GDO0*%
X-2862500Y-5025000D03*
%TO.P,U1,18*%
%TO.N,SWDIO*%
X-2862500Y-4375000D03*
%TO.P,U1,19*%
%TO.N,SWCLK*%
X-2862500Y-3725000D03*
%TO.P,U1,20*%
%TO.N,SPI_MOSI*%
X-2862500Y-3075000D03*
%TD*%
D16*
%TO.P,R_LED,1*%
%TO.N,LED_CTRL*%
X9825000Y-11000000D03*
%TO.P,R_LED,2*%
%TO.N,LED_A*%
X8175000Y-11000000D03*
%TD*%
D13*
%TO.P,J_RF,1*%
%TO.N,GND*%
X9000000Y-15200000D03*
D14*
%TO.P,J_RF,2*%
%TO.N,+3V0*%
X6460000Y-15200000D03*
%TO.P,J_RF,3*%
%TO.N,RF_GDO0*%
X3920000Y-15200000D03*
%TO.P,J_RF,4*%
%TO.N,RF_CSN*%
X1380000Y-15200000D03*
%TO.P,J_RF,5*%
%TO.N,SPI_SCK*%
X-1160000Y-15200000D03*
%TO.P,J_RF,6*%
%TO.N,SPI_MOSI*%
X-3700000Y-15200000D03*
%TO.P,J_RF,7*%
%TO.N,SPI_MISO*%
X-6240000Y-15200000D03*
%TO.P,J_RF,8*%
%TO.N,RF_GDO2*%
X-8780000Y-15200000D03*
%TD*%
D17*
%TO.P,C3,1*%
%TO.N,+3V0*%
X12950000Y-3000000D03*
%TO.P,C3,2*%
%TO.N,GND*%
X11050000Y-3000000D03*
%TD*%
D10*
%TO.P,C2,1*%
%TO.N,+3V0*%
X-6000000Y-6775000D03*
%TO.P,C2,2*%
%TO.N,GND*%
X-6000000Y-5225000D03*
%TD*%
D18*
%TO.P,ANT,1*%
%TO.N,ANT*%
X0Y-21000000D03*
%TD*%
D19*
%TO.N,GND*%
X15500000Y1700000D03*
X6000000Y-5225000D03*
X-13800000Y0D03*
X-6000000Y-5225000D03*
X-15099200Y15720700D03*
X16799200Y14020700D03*
X11050000Y-3000000D03*
X-15099200Y-12320700D03*
X-937500Y-9000000D03*
X15099200Y-12320700D03*
X0Y11000000D03*
D20*
X2862500Y-5675000D03*
D19*
%TO.N,LED_A*%
X964700Y-10642900D03*
%TO.N,BTN4*%
X7993200Y-8614700D03*
%TO.N,BTN1*%
X-7129100Y-1058400D03*
%TO.N,BTN2*%
X-973100Y-4393200D03*
%TO.N,BTN5*%
X14481000Y-6757700D03*
%TO.N,BTN6*%
X452300Y-7040600D03*
%TO.N,BTN3*%
X-14096700Y7144400D03*
D20*
%TO.N,+3V0*%
X2862500Y-5025000D03*
D19*
X-6000000Y-6775000D03*
X12950000Y-3000000D03*
X-12800000Y11000000D03*
X12800000Y11000000D03*
X6000000Y-6775000D03*
%TO.N,RF_GDO2*%
X-6575100Y-2592300D03*
%TO.N,RF_GDO0*%
X-1076800Y-5353300D03*
%TO.N,SPI_MOSI*%
X-4828000Y-3121600D03*
%TD*%
%TO.N,LED_A*%
D21*
X8175000Y-11000000D02*
X1321800Y-11000000D01*
X1321800Y-11000000D02*
X964700Y-10642900D01*
X937500Y-10642900D02*
X964700Y-10642900D01*
X964700Y-10642900D02*
X937500Y-10642900D01*
%TO.N,BTN4*%
X4599800Y-8925000D02*
X2862500Y-8925000D01*
X4910100Y-8614700D02*
X4599800Y-8925000D01*
X4910100Y-8614700D02*
X7993200Y-8614700D01*
%TO.N,BTN1*%
X3528600Y-6975000D02*
X3928200Y-6575400D01*
X3665500Y-2546400D02*
X2999700Y-2546400D01*
X3928200Y-2809100D02*
X3665500Y-2546400D01*
X2862500Y-6975000D02*
X3528600Y-6975000D01*
X-7977500Y-1058400D02*
X-7129100Y-1058400D01*
X1511700Y-1058400D02*
X-7129100Y-1058400D01*
X-7129100Y-1058400D02*
X-7977500Y-1058400D01*
X2999700Y-2546400D02*
X1511700Y-1058400D01*
X3928200Y-6575400D02*
X3928200Y-2809100D01*
%TO.N,BTN2*%
X-973100Y-4393200D02*
X-973100Y-4463700D01*
X2188200Y-7625000D02*
X2862500Y-7625000D01*
X-973100Y-4463700D02*
X-973100Y-4393200D01*
X-973100Y-4463700D02*
X2188200Y-7625000D01*
X-973100Y-4393200D02*
X-973100Y-4463700D01*
%TO.N,BTN5*%
X-2143600Y-9643900D02*
X11594800Y-9643900D01*
X14481000Y-6757700D02*
X14481000Y-9643900D01*
X14481000Y-9643900D02*
X14481000Y-6757700D01*
X-2862500Y-8925000D02*
X-2143600Y-9643900D01*
X11594800Y-9643900D02*
X14481000Y-6757700D01*
%TO.N,BTN6*%
X652400Y-7040600D02*
X652400Y-7070000D01*
X-552600Y-8275000D02*
X652400Y-7070000D01*
X574000Y-7040600D02*
X452300Y-7040600D01*
X452300Y-7040600D02*
X452300Y-7042000D01*
X652400Y-7040600D02*
X574000Y-7040600D01*
X452300Y-7042000D02*
X452300Y-7040600D01*
X-2862500Y-8275000D02*
X-552600Y-8275000D01*
%TO.N,BTN3*%
X4329900Y-2642800D02*
X1403800Y283300D01*
X2862500Y-8275000D02*
X3551000Y-8275000D01*
X4329900Y-7496100D02*
X4329900Y-2642800D01*
X-7235600Y283300D02*
X-14096700Y7144400D01*
X3551000Y-8275000D02*
X4329900Y-7496100D01*
X1403800Y283300D02*
X-7235600Y283300D01*
%TO.N,SWDIO*%
X-8185000Y-4375000D02*
X-2862500Y-4375000D01*
X-18600000Y6040000D02*
X-8185000Y-4375000D01*
%TO.N,SWCLK*%
X-18600000Y8012100D02*
X-6784100Y-3803800D01*
X-2941300Y-3803800D02*
X-2862500Y-3725000D01*
X-18600000Y8580000D02*
X-18600000Y8012100D01*
X-6784100Y-3803800D02*
X-2941300Y-3803800D01*
%TO.N,NRST*%
X-17210200Y9730200D02*
X-18600000Y11120000D01*
X-17210200Y8816800D02*
X-17210200Y9730200D01*
X-6659100Y-3360800D02*
X-9141600Y-878300D01*
X-9141600Y-878300D02*
X-9141600Y748200D01*
X-1625500Y-2518300D02*
X-5090400Y-2518300D01*
X-5932900Y-3360800D02*
X-6659100Y-3360800D01*
X2181200Y-6325000D02*
X-1625500Y-2518300D01*
X2862500Y-6325000D02*
X2181200Y-6325000D01*
X-5090400Y-2518300D02*
X-5932900Y-3360800D01*
X-9141600Y748200D02*
X-17210200Y8816800D01*
%TO.N,RF_GDO2*%
X1904000Y-2116500D02*
X-6099300Y-2116500D01*
X2862500Y-3075000D02*
X1904000Y-2116500D01*
X-6099300Y-2116500D02*
X-6575100Y-2592300D01*
%TO.N,LED_CTRL*%
X-1299400Y-11821100D02*
X9003900Y-11821100D01*
X-2862500Y-7625000D02*
X-3596500Y-7625000D01*
X-3596500Y-7625000D02*
X-3953500Y-7982000D01*
X-3953500Y-7982000D02*
X-3953500Y-9167000D01*
X-3953500Y-9167000D02*
X-1299400Y-11821100D01*
X9003900Y-11821100D02*
X9825000Y-11000000D01*
%TO.N,RF_CSN*%
X-3575300Y-6975000D02*
X-4355200Y-7754900D01*
X-4355200Y-7754900D02*
X-4355200Y-9464800D01*
X-2862500Y-6975000D02*
X-3575300Y-6975000D01*
X-4355200Y-9464800D02*
X1380000Y-15200000D01*
%TO.N,SPI_SCK*%
X-4756900Y-7563200D02*
X-4756900Y-11603100D01*
X-2862500Y-6325000D02*
X-3518700Y-6325000D01*
X-3518700Y-6325000D02*
X-4756900Y-7563200D01*
X-4756900Y-11603100D02*
X-1160000Y-15200000D01*
%TO.N,SPI_MISO*%
X-2862500Y-5675000D02*
X-3595100Y-5675000D01*
X-6240000Y-8319900D02*
X-6240000Y-15200000D01*
X-3595100Y-5675000D02*
X-6240000Y-8319900D01*
%TO.N,RF_GDO0*%
X-1076800Y-5353300D02*
X-1405100Y-5025000D01*
X-1405100Y-5025000D02*
X-2862500Y-5025000D01*
%TO.N,SPI_MOSI*%
X-2909100Y-3121600D02*
X-2862500Y-3075000D01*
X-4828000Y-3121600D02*
X-2909100Y-3121600D01*
X-4828000Y-3121600D02*
X-4130100Y-3121600D01*
X-4826400Y-3121600D02*
X-4828000Y-3121600D01*
X-4828000Y-3121600D02*
X-4826400Y-3121600D01*
X-4130100Y-3121600D02*
X-4828000Y-3121600D01*
%TD*%
M02*
