%TF.GenerationSoftware,KiCad,Pcbnew,10.0.4*%
%TF.CreationDate,2026-07-28T11:01:34+02:00*%
%TF.ProjectId,Homematic-6Button-Flush,486f6d65-6d61-4746-9963-2d3642757474,rev?*%
%TF.SameCoordinates,Original*%
%TF.FileFunction,Legend,Top*%
%TF.FilePolarity,Positive*%
%FSLAX46Y46*%
G04 Gerber Fmt 4.6, Leading zero omitted, Abs format (unit mm)*
G04 Created by KiCad (PCBNEW 10.0.4) date 2026-07-28 11:01:34*
%MOMM*%
%LPD*%
G01*
G04 APERTURE LIST*
%ADD10C,0.150000*%
%ADD11C,0.158750*%
%ADD12C,0.120000*%
G04 APERTURE END LIST*
D10*
X-1119047Y-7804819D02*
X-1595237Y-7804819D01*
X-1595237Y-7804819D02*
X-1595237Y-6804819D01*
X-785713Y-7281009D02*
X-452380Y-7281009D01*
X-309523Y-7804819D02*
X-785713Y-7804819D01*
X-785713Y-7804819D02*
X-785713Y-6804819D01*
X-785713Y-6804819D02*
X-309523Y-6804819D01*
X119048Y-7804819D02*
X119048Y-6804819D01*
X119048Y-6804819D02*
X357143Y-6804819D01*
X357143Y-6804819D02*
X500000Y-6852438D01*
X500000Y-6852438D02*
X595238Y-6947676D01*
X595238Y-6947676D02*
X642857Y-7042914D01*
X642857Y-7042914D02*
X690476Y-7233390D01*
X690476Y-7233390D02*
X690476Y-7376247D01*
X690476Y-7376247D02*
X642857Y-7566723D01*
X642857Y-7566723D02*
X595238Y-7661961D01*
X595238Y-7661961D02*
X500000Y-7757200D01*
X500000Y-7757200D02*
X357143Y-7804819D01*
X357143Y-7804819D02*
X119048Y-7804819D01*
X1642857Y-7804819D02*
X1071429Y-7804819D01*
X1357143Y-7804819D02*
X1357143Y-6804819D01*
X1357143Y-6804819D02*
X1261905Y-6947676D01*
X1261905Y-6947676D02*
X1166667Y-7042914D01*
X1166667Y-7042914D02*
X1071429Y-7090533D01*
X13006400Y-15354032D02*
X13054019Y-15211175D01*
X13054019Y-15211175D02*
X13054019Y-14973080D01*
X13054019Y-14973080D02*
X13006400Y-14877842D01*
X13006400Y-14877842D02*
X12958780Y-14830223D01*
X12958780Y-14830223D02*
X12863542Y-14782604D01*
X12863542Y-14782604D02*
X12768304Y-14782604D01*
X12768304Y-14782604D02*
X12673066Y-14830223D01*
X12673066Y-14830223D02*
X12625447Y-14877842D01*
X12625447Y-14877842D02*
X12577828Y-14973080D01*
X12577828Y-14973080D02*
X12530209Y-15163556D01*
X12530209Y-15163556D02*
X12482590Y-15258794D01*
X12482590Y-15258794D02*
X12434971Y-15306413D01*
X12434971Y-15306413D02*
X12339733Y-15354032D01*
X12339733Y-15354032D02*
X12244495Y-15354032D01*
X12244495Y-15354032D02*
X12149257Y-15306413D01*
X12149257Y-15306413D02*
X12101638Y-15258794D01*
X12101638Y-15258794D02*
X12054019Y-15163556D01*
X12054019Y-15163556D02*
X12054019Y-14925461D01*
X12054019Y-14925461D02*
X12101638Y-14782604D01*
X12054019Y-14449270D02*
X13054019Y-14211175D01*
X13054019Y-14211175D02*
X12339733Y-14020699D01*
X12339733Y-14020699D02*
X13054019Y-13830223D01*
X13054019Y-13830223D02*
X12054019Y-13592128D01*
X12387352Y-12782604D02*
X13054019Y-12782604D01*
X12006400Y-13020699D02*
X12720685Y-13258794D01*
X12720685Y-13258794D02*
X12720685Y-12639747D01*
X-17192000Y-15354032D02*
X-17144380Y-15211175D01*
X-17144380Y-15211175D02*
X-17144380Y-14973080D01*
X-17144380Y-14973080D02*
X-17192000Y-14877842D01*
X-17192000Y-14877842D02*
X-17239619Y-14830223D01*
X-17239619Y-14830223D02*
X-17334857Y-14782604D01*
X-17334857Y-14782604D02*
X-17430095Y-14782604D01*
X-17430095Y-14782604D02*
X-17525333Y-14830223D01*
X-17525333Y-14830223D02*
X-17572952Y-14877842D01*
X-17572952Y-14877842D02*
X-17620571Y-14973080D01*
X-17620571Y-14973080D02*
X-17668190Y-15163556D01*
X-17668190Y-15163556D02*
X-17715809Y-15258794D01*
X-17715809Y-15258794D02*
X-17763428Y-15306413D01*
X-17763428Y-15306413D02*
X-17858666Y-15354032D01*
X-17858666Y-15354032D02*
X-17953904Y-15354032D01*
X-17953904Y-15354032D02*
X-18049142Y-15306413D01*
X-18049142Y-15306413D02*
X-18096761Y-15258794D01*
X-18096761Y-15258794D02*
X-18144380Y-15163556D01*
X-18144380Y-15163556D02*
X-18144380Y-14925461D01*
X-18144380Y-14925461D02*
X-18096761Y-14782604D01*
X-18144380Y-14449270D02*
X-17144380Y-14211175D01*
X-17144380Y-14211175D02*
X-17858666Y-14020699D01*
X-17858666Y-14020699D02*
X-17144380Y-13830223D01*
X-17144380Y-13830223D02*
X-18144380Y-13592128D01*
X-17144380Y-12687366D02*
X-17144380Y-13258794D01*
X-17144380Y-12973080D02*
X-18144380Y-12973080D01*
X-18144380Y-12973080D02*
X-18001523Y-13068318D01*
X-18001523Y-13068318D02*
X-17906285Y-13163556D01*
X-17906285Y-13163556D02*
X-17858666Y-13258794D01*
X-16833332Y2092800D02*
X-16690475Y2045180D01*
X-16690475Y2045180D02*
X-16452380Y2045180D01*
X-16452380Y2045180D02*
X-16357142Y2092800D01*
X-16357142Y2092800D02*
X-16309523Y2140419D01*
X-16309523Y2140419D02*
X-16261904Y2235657D01*
X-16261904Y2235657D02*
X-16261904Y2330895D01*
X-16261904Y2330895D02*
X-16309523Y2426133D01*
X-16309523Y2426133D02*
X-16357142Y2473752D01*
X-16357142Y2473752D02*
X-16452380Y2521371D01*
X-16452380Y2521371D02*
X-16642856Y2568990D01*
X-16642856Y2568990D02*
X-16738094Y2616609D01*
X-16738094Y2616609D02*
X-16785713Y2664228D01*
X-16785713Y2664228D02*
X-16833332Y2759466D01*
X-16833332Y2759466D02*
X-16833332Y2854704D01*
X-16833332Y2854704D02*
X-16785713Y2949942D01*
X-16785713Y2949942D02*
X-16738094Y2997561D01*
X-16738094Y2997561D02*
X-16642856Y3045180D01*
X-16642856Y3045180D02*
X-16404761Y3045180D01*
X-16404761Y3045180D02*
X-16261904Y2997561D01*
X-15928570Y3045180D02*
X-15690475Y2045180D01*
X-15690475Y2045180D02*
X-15499999Y2759466D01*
X-15499999Y2759466D02*
X-15309523Y2045180D01*
X-15309523Y2045180D02*
X-15071428Y3045180D01*
X-14738094Y2949942D02*
X-14690475Y2997561D01*
X-14690475Y2997561D02*
X-14595237Y3045180D01*
X-14595237Y3045180D02*
X-14357142Y3045180D01*
X-14357142Y3045180D02*
X-14261904Y2997561D01*
X-14261904Y2997561D02*
X-14214285Y2949942D01*
X-14214285Y2949942D02*
X-14166666Y2854704D01*
X-14166666Y2854704D02*
X-14166666Y2759466D01*
X-14166666Y2759466D02*
X-14214285Y2616609D01*
X-14214285Y2616609D02*
X-14785713Y2045180D01*
X-14785713Y2045180D02*
X-14166666Y2045180D01*
X13407200Y-1333332D02*
X13454819Y-1190475D01*
X13454819Y-1190475D02*
X13454819Y-952380D01*
X13454819Y-952380D02*
X13407200Y-857142D01*
X13407200Y-857142D02*
X13359580Y-809523D01*
X13359580Y-809523D02*
X13264342Y-761904D01*
X13264342Y-761904D02*
X13169104Y-761904D01*
X13169104Y-761904D02*
X13073866Y-809523D01*
X13073866Y-809523D02*
X13026247Y-857142D01*
X13026247Y-857142D02*
X12978628Y-952380D01*
X12978628Y-952380D02*
X12931009Y-1142856D01*
X12931009Y-1142856D02*
X12883390Y-1238094D01*
X12883390Y-1238094D02*
X12835771Y-1285713D01*
X12835771Y-1285713D02*
X12740533Y-1333332D01*
X12740533Y-1333332D02*
X12645295Y-1333332D01*
X12645295Y-1333332D02*
X12550057Y-1285713D01*
X12550057Y-1285713D02*
X12502438Y-1238094D01*
X12502438Y-1238094D02*
X12454819Y-1142856D01*
X12454819Y-1142856D02*
X12454819Y-904761D01*
X12454819Y-904761D02*
X12502438Y-761904D01*
X12454819Y-428570D02*
X13454819Y-190475D01*
X13454819Y-190475D02*
X12740533Y0D01*
X12740533Y0D02*
X13454819Y190476D01*
X13454819Y190476D02*
X12454819Y428572D01*
X12454819Y1285714D02*
X12454819Y809524D01*
X12454819Y809524D02*
X12931009Y761905D01*
X12931009Y761905D02*
X12883390Y809524D01*
X12883390Y809524D02*
X12835771Y904762D01*
X12835771Y904762D02*
X12835771Y1142857D01*
X12835771Y1142857D02*
X12883390Y1238095D01*
X12883390Y1238095D02*
X12931009Y1285714D01*
X12931009Y1285714D02*
X13026247Y1333333D01*
X13026247Y1333333D02*
X13264342Y1333333D01*
X13264342Y1333333D02*
X13359580Y1285714D01*
X13359580Y1285714D02*
X13407200Y1238095D01*
X13407200Y1238095D02*
X13454819Y1142857D01*
X13454819Y1142857D02*
X13454819Y904762D01*
X13454819Y904762D02*
X13407200Y809524D01*
X13407200Y809524D02*
X13359580Y761905D01*
D11*
X-23693333Y-579271D02*
X-23693333Y690728D01*
X-23693333Y690728D02*
X-23269999Y-216414D01*
X-23269999Y-216414D02*
X-22846666Y690728D01*
X-22846666Y690728D02*
X-22846666Y-579271D01*
X-22241904Y-579271D02*
X-22241904Y690728D01*
X-22241904Y85966D02*
X-21516189Y85966D01*
X-21516189Y-579271D02*
X-21516189Y690728D01*
X-20246189Y-579271D02*
X-20971904Y-579271D01*
X-20609047Y-579271D02*
X-20609047Y690728D01*
X-20609047Y690728D02*
X-20729999Y509300D01*
X-20729999Y509300D02*
X-20850951Y388347D01*
X-20850951Y388347D02*
X-20971904Y327871D01*
D10*
X13765867Y16113500D02*
X13908724Y16065880D01*
X13908724Y16065880D02*
X14146819Y16065880D01*
X14146819Y16065880D02*
X14242057Y16113500D01*
X14242057Y16113500D02*
X14289676Y16161119D01*
X14289676Y16161119D02*
X14337295Y16256357D01*
X14337295Y16256357D02*
X14337295Y16351595D01*
X14337295Y16351595D02*
X14289676Y16446833D01*
X14289676Y16446833D02*
X14242057Y16494452D01*
X14242057Y16494452D02*
X14146819Y16542071D01*
X14146819Y16542071D02*
X13956343Y16589690D01*
X13956343Y16589690D02*
X13861105Y16637309D01*
X13861105Y16637309D02*
X13813486Y16684928D01*
X13813486Y16684928D02*
X13765867Y16780166D01*
X13765867Y16780166D02*
X13765867Y16875404D01*
X13765867Y16875404D02*
X13813486Y16970642D01*
X13813486Y16970642D02*
X13861105Y17018261D01*
X13861105Y17018261D02*
X13956343Y17065880D01*
X13956343Y17065880D02*
X14194438Y17065880D01*
X14194438Y17065880D02*
X14337295Y17018261D01*
X14670629Y17065880D02*
X14908724Y16065880D01*
X14908724Y16065880D02*
X15099200Y16780166D01*
X15099200Y16780166D02*
X15289676Y16065880D01*
X15289676Y16065880D02*
X15527772Y17065880D01*
X16337295Y17065880D02*
X16146819Y17065880D01*
X16146819Y17065880D02*
X16051581Y17018261D01*
X16051581Y17018261D02*
X16003962Y16970642D01*
X16003962Y16970642D02*
X15908724Y16827785D01*
X15908724Y16827785D02*
X15861105Y16637309D01*
X15861105Y16637309D02*
X15861105Y16256357D01*
X15861105Y16256357D02*
X15908724Y16161119D01*
X15908724Y16161119D02*
X15956343Y16113500D01*
X15956343Y16113500D02*
X16051581Y16065880D01*
X16051581Y16065880D02*
X16242057Y16065880D01*
X16242057Y16065880D02*
X16337295Y16113500D01*
X16337295Y16113500D02*
X16384914Y16161119D01*
X16384914Y16161119D02*
X16432533Y16256357D01*
X16432533Y16256357D02*
X16432533Y16494452D01*
X16432533Y16494452D02*
X16384914Y16589690D01*
X16384914Y16589690D02*
X16337295Y16637309D01*
X16337295Y16637309D02*
X16242057Y16684928D01*
X16242057Y16684928D02*
X16051581Y16684928D01*
X16051581Y16684928D02*
X15956343Y16637309D01*
X15956343Y16637309D02*
X15908724Y16589690D01*
X15908724Y16589690D02*
X15861105Y16494452D01*
X-17192000Y12687367D02*
X-17144380Y12830224D01*
X-17144380Y12830224D02*
X-17144380Y13068319D01*
X-17144380Y13068319D02*
X-17192000Y13163557D01*
X-17192000Y13163557D02*
X-17239619Y13211176D01*
X-17239619Y13211176D02*
X-17334857Y13258795D01*
X-17334857Y13258795D02*
X-17430095Y13258795D01*
X-17430095Y13258795D02*
X-17525333Y13211176D01*
X-17525333Y13211176D02*
X-17572952Y13163557D01*
X-17572952Y13163557D02*
X-17620571Y13068319D01*
X-17620571Y13068319D02*
X-17668190Y12877843D01*
X-17668190Y12877843D02*
X-17715809Y12782605D01*
X-17715809Y12782605D02*
X-17763428Y12734986D01*
X-17763428Y12734986D02*
X-17858666Y12687367D01*
X-17858666Y12687367D02*
X-17953904Y12687367D01*
X-17953904Y12687367D02*
X-18049142Y12734986D01*
X-18049142Y12734986D02*
X-18096761Y12782605D01*
X-18096761Y12782605D02*
X-18144380Y12877843D01*
X-18144380Y12877843D02*
X-18144380Y13115938D01*
X-18144380Y13115938D02*
X-18096761Y13258795D01*
X-18144380Y13592129D02*
X-17144380Y13830224D01*
X-17144380Y13830224D02*
X-17858666Y14020700D01*
X-17858666Y14020700D02*
X-17144380Y14211176D01*
X-17144380Y14211176D02*
X-18144380Y14449272D01*
X-18144380Y14734986D02*
X-18144380Y15354033D01*
X-18144380Y15354033D02*
X-17763428Y15020700D01*
X-17763428Y15020700D02*
X-17763428Y15163557D01*
X-17763428Y15163557D02*
X-17715809Y15258795D01*
X-17715809Y15258795D02*
X-17668190Y15306414D01*
X-17668190Y15306414D02*
X-17572952Y15354033D01*
X-17572952Y15354033D02*
X-17334857Y15354033D01*
X-17334857Y15354033D02*
X-17239619Y15306414D01*
X-17239619Y15306414D02*
X-17192000Y15258795D01*
X-17192000Y15258795D02*
X-17144380Y15163557D01*
X-17144380Y15163557D02*
X-17144380Y14877843D01*
X-17144380Y14877843D02*
X-17192000Y14782605D01*
X-17192000Y14782605D02*
X-17239619Y14734986D01*
D11*
X20306666Y-579271D02*
X20306666Y690728D01*
X20306666Y690728D02*
X20730000Y-216414D01*
X20730000Y-216414D02*
X21153333Y690728D01*
X21153333Y690728D02*
X21153333Y-579271D01*
X21758095Y-579271D02*
X21758095Y690728D01*
X21758095Y85966D02*
X22483810Y85966D01*
X22483810Y-579271D02*
X22483810Y690728D01*
X23028095Y569776D02*
X23088571Y630252D01*
X23088571Y630252D02*
X23209524Y690728D01*
X23209524Y690728D02*
X23511905Y690728D01*
X23511905Y690728D02*
X23632857Y630252D01*
X23632857Y630252D02*
X23693333Y569776D01*
X23693333Y569776D02*
X23753810Y448824D01*
X23753810Y448824D02*
X23753810Y327871D01*
X23753810Y327871D02*
X23693333Y146443D01*
X23693333Y146443D02*
X22967619Y-579271D01*
X22967619Y-579271D02*
X23753810Y-579271D01*
%TO.C,LED1*%
D12*
X-1685000Y-8040000D02*
X-1685000Y-9960000D01*
X-1685000Y-9960000D02*
X1000000Y-9960000D01*
X1000000Y-8040000D02*
X-1685000Y-8040000D01*
%TO.C,SW4*%
X13699200Y-12370700D02*
X13999200Y-12370700D01*
X13699200Y-15670700D02*
X13699200Y-12370700D01*
X13999200Y-15670700D02*
X13699200Y-15670700D01*
X16199200Y-15670700D02*
X16499200Y-15670700D01*
X16499200Y-12370700D02*
X16199200Y-12370700D01*
X16499200Y-15670700D02*
X16499200Y-12370700D01*
%TO.C,SW1*%
X-16499200Y-12370700D02*
X-16199200Y-12370700D01*
X-16499200Y-15670700D02*
X-16499200Y-12370700D01*
X-16199200Y-15670700D02*
X-16499200Y-15670700D01*
X-13999200Y-15670700D02*
X-13699200Y-15670700D01*
X-13699200Y-12370700D02*
X-13999200Y-12370700D01*
X-13699200Y-15670700D02*
X-13699200Y-12370700D01*
%TO.C,SW2*%
X-17150000Y1400000D02*
X-13850000Y1400000D01*
X-17150000Y1100000D02*
X-17150000Y1400000D01*
X-17150000Y-1100000D02*
X-17150000Y-1400000D01*
X-17150000Y-1400000D02*
X-13850000Y-1400000D01*
X-13850000Y1400000D02*
X-13850000Y1100000D01*
X-13850000Y-1400000D02*
X-13850000Y-1100000D01*
%TO.C,SW5*%
X14100000Y1650000D02*
X14400000Y1650000D01*
X14100000Y-1650000D02*
X14100000Y1650000D01*
X14400000Y-1650000D02*
X14100000Y-1650000D01*
X16600000Y-1650000D02*
X16900000Y-1650000D01*
X16900000Y1650000D02*
X16600000Y1650000D01*
X16900000Y-1650000D02*
X16900000Y1650000D01*
%TO.C,SW6*%
X13449200Y15420700D02*
X16749200Y15420700D01*
X13449200Y15120700D02*
X13449200Y15420700D01*
X13449200Y12920700D02*
X13449200Y12620700D01*
X13449200Y12620700D02*
X16749200Y12620700D01*
X16749200Y15420700D02*
X16749200Y15120700D01*
X16749200Y12620700D02*
X16749200Y12920700D01*
%TO.C,SW3*%
X-16499200Y15670700D02*
X-16199200Y15670700D01*
X-16499200Y12370700D02*
X-16499200Y15670700D01*
X-16199200Y12370700D02*
X-16499200Y12370700D01*
X-13999200Y12370700D02*
X-13699200Y12370700D01*
X-13699200Y15670700D02*
X-13999200Y15670700D01*
X-13699200Y12370700D02*
X-13699200Y15670700D01*
%TD*%
M02*
